<?xml version="1.0" encoding="UTF-8" standalone="no"?>
<!-- Generated by graphviz version 5.0.1 (0)
 -->

<!-- Title: symm_tops Pages: 1 -->

<svg
   width="521pt"
   height="476pt"
   viewBox="0.00 0.00 520.54 476.00"
   version="1.1"
   id="svg217"
   sodipodi:docname="corrs.svg"
   inkscape:version="1.2.1 (9c6d41e410, 2022-07-14, custom)"
   xmlns:inkscape="http://www.inkscape.org/namespaces/inkscape"
   xmlns:sodipodi="http://sodipodi.sourceforge.net/DTD/sodipodi-0.dtd"
   xmlns="http://www.w3.org/2000/svg"
   xmlns:svg="http://www.w3.org/2000/svg">
  <defs
     id="defs221" />
  <sodipodi:namedview
     id="namedview219"
     pagecolor="#ffffff"
     bordercolor="#666666"
     borderopacity="1.0"
     inkscape:showpageshadow="2"
     inkscape:pageopacity="0.0"
     inkscape:pagecheckerboard="0"
     inkscape:deskcolor="#d1d1d1"
     inkscape:document-units="pt"
     showgrid="false"
     inkscape:zoom="1.487395"
     inkscape:cx="455.49435"
     inkscape:cy="293.80226"
     inkscape:window-width="1914"
     inkscape:window-height="1053"
     inkscape:window-x="0"
     inkscape:window-y="21"
     inkscape:window-maximized="1"
     inkscape:current-layer="svg217" />
  <g
     id="graph0"
     class="graph"
     transform="scale(1 1) rotate(0) translate(4 472)">
    <title
       id="title2">symm_tops</title>
    <polygon
       fill="white"
       stroke="none"
       points="-4,4 -4,-472 516.54,-472 516.54,4 -4,4"
       id="polygon4" />
    <!-- corrs -->
    <g
       id="node1"
       class="node">
      <title
         id="title6">corrs</title>
      <ellipse
         fill="none"
         stroke="black"
         cx="344.9"
         cy="-450"
         rx="34.39"
         ry="18"
         id="ellipse8" />
      <text
         text-anchor="middle"
         x="344.9"
         y="-446.3"
         font-family="Times,serif"
         font-size="14.00"
         id="text10">corrs</text>
    </g>
    <!-- enrgy -->
    <g
       id="node2"
       class="node">
      <title
         id="title13">enrgy</title>
      <ellipse
         fill="none"
         stroke="black"
         cx="344.9"
         cy="-378"
         rx="37.89"
         ry="18"
         id="ellipse15" />
      <text
         text-anchor="middle"
         x="344.9"
         y="-374.3"
         font-family="Times,serif"
         font-size="14.00"
         id="text17">enrgy</text>
    </g>
    <!-- corrs&#45;&gt;enrgy -->
    <g
       id="edge1"
       class="edge">
      <title
         id="title20">corrs-&gt;enrgy</title>
      <path
         fill="none"
         stroke="black"
         d="M344.9,-431.7C344.9,-423.98 344.9,-414.71 344.9,-406.11"
         id="path22" />
      <polygon
         fill="black"
         stroke="black"
         points="348.4,-406.1 344.9,-396.1 341.4,-406.1 348.4,-406.1"
         id="polygon24" />
    </g>
    <!-- freq -->
    <g
       id="node3"
       class="node">
      <title
         id="title27">freq</title>
      <ellipse
         fill="none"
         stroke="black"
         cx="29.9"
         cy="-234"
         rx="29.8"
         ry="18"
         id="ellipse29" />
      <text
         text-anchor="middle"
         x="29.9"
         y="-230.3"
         font-family="Times,serif"
         font-size="14.00"
         id="text31">freq</text>
    </g>
    <!-- enrgy&#45;&gt;freq -->
    <g
       id="edge2"
       class="edge">
      <title
         id="title34">enrgy-&gt;freq</title>
      <path
         fill="none"
         stroke="black"
         d="M312.05,-369.02C277.75,-360.12 222.8,-344.29 177.9,-324 133.57,-303.97 86,-273.59 57.09,-254.02"
         id="path36" />
      <polygon
         fill="black"
         stroke="black"
         points="58.97,-251.07 48.74,-248.31 55.02,-256.85 58.97,-251.07"
         id="polygon38" />
    </g>
    <!-- xcnst -->
    <g
       id="node4"
       class="node">
      <title
         id="title41">xcnst</title>
      <ellipse
         fill="none"
         stroke="black"
         cx="222.9"
         cy="-306"
         rx="36"
         ry="18"
         id="ellipse43" />
      <text
         text-anchor="middle"
         x="222.9"
         y="-302.3"
         font-family="Times,serif"
         font-size="14.00"
         id="text45">xcnst</text>
    </g>
    <!-- enrgy&#45;&gt;xcnst -->
    <g
       id="edge3"
       class="edge">
      <title
         id="title48">enrgy-&gt;xcnst</title>
      <path
         fill="none"
         stroke="black"
         d="M321.66,-363.67C302.63,-352.75 275.52,-337.19 254.51,-325.14"
         id="path50" />
      <polygon
         fill="black"
         stroke="black"
         points="256.05,-321.99 245.63,-320.04 252.56,-328.06 256.05,-321.99"
         id="polygon52" />
    </g>
    <!-- gcnst -->
    <g
       id="node5"
       class="node">
      <title
         id="title55">gcnst</title>
      <ellipse
         fill="none"
         stroke="black"
         cx="312.9"
         cy="-306"
         rx="36.29"
         ry="18"
         id="ellipse57" />
      <text
         text-anchor="middle"
         x="312.9"
         y="-302.3"
         font-family="Times,serif"
         font-size="14.00"
         id="text59">gcnst</text>
    </g>
    <!-- enrgy&#45;&gt;gcnst -->
    <g
       id="edge4"
       class="edge">
      <title
         id="title62">enrgy-&gt;gcnst</title>
      <path
         fill="none"
         stroke="black"
         d="M337.15,-360.05C333.46,-351.97 328.95,-342.12 324.83,-333.11"
         id="path64" />
      <polygon
         fill="black"
         stroke="black"
         points="327.91,-331.43 320.57,-323.79 321.55,-334.34 327.91,-331.43"
         id="polygon66" />
    </g>
    <!-- restst -->
    <g
       id="node6"
       class="node">
      <title
         id="title69">restst</title>
      <ellipse
         fill="none"
         stroke="black"
         cx="376.9"
         cy="-234"
         rx="38.19"
         ry="18"
         id="ellipse71" />
      <text
         text-anchor="middle"
         x="376.9"
         y="-230.3"
         font-family="Times,serif"
         font-size="14.00"
         id="text73">restst</text>
    </g>
    <!-- enrgy&#45;&gt;restst -->
    <g
       id="edge5"
       class="edge">
      <title
         id="title76">enrgy-&gt;restst</title>
      <path
         fill="none"
         stroke="black"
         d="M349.24,-359.85C351.83,-349.48 355.14,-336 357.9,-324 362.64,-303.34 367.63,-279.89 371.3,-262.25"
         id="path78" />
      <polygon
         fill="black"
         stroke="black"
         points="374.8,-262.6 373.41,-252.1 367.95,-261.18 374.8,-262.6"
         id="polygon80" />
    </g>
    <!-- f3qcm -->
    <g
       id="node7"
       class="node">
      <title
         id="title83">f3qcm</title>
      <ellipse
         fill="none"
         stroke="black"
         cx="472.9"
         cy="-234"
         rx="39.79"
         ry="18"
         id="ellipse85" />
      <text
         text-anchor="middle"
         x="472.9"
         y="-230.3"
         font-family="Times,serif"
         font-size="14.00"
         id="text87">f3qcm</text>
    </g>
    <!-- enrgy&#45;&gt;f3qcm -->
    <g
       id="edge6"
       class="edge">
      <title
         id="title90">enrgy-&gt;f3qcm</title>
      <path
         fill="none"
         stroke="black"
         d="M359.08,-361.26C381.57,-336.31 425.54,-287.54 451.76,-258.45"
         id="path92" />
      <polygon
         fill="black"
         stroke="black"
         points="454.55,-260.58 458.65,-250.81 449.35,-255.89 454.55,-260.58"
         id="polygon94" />
    </g>
    <!-- e0 -->
    <g
       id="node8"
       class="node">
      <title
         id="title97">e0</title>
      <ellipse
         fill="none"
         stroke="black"
         cx="469.9"
         cy="-306"
         rx="27"
         ry="18"
         id="ellipse99" />
      <text
         text-anchor="middle"
         x="469.9"
         y="-302.3"
         font-family="Times,serif"
         font-size="14.00"
         id="text101">e0</text>
    </g>
    <!-- enrgy&#45;&gt;e0 -->
    <g
       id="edge7"
       class="edge">
      <title
         id="title104">enrgy-&gt;e0</title>
      <path
         fill="none"
         stroke="black"
         d="M368.41,-363.83C388.95,-352.33 418.86,-335.58 440.88,-323.25"
         id="path106" />
      <polygon
         fill="black"
         stroke="black"
         points="442.78,-326.2 449.79,-318.26 439.36,-320.09 442.78,-326.2"
         id="polygon108" />
    </g>
    <!-- xcnst&#45;&gt;freq -->
    <g
       id="edge8"
       class="edge">
      <title
         id="title111">xcnst-&gt;freq</title>
      <path
         fill="none"
         stroke="black"
         d="M193.41,-295.63C162.22,-285.53 111.71,-268.67 68.9,-252 66.83,-251.19 64.71,-250.34 62.57,-249.47"
         id="path113" />
      <polygon
         fill="black"
         stroke="black"
         points="63.86,-246.21 53.28,-245.55 61.14,-252.66 63.86,-246.21"
         id="polygon115" />
    </g>
    <!-- xcnst&#45;&gt;restst -->
    <g
       id="edge9"
       class="edge">
      <title
         id="title118">xcnst-&gt;restst</title>
      <path
         fill="none"
         stroke="black"
         d="M248.67,-293.28C273.98,-281.78 312.81,-264.13 341.1,-251.27"
         id="path120" />
      <polygon
         fill="black"
         stroke="black"
         points="342.61,-254.43 350.26,-247.11 339.71,-248.06 342.61,-254.43"
         id="polygon122" />
    </g>
    <!-- xcnst&#45;&gt;f3qcm -->
    <g
       id="edge10"
       class="edge">
      <title
         id="title125">xcnst-&gt;f3qcm</title>
      <path
         fill="none"
         stroke="black"
         d="M249.82,-294.16C255.73,-291.97 261.98,-289.79 267.9,-288 336,-267.38 355.52,-271.69 423.9,-252 427.01,-251.1 430.22,-250.12 433.43,-249.1"
         id="path127" />
      <polygon
         fill="black"
         stroke="black"
         points="434.6,-252.4 443,-245.94 432.41,-245.75 434.6,-252.4"
         id="polygon129" />
    </g>
    <!-- f4qcm -->
    <g
       id="node9"
       class="node">
      <title
         id="title132">f4qcm</title>
      <ellipse
         fill="none"
         stroke="black"
         cx="117.9"
         cy="-234"
         rx="39.79"
         ry="18"
         id="ellipse134" />
      <text
         text-anchor="middle"
         x="117.9"
         y="-230.3"
         font-family="Times,serif"
         font-size="14.00"
         id="text136">f4qcm</text>
    </g>
    <!-- xcnst&#45;&gt;f4qcm -->
    <g
       id="edge11"
       class="edge">
      <title
         id="title139">xcnst-&gt;f4qcm</title>
      <path
         fill="none"
         stroke="black"
         d="M202.15,-291.17C186.68,-280.86 165.31,-266.61 147.97,-255.05"
         id="path141" />
      <polygon
         fill="black"
         stroke="black"
         points="149.58,-251.92 139.32,-249.28 145.7,-257.74 149.58,-251.92"
         id="polygon143" />
    </g>
    <!-- zmat -->
    <g
       id="node10"
       class="node">
      <title
         id="title146">zmat</title>
      <ellipse
         fill="none"
         stroke="black"
         cx="208.9"
         cy="-234"
         rx="33.6"
         ry="18"
         id="ellipse148" />
      <text
         text-anchor="middle"
         x="208.9"
         y="-230.3"
         font-family="Times,serif"
         font-size="14.00"
         id="text150">zmat</text>
    </g>
    <!-- xcnst&#45;&gt;zmat -->
    <g
       id="edge12"
       class="edge">
      <title
         id="title153">xcnst-&gt;zmat</title>
      <path
         fill="none"
         stroke="black"
         d="M219.51,-288.05C217.97,-280.35 216.1,-271.03 214.37,-262.36"
         id="path155" />
      <polygon
         fill="black"
         stroke="black"
         points="217.75,-261.39 212.35,-252.28 210.88,-262.77 217.75,-261.39"
         id="polygon157" />
    </g>
    <!-- wila -->
    <g
       id="node11"
       class="node">
      <title
         id="title160">wila</title>
      <ellipse
         fill="none"
         stroke="black"
         cx="290.9"
         cy="-234"
         rx="29.8"
         ry="18"
         id="ellipse162" />
      <text
         text-anchor="middle"
         x="290.9"
         y="-230.3"
         font-family="Times,serif"
         font-size="14.00"
         id="text164">wila</text>
    </g>
    <!-- xcnst&#45;&gt;wila -->
    <g
       id="edge13"
       class="edge">
      <title
         id="title167">xcnst-&gt;wila</title>
      <path
         fill="none"
         stroke="black"
         d="M237.99,-289.46C247.18,-280 259.08,-267.75 269.27,-257.27"
         id="path169" />
      <polygon
         fill="black"
         stroke="black"
         points="271.86,-259.62 276.31,-250.01 266.84,-254.75 271.86,-259.62"
         id="polygon171" />
    </g>
    <!-- lxm -->
    <g
       id="node12"
       class="node">
      <title
         id="title174">lxm</title>
      <ellipse
         fill="none"
         stroke="black"
         cx="290.9"
         cy="-162"
         rx="27.9"
         ry="18"
         id="ellipse176" />
      <text
         text-anchor="middle"
         x="290.9"
         y="-158.3"
         font-family="Times,serif"
         font-size="14.00"
         id="text178">lxm</text>
    </g>
    <!-- wila&#45;&gt;lxm -->
    <g
       id="edge14"
       class="edge">
      <title
         id="title181">wila-&gt;lxm</title>
      <path
         fill="none"
         stroke="black"
         d="M290.9,-215.7C290.9,-207.98 290.9,-198.71 290.9,-190.11"
         id="path183" />
      <polygon
         fill="black"
         stroke="black"
         points="294.4,-190.1 290.9,-180.1 287.4,-190.1 294.4,-190.1"
         id="polygon185" />
    </g>
    <!-- fxm -->
    <g
       id="node13"
       class="node">
      <title
         id="title188">fxm</title>
      <ellipse
         fill="none"
         stroke="black"
         cx="290.9"
         cy="-90"
         rx="28.7"
         ry="18"
         id="ellipse190" />
      <text
         text-anchor="middle"
         x="290.9"
         y="-86.3"
         font-family="Times,serif"
         font-size="14.00"
         id="text192">fxm</text>
    </g>
    <!-- lxm&#45;&gt;fxm -->
    <g
       id="edge15"
       class="edge">
      <title
         id="title195">lxm-&gt;fxm</title>
      <path
         fill="none"
         stroke="black"
         d="M290.9,-143.7C290.9,-135.98 290.9,-126.71 290.9,-118.11"
         id="path197" />
      <polygon
         fill="black"
         stroke="black"
         points="294.4,-118.1 290.9,-108.1 287.4,-118.1 294.4,-118.1"
         id="polygon199" />
    </g>
    <!-- fc2 -->
    <g
       id="node14"
       class="node">
      <title
         id="title202">fc2</title>
      <ellipse
         fill="none"
         stroke="black"
         cx="290.9"
         cy="-18"
         rx="27"
         ry="18"
         id="ellipse204" />
      <text
         text-anchor="middle"
         x="290.9"
         y="-14.3"
         font-family="Times,serif"
         font-size="14.00"
         id="text206">fc2</text>
    </g>
    <!-- fxm&#45;&gt;fc2 -->
    <g
       id="edge16"
       class="edge">
      <title
         id="title209">fxm-&gt;fc2</title>
      <path
         fill="none"
         stroke="black"
         d="M290.9,-71.7C290.9,-63.98 290.9,-54.71 290.9,-46.11"
         id="path211" />
      <polygon
         fill="black"
         stroke="black"
         points="294.4,-46.1 290.9,-36.1 287.4,-46.1 294.4,-46.1"
         id="polygon213" />
    </g>
  </g>
  <path
     style="fill:#ff0000;stroke:#000000;stroke-width:0.75"
     id="path1385"
     d="m 345.73049,2.8176621 c -1.9449,0.1039794 -3.92484,-0.3714289 -5.86566,-0.1284285 -0.53417,0.06688 -1.05546,0.2126209 -1.5832,0.3189315 -0.59645,0.2080315 -1.20506,0.3840532 -1.78937,0.6240946 -0.65017,0.2670988 -1.29762,0.5488244 -1.90919,0.8953179 -3.56615,2.0204811 -7.08805,3.5450914 -9.95088,6.3606474 -1.65145,1.62419 -1.97294,2.266904 -3.33074,4.184731 -1.61869,2.592624 -3.00262,5.379186 -3.82298,8.336991 -0.26303,0.94833 -0.53294,1.910475 -0.58923,2.892995 -0.14328,2.500729 0.44778,3.901402 1.09342,6.273693 1.03937,2.201407 1.55035,3.717324 3.2243,5.54498 2.62659,2.867751 6.32909,4.858595 9.87035,6.323986 1.36003,0.562789 2.77213,0.990443 4.15819,1.485664 7.54671,2.163604 15.43739,3.034215 23.27997,2.797551 1.35986,-0.04103 2.71564,-0.169993 4.07346,-0.25499 7.38173,-0.813673 11.07299,-1.906251 17.30379,-7.284072 1.47544,-1.273454 1.76861,-5.408976 2.00452,-6.870536 -0.0998,-1.628958 -0.0635,-3.271985 -0.29931,-4.886872 -0.46443,-3.180872 -1.7344,-7.465403 -2.86186,-10.471843 -1.04527,-2.787247 -2.4634,-5.934562 -4.24547,-8.363546 -0.80839,-1.1018515 -1.83233,-2.0280235 -2.74849,-3.0420355 -2.87799,-2.4447834 -6.01197,-4.1118586 -9.77511,-4.6677163 -4.00253,-0.5912172 -7.89791,0.069396 -11.83409,0.7246839 -4.55867,1.0310694 -2.39295,0.4952874 -6.50269,1.5847772 0,0 -5.65132,4.3432374 -5.65132,4.3432374 v 0 c 4.17799,-1.1986124 1.98361,-0.6119459 6.58917,-1.7372707 3.85417,-0.6935758 7.66976,-1.3846035 11.6066,-0.9007815 3.66246,0.4501012 6.75901,1.961019 9.60887,4.2717025 0.90997,0.964777 1.9245,1.840692 2.72992,2.894331 3.62031,4.73606 6.32909,12.632639 7.00273,18.495003 0.18301,1.592599 0.0679,3.205441 0.10177,4.808162 -0.28278,1.280059 -0.39807,2.609017 -0.84836,3.840176 -0.35444,0.969095 -2.51641,2.356461 -1.53863,2.686178 1.4288,0.481805 2.79376,-1.141768 4.14714,-1.806567 0.80764,-0.39672 -1.64744,0.734871 -2.50702,1.000918 -2.34475,0.725721 -4.23532,0.893923 -6.679,1.249854 -1.36597,0.109281 -2.72899,0.265675 -4.09793,0.327842 -7.78571,0.353576 -15.62611,-0.490746 -23.12724,-2.610272 -1.36311,-0.482343 -2.75184,-0.897625 -4.08933,-1.447029 -3.43796,-1.412218 -6.99445,-3.324948 -9.54033,-6.105958 -1.67334,-1.827889 -2.06998,-3.114119 -3.10393,-5.320696 -0.61764,-2.409723 -1.11136,-3.481326 -0.90373,-5.997238 0.0784,-0.950618 0.3429,-1.880105 0.61027,-2.795713 0.85245,-2.919123 2.27218,-5.642043 3.94632,-8.16569 1.42152,-1.872787 1.74624,-2.4859813 3.45927,-4.0466712 0.58536,-0.533307 2.60201,-1.7511723 1.85778,-1.4806288 -1.54293,0.5608879 -2.89671,1.547516 -4.31523,2.3739665 -0.59269,0.345312 1.21084,-0.6471075 1.83597,-0.9295065 0.55355,-0.2500687 1.13075,-0.444081 1.69613,-0.6661214 0.48464,-0.1325365 0.9591,-0.3104709 1.45392,-0.3976095 1.88552,-0.332042 3.84278,0.1507879 5.73291,0.1398289 0,0 6.12355,-4.4024509 6.12355,-4.4024509 z" />
  <path
     style="fill:#ff0000;stroke:#000000;stroke-width:0.75"
     id="path1387"
     d="m 348.36149,73.229135 c -2.31812,0.04018 -4.62054,0.266305 -6.8984,0.690688 -2.25397,0.474854 -4.47739,1.10512 -6.60166,1.99909 -4.27737,2.048895 -8.24073,4.653412 -12.11421,7.367287 -1.60627,1.159238 -3.24932,2.254118 -4.96275,3.246698 -1.76594,1.058212 -3.42357,2.287567 -4.83153,3.790905 -1.31161,1.680172 -2.40743,3.614572 -2.63746,5.773364 -0.0496,0.46605 -0.0232,0.937095 -0.0347,1.40565 0.21863,3.563783 2.28652,6.478743 4.38699,9.220683 1.57718,2.09703 3.52095,3.72891 5.83655,4.93012 4.07479,1.83203 8.51136,2.33819 12.90999,2.75129 5.81477,0.46238 11.65238,0.3528 17.47548,0.15146 4.47675,-0.10912 8.91793,-0.69683 13.29162,-1.63374 3.36223,-0.75088 6.48348,-2.20867 9.48318,-3.86312 2.83789,-2.68098 7.26618,-3.53691 10.1311,-6.32132 0.55627,-0.54064 0.65899,-0.74249 1.09826,-1.36057 0.93558,-1.577035 1.00847,-2.691018 0.54083,-4.433598 -1.07248,-2.71077 -2.6922,-5.165977 -4.23307,-7.627717 -1.28373,-2.08101 -2.64877,-4.108725 -4.0129,-6.137197 -1.19932,-1.936223 -2.70507,-3.627788 -4.34564,-5.19552 -3.12469,-2.83353 -7.00911,-4.439866 -10.95811,-5.746563 -3.0745,-0.888034 -6.22301,-1.585906 -9.41838,-1.851608 -2.04236,-0.169827 -2.79308,-0.114151 -4.83865,-0.09265 -3.24395,0.127264 -6.46651,0.575693 -9.65473,1.172038 -0.20572,0.04216 -0.41145,0.08432 -0.61718,0.126481 0,0 -5.98194,4.555462 -5.98194,4.555462 v 0 c 0.21318,-0.05385 0.42636,-0.107648 0.63954,-0.161475 3.20896,-0.739688 6.48125,-1.232058 9.76887,-1.429701 1.99052,-0.04978 2.78582,-0.117456 4.77326,0.02318 3.16805,0.224186 6.30206,0.864866 9.35582,1.715981 3.84146,1.24242 7.61518,2.790157 10.62418,5.57247 1.59675,1.53468 3.0319,3.214222 4.22645,5.084954 1.37827,2.010758 2.74798,4.02702 4.07725,6.0708 1.51548,2.381783 3.07596,4.797068 4.00332,7.479663 0.31994,1.50403 0.0895,2.57732 -0.83305,3.82879 -0.49037,0.57832 -0.54707,0.6905 -1.13981,1.19649 -2.0223,1.72632 -7.68573,4.6522 2.53526,-1.10837 -2.9645,1.71578 -6.05457,3.24497 -9.39811,4.07178 -4.38083,1.01706 -8.83833,1.67563 -13.33855,1.83231 -5.79744,0.24737 -11.61156,0.3464 -17.40358,-0.0873 -4.27782,-0.393 -8.59749,-0.86381 -12.55679,-2.65734 -2.23985,-1.12356 -4.17002,-2.63154 -5.73123,-4.61429 -2.04049,-2.58852 -4.00143,-5.37 -4.0824,-8.791823 0.0318,-0.432165 0.0274,-0.868552 0.0955,-1.296495 0.32761,-2.056822 1.47537,-3.875707 2.83863,-5.40111 1.49652,-1.403625 3.15129,-2.614747 4.93725,-3.629354 1.68469,-1.008788 3.28131,-2.148825 4.88481,-3.280905 0.30309,-0.214088 1.75034,-1.23792 2.05572,-1.44756 0.31773,-0.21813 1.29867,-0.828518 0.96057,-0.643523 -10.18786,5.57433 -5.903,3.377438 -3.66753,2.0961 2.07927,-1.004362 4.29991,-1.67265 6.55087,-2.174062 2.20694,-0.469545 4.45154,-0.743243 6.71165,-0.735375 0,0 6.09945,-4.431503 6.09945,-4.431503 z" />
  <path
     style="fill:#ff0000;stroke:#000000;stroke-width:0.75"
     id="path1389"
     d="m 458.55861,173.09651 c 5.91739,-5.02259 12.02473,-9.81678 17.93898,-14.84641 3.53498,-3.00221 6.87059,-6.2254 10.33503,-9.30613 0,0 -6.80837,2.78115 -6.80837,2.78115 v 0 c -3.29758,3.05009 -6.50349,6.20025 -9.92451,9.1153 -6.05412,5.16259 -12.32245,10.05481 -18.47146,15.0995 0,0 6.93033,-2.84341 6.93033,-2.84341 z" />
  <path
     style="fill:#ff0000;stroke:#000000;stroke-width:0.75"
     id="path1391"
     d="m 451.69297,146.48969 c 0.2274,0.3693 0.43663,0.75043 0.68222,1.10791 1.91862,2.7927 4.24079,5.30457 6.52988,7.79007 2.65094,2.87841 4.02293,4.25906 6.74805,7.07215 1.0103,1.0381 2.0206,2.0762 3.0309,3.11429 0,0 5.90231,-3.61407 5.90231,-3.61407 v 0 c -1.03371,-1.02039 -2.06742,-2.04077 -3.10113,-3.06114 -4.42323,-4.57155 -9.4476,-9.47643 -12.68069,-15.0019 -0.20866,-0.3566 -0.37176,-0.73798 -0.55763,-1.10696 0,0 -6.55391,3.69965 -6.55391,3.69965 z" />
  <path
     style="fill:#ff0000;stroke:#000000;stroke-width:0.75"
     id="path1393"
     d="m 466.47469,160.76321 c 4.08552,3.62362 8.01125,7.41934 11.91489,11.23619 0,0 5.85625,-3.60055 5.85625,-3.60055 v 0 c -3.89227,-3.75382 -7.83741,-7.47157 -11.39162,-11.55453 0,0 -6.37952,3.91889 -6.37952,3.91889 z" />
  <path
     style="fill:#ff0000;stroke:#000000;stroke-width:0.75"
     id="path1395"
     d="m 195.05143,180.71121 c 10.0671,-5.26458 20.19562,-10.41024 30.28939,-15.62319 5.60376,-2.89082 11.09642,-5.98784 16.59002,-9.08052 1.66247,-0.94859 3.3281,-1.89021 5.0246,-2.77666 0,0 5.81986,-4.67318 5.81986,-4.67318 v 0 c -1.72606,0.90539 -3.44275,1.8252 -5.1196,2.82054 -5.65859,3.24248 -11.3045,6.51095 -17.09258,9.51993 -9.86482,5.13322 -19.74327,10.24673 -29.72361,15.15182 0,0 -5.78808,4.66126 -5.78808,4.66126 z" />
  <path
     style="fill:#ff0000;stroke:#000000;stroke-width:0.75"
     id="path1397"
     d="m 201.76847,141.72905 c 9.84366,9.69679 19.29409,19.77292 28.5319,30.04512 4.50739,5.17292 2.4026,2.72591 6.32485,7.33201 0,0 5.9354,-3.59064 5.9354,-3.59064 v 0 c -4.16309,-4.46264 -1.94388,-2.08192 -6.65685,-7.14288 -5.08272,-5.40855 -10.17997,-10.80341 -15.23772,-16.23539 -3.56583,-3.82967 -6.46604,-6.90503 -9.85269,-10.82941 -0.94574,-1.0959 -1.83953,-2.23557 -2.7593,-3.35335 0,0 -6.28559,3.77454 -6.28559,3.77454 z" />
  <path
     style="fill:#ff0000;stroke:#000000;stroke-width:0.75"
     id="path1399"
     d="m 348.36095,153.79241 c -3.61596,2.12661 -7.48283,3.92825 -10.72025,6.6314 -1.11151,0.99824 -1.5124,1.87796 -1.3501,3.35954 0.38934,1.8823 1.60284,3.36452 2.9378,4.67931 1.13534,1.00933 2.3172,1.9429 3.8415,2.19484 0.24767,-0.0194 0.49892,-0.0121 0.74302,-0.0583 0.3791,-0.0717 1.14519,-0.34245 1.48837,-0.53448 2.09844,-1.17412 5.59749,-2.72361 7.85513,-4.67141 0.83677,-0.94005 0.8167,-2.16652 0.65316,-3.33976 -0.31526,-1.58618 -0.96819,-3.06757 -1.76094,-4.46731 -0.62059,-1.11695 -1.45356,-2.00987 -2.55108,-2.65562 -0.6681,-0.33881 -1.36895,-0.60923 -2.1147,-0.69925 -0.3561,-0.05 -0.71397,-0.0846 -1.07214,-0.11543 0,0 -6.16398,4.41897 -6.16398,4.41897 v 0 c 0.35022,0.0142 0.70082,0.0301 1.04898,0.0727 0.68254,0.0918 1.36677,0.11258 1.99593,0.45033 1.04498,0.48695 1.77589,1.28614 2.36054,2.27633 0.75571,1.30103 1.36129,2.70331 1.59967,4.19812 0.0647,1.0523 -0.0769,2.02209 -1.00569,2.66264 -2.05581,1.42348 -5.50143,3.25336 5.01825,-2.80648 0.53335,-0.30724 -0.61632,0.38209 -1.36017,0.68045 -0.20153,0.0808 -0.41226,0.13649 -0.61839,0.20474 -1.48467,0.081 -2.48814,-0.83855 -3.591,-1.72852 -1.2266,-1.15623 -2.37995,-2.4752 -2.62289,-4.20626 0.0405,-1.25735 0.67832,-1.9406 1.62733,-2.71019 0.67087,-0.51968 1.35331,-1.01087 2.06776,-1.46991 0.27084,-0.17401 1.09956,-0.66975 0.81981,-0.51047 -2.52733,1.43894 -7.87939,4.56056 -5.00172,2.88281 0,0 5.8758,-4.73892 5.8758,-4.73892 z" />
  <path
     style="fill:#ff0000;stroke:#000000;stroke-width:0.75"
     id="path1401"
     d="m 351.21892,150.82771 c 1.17736,4.38409 1.81348,8.8949 2.4487,13.3832 0,0 6.36574,-3.35947 6.36574,-3.35947 v 0 c -0.67014,-4.54154 -1.31225,-9.09025 -2.22592,-13.59102 0,0 -6.58852,3.56729 -6.58852,3.56729 z" />
  <path
     style="fill:#ff0000;stroke:#000000;stroke-width:0.75"
     id="path1403"
     d="m 361.96623,155.72802 c 1.53431,-1.36103 3.09229,-2.6906 4.54725,-4.1374 0.89249,-0.97364 1.78393,-1.94792 2.68547,-2.9132 0,0 -6.84392,2.86535 -6.84392,2.86535 v 0 c -0.89389,0.97213 -1.77983,1.95256 -2.71699,2.88371 -1.50926,1.42982 -3.0818,2.78842 -4.65201,4.15063 0,0 6.9802,-2.84909 6.9802,-2.84909 z" />
  <path
     style="fill:#ff0000;stroke:#000000;stroke-width:0.75"
     id="path1405"
     d="m 357.15165,159.50778 c 3.2949,0.76155 6.49061,1.91229 9.66917,3.05585 1.4613,0.52002 2.83194,1.23704 4.18996,1.97622 0,0 6.19033,-4.04672 6.19033,-4.04672 v 0 c -1.40153,-0.74469 -2.80397,-1.49631 -4.30136,-2.0366 -3.17267,-1.11319 -6.35151,-2.21586 -9.55483,-3.23703 0,0 -6.19327,4.28828 -6.19327,4.28828 z" />
  <path
     style="fill:#ff0000;stroke:#000000;stroke-width:0.75"
     id="path1407"
     d="m 41.495375,217.7138 c -3.20598,4.70385 -6.47118,9.36961 -9.744643,14.02746 -3.468247,4.97232 -7.185842,9.76251 -10.429957,14.88753 -1.3445,2.21514 -2.571434,4.4979 -3.809463,6.77319 0,0 6.598374,-2.95999 6.598374,-2.95999 v 0 c 1.215985,-2.26492 2.434038,-4.53034 3.797101,-6.7118 3.246739,-5.08326 6.893665,-9.88269 10.355155,-14.81917 3.331202,-4.75107 6.63632,-9.51959 10.074253,-14.19445 0,0 -6.84082,2.99723 -6.84082,2.99723 z" />
  <path
     style="fill:#ff0000;stroke:#000000;stroke-width:0.75"
     id="path1409"
     d="m 15.662253,212.94704 c 4.399166,8.71782 9.195127,17.22125 13.983146,25.72913 2.643315,4.77719 5.500776,9.43943 7.872801,14.36056 0.643683,1.38689 1.279368,2.77731 1.904501,4.17263 0,0 6.45089,-3.65 6.45089,-3.65 v 0 c -0.667972,-1.37544 -1.339309,-2.74952 -1.966318,-4.14434 -2.337851,-4.96488 -5.807978,-9.2899 -8.442828,-14.09617 C 30.54536,226.89746 25.797,218.34898 22.12996,209.29301 c 0,0 -6.467707,3.65403 -6.467707,3.65403 z" />
  <path
     style="fill:#ff0000;stroke:#000000;stroke-width:0.75"
     id="path1411"
     d="m 137.60244,219.36968 c -8.588,9.91388 -16.95173,20.02279 -25.29052,30.14715 0,0 5.98915,-2.55213 5.98915,-2.55213 v 0 c 4.76488,-5.90151 9.60361,-11.72451 14.53562,-17.48748 3.11705,-3.64222 5.4744,-6.4507 8.67069,-9.91019 0.94864,-1.02676 1.93973,-2.01347 2.9096,-3.02021 0,0 -6.81454,2.82286 -6.81454,2.82286 z" />
  <path
     style="fill:#ff0000;stroke:#000000;stroke-width:0.75"
     id="path1413"
     d="m 95.816746,217.98917 c 10.127824,8.95358 19.842714,18.35646 29.521674,27.78846 0,0 5.03452,-3.09898 5.03452,-3.09898 v 0 c -9.71651,-9.20751 -19.52552,-18.3662 -28.39107,-28.41359 0,0 -6.165124,3.72411 -6.165124,3.72411 z" />
  <path
     style="fill:#ff0000;stroke:#000000;stroke-width:0.75"
     id="path1415"
     d="m 454.8478,215.8663 c 7.17364,7.97797 13.93677,16.30384 20.60862,24.70144 4.23628,5.41884 2.23486,2.81187 6.01591,7.81192 0,0 5.92616,-3.53305 5.92616,-3.53305 v 0 c -3.95916,-4.89815 -1.88293,-2.33321 -6.22977,-7.69393 -6.72507,-8.30836 -13.59854,-16.50809 -19.96735,-25.0956 0,0 -6.35357,3.80922 -6.35357,3.80922 z" />
  <path
     style="fill:#ff0000;stroke:#000000;stroke-width:0.75"
     id="path1417"
     d="m 459.07192,258.79607 c 1.85892,-6.0558 5.21486,-11.48217 9.14172,-16.40974 1.35035,-1.69446 2.81168,-3.29743 4.21751,-4.94614 5.90844,-6.40982 2.98297,-3.29519 8.76965,-9.35022 0,0 -6.12464,2.55588 -6.12464,2.55588 v 0 c -5.69263,6.04742 -2.794,2.93107 -8.69018,9.35438 -1.4322,1.67652 -2.91894,3.30793 -4.2966,5.02954 -4.11146,5.13796 -7.48812,10.76962 -9.84669,16.91995 0,0 6.82923,-3.15365 6.82923,-3.15365 z" />
  <path
     style="fill:#ff0000;stroke:#000000;stroke-width:0.75"
     id="path1419"
     d="m 194.70841,251.93872 c 8.12069,-5.38697 16.25865,-10.74953 24.36812,-16.15409 5.9269,-3.87621 11.65573,-8.03516 17.35368,-12.23598 0,0 -6.80892,2.70616 -6.80892,2.70616 v 0 c -5.45428,4.12763 -10.98622,8.15153 -16.68772,11.93377 -8.35872,5.58724 -16.76571,11.10356 -25.23878,16.51534 0,0 7.01362,-2.7652 7.01362,-2.7652 z" />
  <path
     style="fill:#ff0000;stroke:#000000;stroke-width:0.75"
     id="path1421"
     d="m 195.46594,222.98559 c 5.48342,5.19211 10.49746,10.84807 15.38511,16.59551 3.72941,4.4274 7.17472,9.07992 10.53353,13.79076 0,0 6.09621,-3.61284 6.09621,-3.61284 v 0 c -3.5429,-4.60791 -7.11856,-9.19204 -10.83846,-13.6593 -4.81441,-5.76646 -9.71116,-11.4556 -14.76913,-17.01024 0,0 -6.40726,3.89611 -6.40726,3.89611 z" />
  <path
     style="fill:#ff0000;stroke:#000000;stroke-width:0.75"
     id="path1423"
     d="m 286.14029,246.14008 c 4.90757,-5.15986 10.18302,-9.95519 15.27647,-14.92963 4.08431,-4.02737 8.11747,-8.10618 12.28834,-12.04452 0,0 -6.72466,2.77094 -6.72466,2.77094 v 0 c -3.99613,3.9349 -7.90564,7.95618 -11.9031,11.88979 -5.25049,5.10333 -10.67662,10.02273 -15.85335,15.20126 0,0 6.9163,-2.88784 6.9163,-2.88784 z" />
  <path
     style="fill:#ff0000;stroke:#000000;stroke-width:0.75"
     id="path1425"
     d="m 278.39537,217.79714 c 6.48484,7.14536 12.57275,14.6374 18.74242,22.05315 3.14193,3.70308 6.08351,7.56921 9.15758,11.32714 0.55802,0.65432 1.15502,1.27278 1.75821,1.88494 0,0 6.39758,-3.93296 6.39758,-3.93296 v 0 c -0.61813,-0.57478 -1.22072,-1.16506 -1.78652,-1.7923 -3.29811,-3.60255 -6.40767,-7.37814 -9.68365,-11.00107 -6.27292,-7.28905 -12.41636,-14.69566 -18.25674,-22.33735 0,0 -6.32888,3.79845 -6.32888,3.79845 z" />
  <path
     style="fill:#ff0000;stroke:#000000;stroke-width:0.75"
     id="path1427"
     d="m 383.6351,217.12116 c -2.00958,-0.41184 -4.03431,-0.57099 -6.08166,-0.51391 -2.40282,0.13512 -4.76085,0.64414 -7.09196,1.21427 -2.48587,0.59107 -4.90897,1.40713 -7.28218,2.34799 -2.06262,0.79159 -4.04683,1.7624 -6.01356,2.76413 -3.58809,1.73615 -7.15533,3.53562 -10.0233,6.29209 -1.21594,1.31535 -2.15382,2.84419 -3.03737,4.39293 -0.9274,1.65258 -1.48255,3.18765 -1.42896,5.09152 0.27989,2.11556 1.54119,3.84149 2.8526,5.45054 1.85933,2.12477 4.19803,3.71169 6.54612,5.23998 2.194,1.46952 4.55355,2.61689 7.02044,3.54056 3.45514,1.17292 7.07005,1.79038 10.66828,2.33691 4.08093,0.61733 8.22114,0.67308 12.33894,0.56599 3.21443,-0.0791 6.38563,-0.63123 9.53008,-1.26111 2.53276,-0.48483 4.97513,-1.29177 7.35103,-2.28039 3.68307,-1.78002 7.55648,-3.49908 10.63887,-6.21896 0.74284,-0.65548 1.21524,-1.2482 1.86211,-1.99225 1.84388,-2.13075 2.645,-4.68039 2.97874,-7.42614 0.0783,-2.22722 -0.0513,-4.62791 -1.18581,-6.61871 -0.29362,-0.51524 -0.67238,-0.97705 -1.00857,-1.46557 -2.4133,-3.23949 -5.47967,-5.85732 -8.68871,-8.26989 -3.33524,-2.50338 -7.16084,-4.18608 -11.05997,-5.59242 -3.53409,-1.14809 -7.26912,-1.4922 -10.96591,-1.59621 -0.90576,-0.0268 -1.80935,0.0205 -2.71163,0.0907 0,0 -6.02427,4.48323 -6.02427,4.48323 v 0 c 0.90973,-0.13847 1.82304,-0.22889 2.74517,-0.23024 3.6706,-0.0314 7.3781,0.25128 10.90052,1.34799 3.87131,1.31731 7.64845,2.9357 10.94484,5.4023 3.15794,2.33922 6.19804,4.87328 8.52079,8.07952 0.29572,0.45836 0.62901,0.89457 0.88716,1.37509 1.02288,1.90395 1.1523,4.15414 1.011,6.26023 -0.42788,2.70702 -1.29966,4.97287 -3.17172,7.02859 -0.79141,0.83994 -1.01494,1.13694 -1.92504,1.86064 -0.3353,0.26663 -1.42541,0.94607 -1.04704,0.74519 10.23226,-5.43249 5.39769,-3.05393 3.12706,-1.87063 -2.34651,1.04656 -4.7661,1.90422 -7.28891,2.42176 -3.13569,0.6742 -6.30189,1.26192 -9.51322,1.40562 -4.09232,0.16794 -8.20994,0.16067 -12.26953,-0.45295 -3.54493,-0.51417 -7.10046,-1.10566 -10.50043,-2.2676 -2.43309,-0.88915 -4.77452,-1.98056 -6.95578,-3.38997 -2.29579,-1.46557 -4.55731,-3.01518 -6.36807,-5.07749 -1.20942,-1.47505 -2.40488,-3.05657 -2.56382,-5.02615 0.0521,-1.71809 0.71264,-3.24796 1.57323,-4.72219 0.90316,-1.51322 1.88022,-2.99955 3.17322,-4.21369 0.49833,-0.45208 0.99778,-0.87934 1.55907,-1.25344 0.20587,-0.13721 0.84402,-0.51628 0.62877,-0.39434 -6.71844,3.80593 -7.59266,4.23787 -4.94261,2.88104 1.95381,-1.03316 3.92972,-2.03385 5.99312,-2.83236 2.3393,-0.99645 4.7457,-1.84306 7.22051,-2.4371 2.30438,-0.58668 4.62689,-1.138 7.00338,-1.33325 1.98036,-0.12412 3.95883,-0.0419 5.89219,0.44714 0,0 6.18279,-4.32897 6.18279,-4.32897 z" />
  <path
     style="fill:#000000;stroke:#000000;stroke-width:0.75"
     id="path1429"
     d="m 355.36592,255.03671 c -1.55622,5.80646 -3.49561,11.50518 -5.51118,17.1661 -1.43175,3.90747 -3.03369,7.74938 -4.59573,11.60584 -0.42007,1.08336 -0.8777,2.15128 -1.34129,3.21512 -0.57712,1.00813 -1.16275,2.01142 -1.72827,3.02629 -0.21467,0.47033 -1.31011,1.55806 -0.50984,2.02394 0.23984,0.13962 0.54765,0.0903 0.82147,0.13546 4.64582,-2.25165 9.06475,-5.03502 13.51517,-7.62258 0,0 -6.73982,2.59497 -6.73982,2.59497 v 0 c 9.03203,-5.16107 1.23054,-0.64511 -0.82832,0.41147 -0.14255,0.24352 -0.44581,0.72137 -0.18387,0.8263 0.0107,0.005 0.73327,-1.44982 0.79145,-1.4375 0.58303,-1.03652 1.22166,-2.04437 1.74168,-3.11452 0.45126,-1.03443 0.755,-2.13073 1.18509,-3.17407 1.4503,-3.82831 2.96656,-7.6325 4.30752,-11.50131 1.9901,-5.78993 3.88407,-11.61181 5.85842,-17.40699 0,0 -6.78248,3.25148 -6.78248,3.25148 z" />
  <path
     style="fill:#000000;stroke:#000000;stroke-width:0.75"
     id="path1431"
     d="m 347.1914,289.01004 c -1.68912,-4.4749 -3.32309,-8.97055 -4.9706,-13.46093 -0.62148,-1.69166 -1.23263,-3.38534 -1.78261,-5.10144 0,0 -6.58221,3.63249 -6.58221,3.63249 v 0 c 0.61832,1.69036 1.30796,3.34994 1.99902,5.0119 1.7755,4.43265 3.52308,8.89805 4.7433,13.52075 0,0 6.5931,-3.60277 6.5931,-3.60277 z" />
  <path
     style="fill:#000000;stroke:#000000;stroke-width:0.75"
     id="path1433"
     d="m 337.18652,297.08748 c -4.76922,1.25818 -8.85301,4.18837 -13.04383,6.65774 -1.32871,1.01305 -2.63459,2.37419 -2.96469,4.08338 -0.0566,0.29262 -0.0465,0.59423 -0.0698,0.89134 0.35758,2.63975 2.0151,3.80208 4.2703,4.89243 3.0572,0.97734 5.74217,0.8552 8.68717,-0.35004 2.41743,-1.38796 4.83487,-2.77591 7.2523,-4.16386 0,0 -6.96218,2.68256 -6.96218,2.68256 v 0 c 1.84221,-1.04616 3.68443,-2.09231 5.52664,-3.13847 -2.87329,1.45647 -5.1798,1.69267 -8.32607,0.87771 -1.8592,-0.81686 -3.64511,-1.86804 -3.732,-4.11716 0.36123,-1.97183 1.60839,-3.25891 3.23612,-4.35528 -11.17862,6.32432 -2.89112,1.27328 0.13312,0.61781 0,0 5.99292,-4.57816 5.99292,-4.57816 z" />
  <path
     style="fill:#000000;stroke:#000000;stroke-width:0.75"
     id="path1435"
     d="m 346.47012,298.53949 c -5.02241,2.2097 -8.19217,3.64335 -10.42122,8.07933 -0.87364,1.89992 -0.75598,2.97339 0.31992,4.7198 1.07993,1.48113 2.34651,2.03311 4.12469,2.23778 1.02707,-0.01 2.16639,0.0143 3.10308,-0.49995 5.79417,-3.18046 6.48468,-2.81233 9.28185,-6.52598 0.5009,-0.96556 1.09893,-1.98063 1.36524,-3.05083 0.53453,-2.14798 0.23845,-4.3278 -0.26911,-6.43474 -0.46386,-1.90316 -1.89365,-2.74027 -3.73445,-2.87545 -0.64394,-0.0105 -1.23789,0.20457 -1.83446,0.41437 0,0 -5.91853,4.64655 -5.91853,4.64655 v 0 c 0.54483,-0.23519 1.08157,-0.5039 1.66568,-0.62967 1.69649,-0.17067 2.77766,0.20403 3.30081,1.96835 0.85141,3.35326 0.63296,5.94337 -1.36727,8.8618 -0.31598,0.36894 -0.60618,0.76161 -0.94794,1.10681 -0.31881,0.32203 -1.43627,1.08635 -1.02822,0.88929 1.83251,-0.88496 3.56969,-1.95563 5.33448,-2.96891 0.31985,-0.18363 -0.64906,0.35783 -0.99747,0.47878 -0.59374,0.20612 -1.25394,0.21931 -1.8705,0.26789 -1.59201,-0.0454 -2.70885,-0.34634 -3.72245,-1.65732 -0.96397,-1.54616 -0.7927,-2.39068 7.5e-4,-4.00578 0.51739,-0.90951 1.04761,-1.76577 1.81709,-2.49187 0.25755,-0.24303 1.13801,-0.83444 0.82435,-0.67007 -0.74383,0.3898 -8.0661,4.58458 -4.95989,2.80567 0,0 5.93338,-4.66585 5.93338,-4.66585 z" />
  <path
     style="fill:#000000;stroke:#000000;stroke-width:0.75"
     id="path1437"
     d="m 352.84577,298.5733 c 1.00059,3.16763 1.42774,6.48355 1.8052,9.77358 0.2145,2.2416 0.88471,4.39237 1.48709,6.55014 0.94163,3.33874 0.0117,2.41059 6.96312,-2.69828 0.26052,-0.19147 -0.12393,-0.63496 -0.16895,-0.95512 -0.18346,-1.30452 -0.23767,-2.19359 -0.35308,-3.5441 -0.30327,-4.71302 -0.19783,-9.44437 0.25239,-14.1432 0.1808,-1.30782 0.30404,-2.64274 0.66664,-3.91864 0.0641,-0.22553 0.11738,-0.46122 0.23957,-0.66132 0.0862,-0.1412 0.51024,-0.41739 0.36777,-0.3333 -2.00271,1.18218 -3.97108,2.42156 -5.95662,3.63234 0.16857,-0.0605 0.32828,-0.15707 0.50571,-0.18141 1.54611,-0.21205 3.52905,0.8635 4.86188,1.51529 0.31753,0.16837 0.63505,0.33673 0.95257,0.5051 0,0 6.22894,-4.08177 6.22894,-4.08177 v 0 c -0.3262,-0.16867 -0.65241,-0.33734 -0.97861,-0.50602 -1.79724,-0.91101 -3.64584,-1.85683 -5.69511,-1.98149 -2.27679,1.36811 -4.61007,2.64632 -6.83038,4.10432 -0.18361,0.12057 -0.3892,1.13484 -0.41112,1.24659 -0.25367,1.29294 -0.35654,2.61162 -0.48269,3.92069 -0.3293,4.73781 -0.4104,9.49419 -0.1972,14.23978 0.30409,5.55729 -0.0584,-0.93954 0.21601,3.65131 0.0196,0.32747 -0.25932,1.09052 0.0505,0.98288 7.90516,-2.74574 7.34667,-1.15491 6.32638,-4.37217 -0.63587,-2.10307 -1.23052,-4.22412 -1.50937,-6.40948 -0.48981,-3.3281 -0.97137,-6.66402 -1.73865,-9.94193 0,0 -6.60207,3.60621 -6.60207,3.60621 z" />
  <path
     style="fill:#000000;stroke:#000000;stroke-width:0.75"
     id="path1439"
     d="m 325.95769,288.24834 c 6.49378,5.87099 12.92119,11.81018 19.25131,17.85809 3.33015,3.20681 6.63158,6.44523 9.87807,9.73688 0.95976,0.96788 0.5089,0.50481 1.35508,1.38678 0,0 6.38098,-3.90759 6.38098,-3.90759 v 0 c -0.88973,-0.86469 -0.4193,-0.4103 -1.41226,-1.36218 -3.38077,-3.21963 -6.89171,-6.30473 -10.29742,-9.4982 -3.43361,-3.16171 -6.85371,-6.33754 -10.25718,-9.53172 -2.155,-2.02249 -4.52406,-4.22006 -6.59617,-6.34557 -0.68686,-0.70456 -1.33179,-1.44882 -1.99769,-2.17323 0,0 -6.30472,3.83674 -6.30472,3.83674 z" />
  <path
     style="fill:#000000;stroke:#000000;stroke-width:0.75"
     id="path1441"
     d="m 333.24741,318.71941 c 6.48799,-4.49742 12.42394,-9.7234 18.34354,-14.92838 3.881,-3.43051 7.63509,-6.99973 11.3987,-10.55727 0,0 -6.39572,2.63188 -6.39572,2.63188 v 0 c -3.67061,3.54098 -7.34385,7.08169 -11.18636,10.43813 -6.14073,5.3351 -12.31833,10.68568 -19.14426,15.14113 0,0 6.9841,-2.72549 6.9841,-2.72549 z" />
  <path
     style="fill:#000000;stroke:#000000;stroke-width:0.75"
     id="path1443"
     d="m 381.9723,258.51716 c 3.55527,6.10654 5.9389,12.89924 7.60418,19.75078 0.47967,1.97357 0.81612,3.97921 1.22419,5.96883 1.53611,10.97134 0.55746,21.92391 -1.71425,32.70484 -0.94241,3.688 -0.45491,1.95188 -1.43809,5.21519 0,0 6.53667,-3.10835 6.53667,-3.10835 v 0 c 0.8431,-3.24385 0.42649,-1.51917 1.22742,-5.1794 1.89699,-10.79475 2.62266,-21.858 1.23881,-32.76338 -0.4085,-2.00689 -0.7518,-4.02816 -1.2255,-6.02067 -1.65828,-6.97524 -4.0068,-13.81305 -6.94183,-20.35016 0,0 -6.5116,3.78232 -6.5116,3.78232 z" />
  <path
     style="fill:#000000;stroke:#000000;stroke-width:0.75"
     id="path1445"
     d="m 364.38307,332.21811 c 0.85555,6.8213 0.31998,13.74181 -0.24584,20.56791 -0.0739,0.72324 -0.14773,1.44648 -0.22161,2.16972 0,0 6.50811,-3.25132 6.50811,-3.25132 v 0 c 0.04,-0.70996 0.08,-1.41993 0.11996,-2.12989 0.33394,-6.92466 0.72449,-13.87497 0.41007,-20.80464 0,0 -6.57069,3.44822 -6.57069,3.44822 z" />
  <path
     style="fill:#000000;stroke:#000000;stroke-width:0.75"
     id="path1447"
     d="m 385.19954,304.28158 c 2.77381,5.06388 4.56587,10.57409 6.20379,16.08679 0.46772,0.79565 0.73449,4.14821 1.45015,4.76137 0.2367,0.20281 0.64601,0.37366 0.91123,0.20992 7.30101,-4.50769 6.0736,-2.93022 8.37857,-7.4831 1.24843,-2.47627 2.50675,-4.94746 3.75374,-7.42445 0,0 -6.56727,2.97289 -6.56727,2.97289 v 0 c -1.22125,2.48568 -2.45167,4.96711 -3.76725,7.4048 -0.42585,0.74565 -2.13584,2.26323 -1.27755,2.23696 1.9572,-0.0599 3.515,-1.76071 5.37837,-2.36247 0.2548,-0.0823 -0.0626,0.73696 -0.33033,0.73224 -0.29342,-0.005 -0.35674,-0.47436 -0.46703,-0.74631 -0.49242,-1.21421 -0.62026,-2.55759 -1.156,-3.75694 -1.77162,-5.52581 -3.67389,-11.01474 -6.05844,-16.3115 0,0 -6.45198,3.6798 -6.45198,3.6798 z" />
  <path
     style="fill:#000000;stroke:#000000;stroke-width:0.75"
     id="path1449"
     d="m 363.52672,336.92374 c 5.71672,-2.6743 10.49991,-6.60309 15.44179,-10.40858 0,0 -6.73704,2.69113 -6.73704,2.69113 v 0 c -2.00543,1.56073 -4.00002,3.14758 -6.07059,4.6219 -0.65247,0.46458 -2.70341,1.7109 -1.98991,1.34693 1.78197,-0.90902 3.47008,-1.99138 5.20511,-2.98707 0,0 -5.84936,4.73569 -5.84936,4.73569 z" />
  <path
     style="fill:#000000;stroke:#000000;stroke-width:0.75"
     id="path1451"
     d="m 365.86174,338.02501 c 2.64662,-0.1806 5.29661,-0.30624 7.94593,-0.43946 0,0 5.90644,-4.34363 5.90644,-4.34363 v 0 c -2.60415,0.16988 -5.20949,0.33309 -7.81958,0.3753 0,0 -6.03279,4.40779 -6.03279,4.40779 z" />
  <path
     style="fill:#000000;stroke:#000000;stroke-width:0.75"
     id="path1453"
     d="m 384.72141,329.3212 c 0.45339,3.96746 0.62428,7.96101 0.81204,11.9478 0,0 6.33335,-3.26953 6.33335,-3.26953 v 0 c -0.23933,-4.03166 -0.45342,-8.06452 -0.57882,-12.10163 0,0 -6.56657,3.42336 -6.56657,3.42336 z" />
  <path
     style="fill:#000000;stroke:#000000;stroke-width:0.75"
     id="path1455"
     d="m 352.83927,325.90936 c 8.92039,6.6627 18.06559,13.01798 27.11193,19.5081 0,0 5.64415,-3.59744 5.64415,-3.59744 v 0 c -9.10226,-6.16313 -18.29237,-12.34459 -26.34331,-19.86966 0,0 -6.41277,3.959 -6.41277,3.959 z" />
  <path
     style="fill:#000000;stroke:#000000;stroke-width:0.75"
     id="path1457"
     d="m 367.30723,347.264 c 5.16572,-7.11738 10.85773,-13.82819 16.59535,-20.48518 0,0 -6.08398,2.57532 -6.08398,2.57532 v 0 c -5.87984,6.91175 -11.68961,13.88121 -17.4431,20.89842 0,0 6.93173,-2.98856 6.93173,-2.98856 z" />
  <path
     style="fill:#000000;stroke:#000000;stroke-width:0.75"
     id="path1459"
     d="m 401.78128,253.2925 c 5.80854,2.0929 11.13645,5.3645 16.01973,9.11232 1.45044,1.11319 2.82962,2.31627 4.24443,3.4744 6.80102,6.06562 13.12578,12.78757 18.16257,20.41289 0.82515,1.24923 1.5589,2.55648 2.33835,3.83472 1.92521,3.54032 3.40956,7.31065 4.12004,11.29131 0.80448,4.5073 0.73972,9.039 0.6525,13.5921 -0.14835,4.16635 -0.71942,8.29542 -1.47799,12.3886 0,0 6.5417,-3.20263 6.5417,-3.20263 v 0 c 0.55702,-4.08231 0.98451,-8.1847 1.08432,-12.30725 0.0464,-4.59062 0.13262,-9.24253 -0.66116,-13.78818 -0.70777,-4.05313 -2.30632,-7.86586 -4.2996,-11.44003 -0.8074,-1.27984 -1.57073,-2.58858 -2.4222,-3.83954 -5.17234,-7.59911 -11.55647,-14.33621 -18.32835,-20.51528 -1.40766,-1.17901 -2.78257,-2.39827 -4.22298,-3.53704 -4.79469,-3.79066 -9.96957,-7.14018 -15.55071,-9.65089 0,0 -6.20065,4.1745 -6.20065,4.1745 z" />
  <path
     style="fill:#000000;stroke:#000000;stroke-width:0.75"
     id="path1461"
     d="m 431.25848,314.79469 c 4.17807,2.63757 7.41992,6.50903 10.75908,10.09381 1.78197,1.79029 3.68915,3.10421 6.29883,3.18845 2.77895,0.0897 5.24017,-1.034 7.71043,-2.12353 4.65502,-2.73087 7.31164,-3.68 10.68569,-6.78922 2.24018,-2.06433 4.10969,-4.51504 5.89988,-6.966 0.59766,-0.86969 1.13382,-1.77667 1.6421,-2.70028 0,0 -6.84364,3.06408 -6.84364,3.06408 v 0 c -0.48058,0.87462 -0.98112,1.73798 -1.5505,2.55905 -1.72845,2.40488 -3.55874,4.75933 -5.80279,6.71489 -0.70083,0.61073 -3.10925,1.91096 -2.20109,1.71248 1.40457,-0.30699 2.52641,-1.37311 3.78961,-2.05967 -2.89236,1.38413 -6.26744,3.08741 -9.59236,2.19553 -1.79419,-0.48128 -2.52342,-1.35461 -3.9348,-2.51218 -3.44645,-3.57499 -6.66651,-7.41819 -10.55491,-10.53001 0,0 -6.30553,4.1526 -6.30553,4.1526 z" />
  <path
     style="fill:#000000;stroke:#000000;stroke-width:0.75"
     id="path1463"
     d="m 415.22304,357.92374 c 0.58795,4.88003 0.0652,9.82523 -0.38337,14.69795 -0.48116,0.93234 0.0855,2.19208 -0.35892,3.15141 -0.0781,0.16867 -0.6632,0.32325 -0.51749,0.20783 1.89121,-1.498 4.50498,-2.31479 5.77061,-4.36879 0.51697,-0.839 -1.07585,-1.65667 -1.5139,-2.53945 -0.67867,-1.36769 -1.21993,-2.79938 -1.82989,-4.19906 -1.64331,-5.01228 -2.48748,-10.23416 -2.51458,-15.508 -0.009,-1.73482 0.1198,-4.96838 0.84663,-6.73646 0.26835,-0.6528 0.82612,-1.14463 1.23919,-1.71695 0.48795,-0.29035 1.93938,-1.1814 1.46387,-0.87108 -7.84445,5.11925 -6.4745,3.12619 -3.87891,3.0198 1.12629,-0.0462 2.15499,0.33672 3.19751,0.69859 1.22394,0.56608 2.57343,0.9911 3.64742,1.83289 0.52164,0.4431 1.00239,0.92679 1.55666,1.33008 0,0 6.37271,-4.08747 6.37271,-4.08747 v 0 c -0.57576,-0.33079 -1.02994,-0.80292 -1.52032,-1.24491 -1.09761,-0.98026 -2.59405,-1.34511 -3.89161,-1.98651 -1.09667,-0.42355 -2.19625,-0.8928 -3.38855,-0.96165 -3.9282,-0.22678 -7.36023,2.72615 -10.21821,5.20932 -0.33698,0.6344 -0.80072,1.2163 -1.01094,1.90319 -0.56688,1.85227 -0.56708,4.97264 -0.49833,6.76048 0.20477,5.32529 1.12755,10.59461 2.59581,15.71311 0.54788,1.4637 1.043,2.94824 1.64363,4.3911 0.40145,0.96438 0.31636,2.77109 1.35965,2.82349 8.06788,0.40523 7.66107,-1.48841 7.93125,-6.05999 0.33143,-4.98797 0.77094,-9.98966 0.55576,-14.99195 0,0 -6.65568,3.53303 -6.65568,3.53303 z" />
  <path
     style="fill:#000000;stroke:#000000;stroke-width:0.75"
     id="path1465"
     d="m 398.02687,363.20814 c 5.80386,0.40943 11.60256,0.88191 17.4009,1.36307 3.72159,0.31886 7.44623,0.59745 11.17377,0.83618 0,0 5.97446,-4.28901 5.97446,-4.28901 v 0 c -3.80117,-0.18972 -7.60291,-0.37828 -11.39902,-0.65421 -5.67865,-0.4413 -11.36209,-0.90268 -17.01487,-1.60392 0,0 -6.13524,4.34789 -6.13524,4.34789 z" />
  <path
     style="fill:#000000;stroke:#000000;stroke-width:0.75"
     id="path1467"
     d="m 435.08431,343.7371 c 2.69588,0.48158 5.3904,1.01001 8.04772,1.67622 0.75054,0.18817 3.51226,0.77985 4.23062,1.61398 0.27283,0.31679 0.11918,0.82761 0.17877,1.24142 -0.3549,0.62938 -0.65747,1.29129 -1.06468,1.88816 -1.07381,1.57393 -3.02756,3.81085 -4.25979,5.19711 -2.04313,2.29853 -4.16825,4.52767 -6.26669,6.77557 -0.38047,0.54039 -2.86149,2.74335 -2.863,3.51648 -0.004,1.83588 2.91356,2.32134 4.06851,2.68083 3.99485,1.06965 8.09712,1.60149 12.19387,2.0942 0,0 5.91847,-4.20114 5.91847,-4.20114 v 0 c -4.06964,-0.41182 -8.13852,-0.93101 -12.09829,-1.99378 -0.12129,-0.0369 -3.45335,-0.77525 -3.25965,-1.60264 0.21024,-0.89808 2.25951,-2.54577 2.69255,-3.28206 2.03214,-2.24316 4.10089,-4.45746 6.09922,-6.73075 1.04478,-1.18853 3.53096,-4.01949 4.36517,-5.45269 0.4331,-0.74409 0.64209,-1.59772 0.96313,-2.39658 -0.18587,-0.57677 -0.1548,-1.27759 -0.55761,-1.73032 -0.7884,-0.88608 -3.59079,-1.4636 -4.47195,-1.68276 -2.58997,-0.64419 -5.20879,-1.17659 -7.78642,-1.87308 0,0 -6.12995,4.26183 -6.12995,4.26183 z" />
  <path
     style="fill:#ff0000;stroke:#000000;stroke-width:0.75"
     id="path1469"
     d="m 443.72299,330.20731 c -0.59168,-0.16303 -1.17021,-0.3849 -1.77504,-0.4891 -6.73338,-1.16002 -14.04443,-0.60593 -20.78538,0.18772 -5.19158,0.84124 -10.45982,2.07573 -15.08334,4.69035 -2.87226,1.62426 -5.68722,3.34785 -8.53083,5.02177 -0.74522,0.62958 -1.58327,1.16339 -2.23563,1.88873 -3.28132,3.6484 -4.98463,9.62346 -5.66107,14.38539 -0.16697,1.1754 -0.19033,2.36677 -0.28549,3.55016 -0.0121,5.45193 1.35732,9.58597 4.42091,14.07142 0.61903,0.90635 1.31323,1.759 1.96984,2.63849 2.91033,3.60068 6.65591,6.34518 11.05184,7.85796 3.04971,1.0495 4.53279,1.11393 7.74363,1.59279 8.76285,0.80241 17.58645,0.32927 26.32509,-0.52608 7.98409,-1.05193 13.2433,-2.89125 20.01958,-8.00881 1.66568,-1.25795 3.12248,-5.13506 3.89138,-6.84028 0.97024,-3.4323 1.63718,-4.75057 1.44963,-8.42474 -0.29202,-5.72048 -2.98585,-11.01667 -6.61863,-15.34084 -1.51546,-1.8039 -3.34605,-3.31764 -5.01908,-4.97646 -4.4154,-3.89888 -9.52882,-6.7191 -14.69858,-9.44548 0,0 -5.71699,3.75883 -5.71699,3.75883 v 0 c 1.46064,0.70353 2.95323,1.34424 4.38191,2.11059 5.42982,2.91255 5.3561,3.16155 10.49664,6.96965 1.62679,1.63672 3.42078,3.12272 4.88038,4.91014 3.47363,4.25379 5.95067,9.54574 6.10349,15.10398 0.0981,3.5688 -0.59079,4.90141 -1.59741,8.21928 -0.59884,1.21155 -1.07028,2.49491 -1.79652,3.63467 -0.66955,1.05078 -3.13185,1.91377 -2.36425,2.8952 0.76321,0.97581 3.15516,-0.45018 3.31582,-1.67855 0.15213,-1.16312 -2.1526,0.94188 -3.26726,1.30732 -3.11258,1.02047 -4.64483,1.14265 -7.90974,1.6871 -8.68592,0.90072 -17.46127,1.37468 -26.17905,0.63066 -3.11934,-0.4454 -4.60275,-0.5085 -7.57104,-1.49424 -4.30357,-1.42916 -7.97277,-4.04779 -10.81614,-7.56201 -0.6401,-0.86481 -1.31972,-1.70171 -1.9203,-2.59442 -2.75871,-4.10059 -4.31981,-8.68026 -4.26256,-13.64997 0.0897,-1.14971 0.10629,-2.30748 0.26914,-3.44913 0.71003,-4.97745 2.39383,-10.3371 5.99924,-14.00342 0.6812,-0.69271 1.52346,-1.20608 2.28519,-1.80913 -1.24986,0.68192 -2.53715,1.2993 -3.74958,2.04574 -0.80408,0.49503 1.6662,-0.89092 2.52198,-1.28996 3.98807,-1.85958 8.25021,-3.00671 12.58316,-3.71954 6.65369,-0.88079 13.65183,-1.53618 20.30174,-0.20195 0.54747,0.10985 1.06586,0.33332 1.5988,0.49997 0,0 6.23452,-4.1538 6.23452,-4.1538 z" />
  <path
     style="fill:#ff0000;stroke:#000000;stroke-width:0.75"
     id="path1640"
     d="m 357.52211,349.96712 c 5.34641,-4.94644 10.93837,-9.62104 16.46004,-14.36927 3.97615,-3.40455 2.07942,-1.78146 5.68993,-4.86956 0,0 -6.56648,2.66447 -6.56648,2.66447 v 0 c -3.46865,3.03501 -1.63747,1.43788 -5.4953,4.78939 -5.67234,4.90272 -11.41782,9.72069 -17.06681,14.64986 0,0 6.97862,-2.86489 6.97862,-2.86489 z" />
  <path
     style="fill:#ff0000;stroke:#000000;stroke-width:0.75"
     id="path1642"
     d="m 365.00021,326.90599 c 5.57703,5.01081 10.81253,10.38393 16.12011,15.67494 0.73588,0.74127 1.47176,1.48252 2.20764,2.22378 0,0 6.06171,-3.72614 6.06171,-3.72614 v 0 c -0.76755,-0.72126 -1.5351,-1.44253 -2.30265,-2.16379 -5.36706,-5.13418 -10.66198,-10.36734 -15.61867,-15.90026 0,0 -6.46814,3.89147 -6.46814,3.89147 z" />
  <path
     style="fill:#ff0000;stroke:#000000;stroke-width:0.75"
     id="path1644"
     d="m 325.33182,283.40549 c 0.28001,0.58244 0.51874,1.18658 0.84001,1.74731 2.2158,3.86737 5.12605,7.27932 8.07486,10.59753 2.96196,3.33299 4.13898,4.46799 7.20493,7.60863 4.6564,4.52874 9.14346,9.21416 13.4387,14.08521 0,0 6.0733,-3.67824 6.0733,-3.67824 v 0 c -4.41702,-4.80246 -8.91558,-9.52305 -13.70409,-13.96152 -5.30739,-5.30005 -11.47742,-11.36574 -14.70409,-18.23074 -0.26103,-0.55535 -0.41441,-1.1552 -0.62162,-1.73281 0,0 -6.602,3.56463 -6.602,3.56463 z" />
  <path
     style="fill:#ff0000;stroke:#000000;stroke-width:0.75"
     id="path1646"
     d="m 339.39874,315.0167 c 6.83112,-6.92782 14.25205,-13.24259 21.60799,-19.59952 0,0 -6.14623,2.4958 -6.14623,2.4958 v 0 c -7.48653,6.5498 -15.00698,13.06706 -22.25033,19.88733 0,0 6.78857,-2.78361 6.78857,-2.78361 z" />
  <path
     style="fill:#ff0000;stroke:#000000;stroke-width:0.75"
     id="path1648"
     d="m 396.47823,325.14326 c 7.10749,10.40567 14.88561,20.32844 22.07589,30.67685 1.88363,2.71097 3.70732,5.46312 5.56097,8.19468 5.5716,8.30043 10.56519,16.95861 15.34172,25.73294 0,0 5.82285,-3.35805 5.82285,-3.35805 v 0 c -5.13688,-8.59026 -10.33848,-17.14585 -15.96967,-25.42493 -6.78108,-9.97729 -4.34006,-6.46256 -11.27681,-16.36052 -4.56426,-6.51267 -9.28013,-12.95364 -13.31555,-19.81784 -0.63794,-1.08513 -1.18822,-2.21946 -1.78234,-3.32919 0,0 -6.45706,3.68606 -6.45706,3.68606 z" />
  <path
     style="fill:#ff0000;stroke:#000000;stroke-width:0.75"
     id="path1650"
     d="m 405.90244,380.51532 c 0.40095,-0.46672 0.77738,-0.95569 1.20288,-1.40016 1.89075,-1.97507 3.37201,-3.21939 5.57793,-5.00663 4.19271,-3.39693 7.6237,-5.87175 12.01204,-9.26724 2.93111,-2.26796 5.83537,-4.5704 8.75306,-6.8556 8.83404,-7.08845 17.29552,-14.61954 25.78776,-22.10812 0,0 -5.54849,2.25994 -5.54849,2.25994 v 0 c -8.39002,7.50888 -16.76842,15.0421 -25.62841,22.00161 -3.02148,2.32338 -6.02566,4.66942 -9.06443,6.97014 -6.80539,5.15253 -14.25893,9.95069 -19.96722,16.37214 0,0 6.87488,-2.96608 6.87488,-2.96608 z" />
  <path
     style="fill:#ff0000;stroke:#000000;stroke-width:0.75"
     id="path1827"
     d="m 405.19655,210.91643 c -6.62118,6.75909 -13.05296,13.70544 -19.59186,20.54603 -7.27683,7.75827 -14.97093,15.1139 -22.93574,22.1603 -2.94659,2.59002 -6.0658,4.9731 -9.22484,7.29559 0,0 6.87019,-2.72867 6.87019,-2.72867 v 0 c 3.05964,-2.29893 6.09362,-4.64019 8.90662,-7.24068 7.74011,-7.09641 15.28261,-14.41145 22.50482,-22.03642 4.18908,-4.34073 4.17477,-4.31245 8.2209,-8.55559 3.37522,-3.53955 6.68938,-7.15548 10.24395,-10.51891 0.62597,-0.59231 1.28952,-1.1436 1.93429,-1.7154 0,0 -6.92833,2.79375 -6.92833,2.79375 z" />
  <path
     style="fill:#ff0000;stroke:#000000;stroke-width:0.75"
     id="path1829"
     d="m 341.37367,212.07356 c 7.37018,6.95996 14.76073,13.89678 22.05413,20.93749 6.80133,6.5845 13.83894,12.92329 20.52122,19.62993 3.88077,4.01972 7.62588,8.17055 11.29641,12.38261 1.09704,1.2445 2.13098,2.54189 3.19113,3.81729 0,0 6.41747,-3.87445 6.41747,-3.87445 v 0 c -1.13492,-1.23071 -2.25165,-2.47808 -3.39119,-3.70459 -3.78945,-4.14505 -7.53695,-8.33191 -11.51868,-12.29569 -6.74859,-6.69152 -14.09271,-12.75303 -20.84013,-19.45013 -7.28192,-6.92767 -14.71464,-13.74856 -21.34008,-21.31983 0,0 -6.39028,3.87737 -6.39028,3.87737 z" />
</svg>
