<?xml version="1.0" encoding="UTF-8" standalone="no"?>
<!-- Generated by graphviz version 5.0.1 (0)
 -->

<!-- Title: symm_tops Pages: 1 -->

<svg
   width="521pt"
   height="476pt"
   viewBox="0.00 0.00 520.54 476.00"
   version="1.1"
   id="svg217"
   sodipodi:docname="corrs.svg"
   inkscape:version="1.2.1 (9c6d41e410, 2022-07-14, custom)"
   xmlns:inkscape="http://www.inkscape.org/namespaces/inkscape"
   xmlns:sodipodi="http://sodipodi.sourceforge.net/DTD/sodipodi-0.dtd"
   xmlns="http://www.w3.org/2000/svg"
   xmlns:svg="http://www.w3.org/2000/svg">
  <defs
     id="defs221" />
  <sodipodi:namedview
     id="namedview219"
     pagecolor="#ffffff"
     bordercolor="#666666"
     borderopacity="1.0"
     inkscape:showpageshadow="2"
     inkscape:pageopacity="0.0"
     inkscape:pagecheckerboard="0"
     inkscape:deskcolor="#d1d1d1"
     inkscape:document-units="pt"
     showgrid="false"
     inkscape:zoom="1.487395"
     inkscape:cx="362.71469"
     inkscape:cy="357"
     inkscape:window-width="1914"
     inkscape:window-height="1053"
     inkscape:window-x="0"
     inkscape:window-y="21"
     inkscape:window-maximized="1"
     inkscape:current-layer="svg217" />
  <g
     id="graph0"
     class="graph"
     transform="scale(1 1) rotate(0) translate(4 472)">
    <title
       id="title2">symm_tops</title>
    <polygon
       fill="white"
       stroke="none"
       points="-4,4 -4,-472 516.54,-472 516.54,4 -4,4"
       id="polygon4" />
    <!-- corrs -->
    <g
       id="node1"
       class="node">
      <title
         id="title6">corrs</title>
      <ellipse
         fill="none"
         stroke="black"
         cx="344.9"
         cy="-450"
         rx="34.39"
         ry="18"
         id="ellipse8" />
      <text
         text-anchor="middle"
         x="344.9"
         y="-446.3"
         font-family="Times,serif"
         font-size="14.00"
         id="text10">corrs</text>
    </g>
    <!-- enrgy -->
    <g
       id="node2"
       class="node">
      <title
         id="title13">enrgy</title>
      <ellipse
         fill="none"
         stroke="black"
         cx="344.9"
         cy="-378"
         rx="37.89"
         ry="18"
         id="ellipse15" />
      <text
         text-anchor="middle"
         x="344.9"
         y="-374.3"
         font-family="Times,serif"
         font-size="14.00"
         id="text17">enrgy</text>
    </g>
    <!-- corrs&#45;&gt;enrgy -->
    <g
       id="edge1"
       class="edge">
      <title
         id="title20">corrs-&gt;enrgy</title>
      <path
         fill="none"
         stroke="black"
         d="M344.9,-431.7C344.9,-423.98 344.9,-414.71 344.9,-406.11"
         id="path22" />
      <polygon
         fill="black"
         stroke="black"
         points="348.4,-406.1 344.9,-396.1 341.4,-406.1 348.4,-406.1"
         id="polygon24" />
    </g>
    <!-- freq -->
    <g
       id="node3"
       class="node">
      <title
         id="title27">freq</title>
      <ellipse
         fill="none"
         stroke="black"
         cx="29.9"
         cy="-234"
         rx="29.8"
         ry="18"
         id="ellipse29" />
      <text
         text-anchor="middle"
         x="29.9"
         y="-230.3"
         font-family="Times,serif"
         font-size="14.00"
         id="text31">freq</text>
    </g>
    <!-- enrgy&#45;&gt;freq -->
    <g
       id="edge2"
       class="edge">
      <title
         id="title34">enrgy-&gt;freq</title>
      <path
         fill="none"
         stroke="black"
         d="M312.05,-369.02C277.75,-360.12 222.8,-344.29 177.9,-324 133.57,-303.97 86,-273.59 57.09,-254.02"
         id="path36" />
      <polygon
         fill="black"
         stroke="black"
         points="58.97,-251.07 48.74,-248.31 55.02,-256.85 58.97,-251.07"
         id="polygon38" />
    </g>
    <!-- xcnst -->
    <g
       id="node4"
       class="node">
      <title
         id="title41">xcnst</title>
      <ellipse
         fill="none"
         stroke="black"
         cx="222.9"
         cy="-306"
         rx="36"
         ry="18"
         id="ellipse43" />
      <text
         text-anchor="middle"
         x="222.9"
         y="-302.3"
         font-family="Times,serif"
         font-size="14.00"
         id="text45">xcnst</text>
    </g>
    <!-- enrgy&#45;&gt;xcnst -->
    <g
       id="edge3"
       class="edge">
      <title
         id="title48">enrgy-&gt;xcnst</title>
      <path
         fill="none"
         stroke="black"
         d="M321.66,-363.67C302.63,-352.75 275.52,-337.19 254.51,-325.14"
         id="path50" />
      <polygon
         fill="black"
         stroke="black"
         points="256.05,-321.99 245.63,-320.04 252.56,-328.06 256.05,-321.99"
         id="polygon52" />
    </g>
    <!-- gcnst -->
    <g
       id="node5"
       class="node">
      <title
         id="title55">gcnst</title>
      <ellipse
         fill="none"
         stroke="black"
         cx="312.9"
         cy="-306"
         rx="36.29"
         ry="18"
         id="ellipse57" />
      <text
         text-anchor="middle"
         x="312.9"
         y="-302.3"
         font-family="Times,serif"
         font-size="14.00"
         id="text59">gcnst</text>
    </g>
    <!-- enrgy&#45;&gt;gcnst -->
    <g
       id="edge4"
       class="edge">
      <title
         id="title62">enrgy-&gt;gcnst</title>
      <path
         fill="none"
         stroke="black"
         d="M337.15,-360.05C333.46,-351.97 328.95,-342.12 324.83,-333.11"
         id="path64" />
      <polygon
         fill="black"
         stroke="black"
         points="327.91,-331.43 320.57,-323.79 321.55,-334.34 327.91,-331.43"
         id="polygon66" />
    </g>
    <!-- restst -->
    <g
       id="node6"
       class="node">
      <title
         id="title69">restst</title>
      <ellipse
         fill="none"
         stroke="black"
         cx="376.9"
         cy="-234"
         rx="38.19"
         ry="18"
         id="ellipse71" />
      <text
         text-anchor="middle"
         x="376.9"
         y="-230.3"
         font-family="Times,serif"
         font-size="14.00"
         id="text73">restst</text>
    </g>
    <!-- enrgy&#45;&gt;restst -->
    <g
       id="edge5"
       class="edge">
      <title
         id="title76">enrgy-&gt;restst</title>
      <path
         fill="none"
         stroke="black"
         d="M349.24,-359.85C351.83,-349.48 355.14,-336 357.9,-324 362.64,-303.34 367.63,-279.89 371.3,-262.25"
         id="path78" />
      <polygon
         fill="black"
         stroke="black"
         points="374.8,-262.6 373.41,-252.1 367.95,-261.18 374.8,-262.6"
         id="polygon80" />
    </g>
    <!-- f3qcm -->
    <g
       id="node7"
       class="node">
      <title
         id="title83">f3qcm</title>
      <ellipse
         fill="none"
         stroke="black"
         cx="472.9"
         cy="-234"
         rx="39.79"
         ry="18"
         id="ellipse85" />
      <text
         text-anchor="middle"
         x="472.9"
         y="-230.3"
         font-family="Times,serif"
         font-size="14.00"
         id="text87">f3qcm</text>
    </g>
    <!-- enrgy&#45;&gt;f3qcm -->
    <g
       id="edge6"
       class="edge">
      <title
         id="title90">enrgy-&gt;f3qcm</title>
      <path
         fill="none"
         stroke="black"
         d="M359.08,-361.26C381.57,-336.31 425.54,-287.54 451.76,-258.45"
         id="path92" />
      <polygon
         fill="black"
         stroke="black"
         points="454.55,-260.58 458.65,-250.81 449.35,-255.89 454.55,-260.58"
         id="polygon94" />
    </g>
    <!-- e0 -->
    <g
       id="node8"
       class="node">
      <title
         id="title97">e0</title>
      <ellipse
         fill="none"
         stroke="black"
         cx="469.9"
         cy="-306"
         rx="27"
         ry="18"
         id="ellipse99" />
      <text
         text-anchor="middle"
         x="469.9"
         y="-302.3"
         font-family="Times,serif"
         font-size="14.00"
         id="text101">e0</text>
    </g>
    <!-- enrgy&#45;&gt;e0 -->
    <g
       id="edge7"
       class="edge">
      <title
         id="title104">enrgy-&gt;e0</title>
      <path
         fill="none"
         stroke="black"
         d="M368.41,-363.83C388.95,-352.33 418.86,-335.58 440.88,-323.25"
         id="path106" />
      <polygon
         fill="black"
         stroke="black"
         points="442.78,-326.2 449.79,-318.26 439.36,-320.09 442.78,-326.2"
         id="polygon108" />
    </g>
    <!-- xcnst&#45;&gt;freq -->
    <g
       id="edge8"
       class="edge">
      <title
         id="title111">xcnst-&gt;freq</title>
      <path
         fill="none"
         stroke="black"
         d="M193.41,-295.63C162.22,-285.53 111.71,-268.67 68.9,-252 66.83,-251.19 64.71,-250.34 62.57,-249.47"
         id="path113" />
      <polygon
         fill="black"
         stroke="black"
         points="63.86,-246.21 53.28,-245.55 61.14,-252.66 63.86,-246.21"
         id="polygon115" />
    </g>
    <!-- xcnst&#45;&gt;restst -->
    <g
       id="edge9"
       class="edge">
      <title
         id="title118">xcnst-&gt;restst</title>
      <path
         fill="none"
         stroke="black"
         d="M248.67,-293.28C273.98,-281.78 312.81,-264.13 341.1,-251.27"
         id="path120" />
      <polygon
         fill="black"
         stroke="black"
         points="342.61,-254.43 350.26,-247.11 339.71,-248.06 342.61,-254.43"
         id="polygon122" />
    </g>
    <!-- xcnst&#45;&gt;f3qcm -->
    <g
       id="edge10"
       class="edge">
      <title
         id="title125">xcnst-&gt;f3qcm</title>
      <path
         fill="none"
         stroke="black"
         d="M249.82,-294.16C255.73,-291.97 261.98,-289.79 267.9,-288 336,-267.38 355.52,-271.69 423.9,-252 427.01,-251.1 430.22,-250.12 433.43,-249.1"
         id="path127" />
      <polygon
         fill="black"
         stroke="black"
         points="434.6,-252.4 443,-245.94 432.41,-245.75 434.6,-252.4"
         id="polygon129" />
    </g>
    <!-- f4qcm -->
    <g
       id="node9"
       class="node">
      <title
         id="title132">f4qcm</title>
      <ellipse
         fill="none"
         stroke="black"
         cx="117.9"
         cy="-234"
         rx="39.79"
         ry="18"
         id="ellipse134" />
      <text
         text-anchor="middle"
         x="117.9"
         y="-230.3"
         font-family="Times,serif"
         font-size="14.00"
         id="text136">f4qcm</text>
    </g>
    <!-- xcnst&#45;&gt;f4qcm -->
    <g
       id="edge11"
       class="edge">
      <title
         id="title139">xcnst-&gt;f4qcm</title>
      <path
         fill="none"
         stroke="black"
         d="M202.15,-291.17C186.68,-280.86 165.31,-266.61 147.97,-255.05"
         id="path141" />
      <polygon
         fill="black"
         stroke="black"
         points="149.58,-251.92 139.32,-249.28 145.7,-257.74 149.58,-251.92"
         id="polygon143" />
    </g>
    <!-- zmat -->
    <g
       id="node10"
       class="node">
      <title
         id="title146">zmat</title>
      <ellipse
         fill="none"
         stroke="black"
         cx="208.9"
         cy="-234"
         rx="33.6"
         ry="18"
         id="ellipse148" />
      <text
         text-anchor="middle"
         x="208.9"
         y="-230.3"
         font-family="Times,serif"
         font-size="14.00"
         id="text150">zmat</text>
    </g>
    <!-- xcnst&#45;&gt;zmat -->
    <g
       id="edge12"
       class="edge">
      <title
         id="title153">xcnst-&gt;zmat</title>
      <path
         fill="none"
         stroke="black"
         d="M219.51,-288.05C217.97,-280.35 216.1,-271.03 214.37,-262.36"
         id="path155" />
      <polygon
         fill="black"
         stroke="black"
         points="217.75,-261.39 212.35,-252.28 210.88,-262.77 217.75,-261.39"
         id="polygon157" />
    </g>
    <!-- wila -->
    <g
       id="node11"
       class="node">
      <title
         id="title160">wila</title>
      <ellipse
         fill="none"
         stroke="black"
         cx="290.9"
         cy="-234"
         rx="29.8"
         ry="18"
         id="ellipse162" />
      <text
         text-anchor="middle"
         x="290.9"
         y="-230.3"
         font-family="Times,serif"
         font-size="14.00"
         id="text164">wila</text>
    </g>
    <!-- xcnst&#45;&gt;wila -->
    <g
       id="edge13"
       class="edge">
      <title
         id="title167">xcnst-&gt;wila</title>
      <path
         fill="none"
         stroke="black"
         d="M237.99,-289.46C247.18,-280 259.08,-267.75 269.27,-257.27"
         id="path169" />
      <polygon
         fill="black"
         stroke="black"
         points="271.86,-259.62 276.31,-250.01 266.84,-254.75 271.86,-259.62"
         id="polygon171" />
    </g>
    <!-- lxm -->
    <g
       id="node12"
       class="node">
      <title
         id="title174">lxm</title>
      <ellipse
         fill="none"
         stroke="black"
         cx="290.9"
         cy="-162"
         rx="27.9"
         ry="18"
         id="ellipse176" />
      <text
         text-anchor="middle"
         x="290.9"
         y="-158.3"
         font-family="Times,serif"
         font-size="14.00"
         id="text178">lxm</text>
    </g>
    <!-- wila&#45;&gt;lxm -->
    <g
       id="edge14"
       class="edge">
      <title
         id="title181">wila-&gt;lxm</title>
      <path
         fill="none"
         stroke="black"
         d="M290.9,-215.7C290.9,-207.98 290.9,-198.71 290.9,-190.11"
         id="path183" />
      <polygon
         fill="black"
         stroke="black"
         points="294.4,-190.1 290.9,-180.1 287.4,-190.1 294.4,-190.1"
         id="polygon185" />
    </g>
    <!-- fxm -->
    <g
       id="node13"
       class="node">
      <title
         id="title188">fxm</title>
      <ellipse
         fill="none"
         stroke="black"
         cx="290.9"
         cy="-90"
         rx="28.7"
         ry="18"
         id="ellipse190" />
      <text
         text-anchor="middle"
         x="290.9"
         y="-86.3"
         font-family="Times,serif"
         font-size="14.00"
         id="text192">fxm</text>
    </g>
    <!-- lxm&#45;&gt;fxm -->
    <g
       id="edge15"
       class="edge">
      <title
         id="title195">lxm-&gt;fxm</title>
      <path
         fill="none"
         stroke="black"
         d="M290.9,-143.7C290.9,-135.98 290.9,-126.71 290.9,-118.11"
         id="path197" />
      <polygon
         fill="black"
         stroke="black"
         points="294.4,-118.1 290.9,-108.1 287.4,-118.1 294.4,-118.1"
         id="polygon199" />
    </g>
    <!-- fc2 -->
    <g
       id="node14"
       class="node">
      <title
         id="title202">fc2</title>
      <ellipse
         fill="none"
         stroke="black"
         cx="290.9"
         cy="-18"
         rx="27"
         ry="18"
         id="ellipse204" />
      <text
         text-anchor="middle"
         x="290.9"
         y="-14.3"
         font-family="Times,serif"
         font-size="14.00"
         id="text206">fc2</text>
    </g>
    <!-- fxm&#45;&gt;fc2 -->
    <g
       id="edge16"
       class="edge">
      <title
         id="title209">fxm-&gt;fc2</title>
      <path
         fill="none"
         stroke="black"
         d="M290.9,-71.7C290.9,-63.98 290.9,-54.71 290.9,-46.11"
         id="path211" />
      <polygon
         fill="black"
         stroke="black"
         points="294.4,-46.1 290.9,-36.1 287.4,-46.1 294.4,-46.1"
         id="polygon213" />
    </g>
  </g>
  <path
     style="fill:#ff0000;stroke:#000000;stroke-width:0.75"
     id="path1132"
     d="m 300.50562,217.92089 c -5.34105,-0.43809 -10.74285,1.00173 -15.65619,3.00878 -1.40431,0.57364 -2.7532,1.27456 -4.1298,1.91183 -3.27225,1.94162 -6.65953,3.7013 -9.81675,5.82487 -4.78336,3.21733 -9.57706,10.7303 -9.93219,16.539 -0.11137,1.82164 0.39276,3.6289 0.58914,5.44336 0.77025,1.72768 1.26885,3.60425 2.31076,5.18305 4.92858,7.46829 14.50548,10.41857 23.00384,10.76194 2.22494,0.0899 4.44603,-0.25794 6.66903,-0.38691 7.30287,-2.17319 8.51993,-1.95236 15.76101,-8.24505 2.22217,-1.93112 3.79535,-7.088 4.10614,-9.82121 0.54659,-4.80701 -0.31418,-5.91437 -1.72351,-10.38252 -0.9281,-1.46367 -1.69342,-3.0443 -2.78431,-4.39102 -2.07377,-2.5601 -4.71425,-4.47554 -7.49834,-6.16751 -1.14702,-0.69708 -2.37585,-1.24961 -3.56378,-1.87441 0,0 -5.82862,3.83131 -5.82862,3.83131 v 0 c 1.20117,0.58303 2.44435,1.08647 3.60351,1.74909 2.74955,1.57173 5.37679,3.4152 7.41449,5.88641 1.06476,1.29127 1.80476,2.81909 2.70714,4.22863 0.50296,1.62155 1.24752,3.18712 1.50889,4.86464 0.52844,3.39164 0.062,7.05536 -1.35871,10.18708 -0.72061,1.58841 -2.32016,2.72558 -2.8532,4.38636 -0.14788,0.46075 1.89422,-0.21477 1.45157,-0.0193 -1.82249,0.80486 -3.78162,1.25554 -5.67242,1.88331 -2.21384,0.17523 -4.42145,0.58181 -6.64149,0.52568 -8.1598,-0.20631 -17.7364,-3.11717 -22.44158,-10.31534 -0.99639,-1.52432 -1.45369,-3.33949 -2.18053,-5.00923 -0.14784,-1.75089 -0.59288,-3.50192 -0.44352,-5.25269 0.39249,-4.60072 3.48789,-9.78848 6.63141,-13.04019 1.08963,-1.12714 2.63195,-1.80187 3.5793,-3.05098 0.44416,-0.58562 -1.32554,0.63549 -1.98831,0.95322 1.36079,-0.65206 2.69262,-1.36837 4.08237,-1.9562 4.65678,-1.96971 9.83833,-3.4213 14.93151,-2.95473 0,0 6.16314,-4.30129 6.16314,-4.30129 z" />
  <path
     style="fill:#ff0000;stroke:#000000;stroke-width:0.75"
     id="path1134"
     d="m 323.75597,259.22669 c -0.208,3.27597 -0.18217,6.54681 0.0957,9.81642 0.35989,0.45637 -0.0715,1.31093 0.28472,1.80507 0.15099,0.20949 0.423,0.54347 0.65034,0.42099 11.08118,-5.97022 4.5021,-2.3053 8.10344,-5.71105 0.46191,-0.43682 0.9718,-0.81995 1.4577,-1.22993 4.70078,-3.06879 -2.03832,0.93511 -2.94955,1.57764 -0.46019,0.32448 1.03517,-0.45547 1.58008,-0.59735 1.80352,-0.4696 2.70821,-0.19216 4.35557,0.46823 0.38076,0.31239 0.81556,0.56862 1.14226,0.93717 1.57128,1.77255 1.70037,4.24878 1.00816,6.41081 -0.18697,0.58398 -0.4815,1.12789 -0.72224,1.69183 -0.33263,0.45466 -0.60398,0.96127 -0.9979,1.364 -0.35602,0.36397 -1.66096,1.1758 -1.22659,0.91019 1.66096,-1.01563 3.46515,-1.85802 4.91024,-3.16264 0.3889,-0.35109 -1.04138,0.14804 -1.56529,0.14283 -1.06968,-0.0106 -1.93884,-0.25762 -2.96734,-0.48691 -1.39649,-0.35823 -2.74515,-0.86177 -4.01517,-1.5416 -0.39197,-0.22839 -0.79611,-0.43009 -1.23552,-0.54593 -0.49206,-0.15585 -0.2271,-0.0564 -0.7878,-0.31651 0,0 -6.30897,4.12492 -6.30897,4.12492 v 0 c 0.58919,0.35731 0.31034,0.2053 0.83045,0.46707 0.39405,0.13616 0.81924,0.18285 1.17607,0.42176 1.36677,0.67809 2.77944,1.23519 4.26804,1.5938 0.89064,0.21561 3.99969,1.01304 4.78111,0.67408 0.69473,-0.30135 6.98335,-2.82466 8.87056,-5.22536 0.36073,-0.45888 0.60662,-0.99739 0.90993,-1.49609 0.21802,-0.60237 0.4922,-1.18729 0.65405,-1.80712 0.64099,-2.45485 0.34953,-5.11504 -1.32845,-7.11614 -0.36016,-0.42951 -0.83497,-0.74806 -1.25246,-1.12209 -0.48646,-0.23588 -0.94524,-0.54049 -1.4594,-0.70763 -1.49356,-0.48552 -3.51828,-0.42336 -4.92479,0.32139 -6.5555,3.4712 -5.8782,3.0646 -9.51677,5.76991 -0.49307,0.44222 -1.0057,0.86354 -1.47921,1.32665 -0.39224,0.38361 -1.62693,1.40816 -1.11508,1.21063 2.02248,-0.7805 3.75933,-2.18865 5.76722,-3.00595 0.20357,-0.0829 0.19859,0.57016 -0.002,0.65936 -0.5121,0.22739 0.27536,-2.43035 -0.33535,-1.64714 -0.34295,-3.24743 -0.37909,-6.51404 0.0703,-9.7565 0,0 -6.72581,3.36119 -6.72581,3.36119 z" />
  <path
     style="fill:#ff0000;stroke:#000000;stroke-width:0.75"
     id="path1136"
     d="m 346.39671,273.01049 c -0.23685,2.8547 0.0423,5.7499 0.62158,8.54995 0.14914,0.50587 0.23948,1.0637 0.62602,1.46699 0.24612,0.25677 0.99516,0.71588 1.40966,0.50695 6.81429,-3.43493 5.54623,-1.98948 7.71987,-4.7947 0,0 -6.90059,2.88952 -6.90059,2.88952 v 0 c -2.28063,2.04103 -0.91605,0.73217 5.19768,-2.604 0.12846,-0.0701 -0.54977,0.48178 -0.93044,0.21781 -0.30838,-0.21384 -0.46873,-0.9424 -0.5557,-1.20935 -0.63303,-2.7107 -0.951,-5.55327 -0.43379,-8.31029 0,0 -6.75429,3.28712 -6.75429,3.28712 z" />
  <path
     style="fill:#ff0000;stroke:#000000;stroke-width:0.75"
     id="path1138"
     d="m 364.48555,274.21978 c -0.11578,3.64054 -0.18497,7.27898 -0.12491,10.92109 0,0 6.48316,-3.32352 6.48316,-3.32352 v 0 c -0.12079,-3.65563 -0.0725,-7.31439 0.3224,-10.95496 0,0 -6.68065,3.35739 -6.68065,3.35739 z" />
  <path
     style="fill:#ff0000;stroke:#000000;stroke-width:0.75"
     id="path1140"
     d="m 360.51534,269.56056 c 3.79764,-0.83807 8.08164,-2.48794 12.02213,-1.90729 0.5862,0.0864 1.14748,0.29607 1.72122,0.44412 0.98834,0.52054 2.88088,1.22636 2.80821,2.70034 -0.0692,1.40446 -2.13273,2.83502 -3.052,3.59915 -1.415,1.01397 -1.59026,1.18353 -3.0296,2.05425 -0.40573,0.24544 -1.6428,0.94794 -1.23677,0.70297 8.8594,-5.34498 6.49316,-3.33068 3.85156,-2.73251 0,0 -5.99829,4.51432 -5.99829,4.51432 v 0 c 3.51876,-0.422 5.49965,-2.44085 9.05012,-4.4385 1.45812,-0.8204 2.81803,-1.81062 4.12339,-2.85252 0.97641,-0.91672 1.99507,-1.66446 2.53474,-2.94837 0.99756,-2.37321 -1.19235,-3.843 -3.01081,-4.74273 -0.61228,-0.18116 -1.20862,-0.42922 -1.83683,-0.54346 -4.06825,-0.73983 -8.1307,0.95773 -12.08181,1.63213 0,0 -5.86526,4.5181 -5.86526,4.5181 z" />
  <path
     style="fill:#ff0000;stroke:#000000;stroke-width:0.75"
     id="path1142"
     d="m 386.0999,273.09485 c 2.95256,1.84072 5.9046,3.68228 8.88342,5.4803 0,0 6.1856,-4.01742 6.1856,-4.01742 v 0 c -3.02381,-1.66524 -6.02016,-3.40028 -8.81438,-5.43425 0,0 -6.25464,3.97137 -6.25464,3.97137 z" />
  <path
     style="fill:#ff0000;stroke:#000000;stroke-width:0.75"
     id="path1144"
     d="m 396.29657,271.3437 c -1.32449,3.75227 -2.82838,7.43924 -4.3278,11.12425 0,0 6.49787,-3.00648 6.49787,-3.00648 v 0 c 1.46822,-3.77282 2.95333,-7.53867 4.54377,-11.26214 0,0 -6.71384,3.14437 -6.71384,3.14437 z" />
  <path
     style="fill:#ff0000;stroke:#000000;stroke-width:0.75"
     id="path1279"
     d="m 265.42512,294.72694 c 7.64253,2.78141 14.99646,6.32306 22.35698,9.7689 6.85485,3.27087 13.76952,6.45149 20.35512,10.25013 3.71002,2.13997 6.57933,4.00239 10.20913,6.29301 5.45863,3.48648 10.85828,7.06257 16.19641,10.73044 0,0 5.89861,-3.77804 5.89861,-3.77804 v 0 c -5.49376,-3.53113 -10.99359,-7.05271 -16.51283,-10.54394 -2.37025,-1.51625 -7.67443,-4.94389 -10.14127,-6.38744 -6.58415,-3.85291 -13.60225,-6.88518 -20.43997,-10.24228 -7.21837,-3.47231 -14.41747,-6.99297 -21.71494,-10.29612 0,0 -6.20724,4.20534 -6.20724,4.20534 z" />
  <path
     style="fill:#000000;stroke:#000000;stroke-width:0.75"
     id="path1281"
     d="m 274.60638,327.82762 c 5.2004,-3.89667 10.37345,-7.83216 15.54726,-11.76485 7.08777,-5.46963 14.0837,-11.05709 21.0614,-16.66605 0.71758,-0.58154 1.43515,-1.16309 2.15273,-1.74463 0,0 -6.66509,2.68416 -6.66509,2.68416 v 0 c -0.68093,0.56539 -1.36187,1.13079 -2.0428,1.69619 -6.87583,5.6273 -13.82963,11.1599 -20.87935,16.56809 -5.34798,4.03139 -10.68558,8.08404 -16.13943,11.97065 0,0 6.96528,-2.74356 6.96528,-2.74356 z" />
  <path
     style="fill:#000000;stroke:#000000;stroke-width:0.75"
     id="path1346"
     d="m 264.00382,256.90544 c -5.02957,4.53651 -9.91816,9.22202 -14.95032,13.75679 -9.71522,8.51687 -19.55503,16.9202 -29.86666,24.71325 -2.07519,1.56834 -4.19261,3.08 -6.2889,4.62 -4.81404,3.48731 -9.79189,6.73497 -14.78411,9.95784 0,0 6.38973,-2.49292 6.38973,-2.49292 v 0 c 4.8286,-3.18702 9.64374,-6.39641 14.31432,-9.81386 2.07283,-1.53637 4.16465,-3.04743 6.21847,-4.60911 10.38537,-7.89681 20.32681,-16.36209 30.19298,-24.89159 1.50872,-1.32846 3.02994,-2.64285 4.52615,-3.98539 3.73909,-3.35507 7.30693,-6.90725 11.21988,-10.06556 0,0 -6.97154,2.81055 -6.97154,2.81055 z" />
  <path
     style="fill:#000000;stroke:#000000;stroke-width:0.75"
     id="path1348"
     d="m 200.30525,296.13493 c -1.50825,3.90519 -2.97679,7.82129 -4.32493,11.78579 -0.86129,2.54527 -1.69875,5.09881 -2.50605,7.66174 -0.0958,0.30415 -0.9573,2.53452 -0.62142,3.15703 0.22635,0.41954 0.79247,0.53009 1.18871,0.79514 0.88579,-0.12501 1.789,-0.16007 2.65735,-0.37501 1.52822,-0.37827 6.45306,-2.17631 7.79937,-2.66844 3.23337,-1.18193 6.44362,-2.42421 9.65267,-3.67009 0.65037,-0.25384 1.30075,-0.50767 1.95112,-0.7615 0,0 5.72028,-4.49769 5.72028,-4.49769 v 0 c -0.67843,0.27681 -1.35687,0.55363 -2.0353,0.83044 -6.41599,2.58713 -12.85832,5.20777 -19.54952,6.99904 -0.25144,-5e-4 -0.61622,0.20863 -0.75432,-0.002 -0.30296,-0.46094 0.53583,-2.89196 0.53775,-2.89856 0.74768,-2.55892 1.57204,-5.09505 2.45368,-7.61086 1.42629,-4.02907 2.96849,-8.00909 4.63656,-11.94426 0,0 -6.80595,3.19872 -6.80595,3.19872 z" />
  <path
     style="fill:#000000;stroke:#000000;stroke-width:0.75"
     id="path1350"
     d="m 149.18397,318.38307 c -3.1109,-0.41474 -6.2774,-0.28615 -9.39519,-0.008 -0.87807,0.0783 -1.76105,0.13665 -2.62796,0.29662 -0.81744,0.15085 -1.60797,0.42227 -2.41194,0.6334 -3.66195,2.06356 -12.31272,5.1323 -11.08769,10.64567 0.0873,0.3928 0.30383,0.74519 0.45575,1.11779 0.3124,0.28252 0.57281,0.63631 0.9372,0.84755 4.25211,2.46494 11.73201,-3.60346 14.07159,-4.98634 2.75218,-2.78073 4.57229,-6.28138 6.49466,-9.64697 3.2959,-0.84281 -2.23607,0.49504 -5.37043,3.77999 -0.39642,0.41546 0.59397,0.98634 0.82788,1.51079 0.3915,0.87778 0.75629,1.77065 1.04462,2.68752 1.11581,3.54823 1.24434,4.98317 1.9181,8.72304 0.57769,5.24076 1.07029,10.89595 -1.51145,15.73623 -1.19567,2.24163 -1.85852,2.55956 -3.66996,4.17219 1.33052,-0.82245 2.89362,-1.35324 3.99153,-2.46736 0.5259,-0.53366 -1.42258,0.49629 -2.16288,0.61171 -0.70698,0.11023 -1.43368,0.1304 -2.14575,0.0601 -2.36302,-0.23342 -4.27816,-1.46674 -6.23855,-2.67754 -1.84618,-1.26449 -3.50419,-2.76788 -5.12926,-4.29796 0,0 -6.3191,3.91838 -6.3191,3.91838 v 0 c 1.73707,1.4945 3.48233,2.98544 5.36456,4.29748 2.01571,1.29217 4.01388,2.64788 6.44173,3.02961 4.95026,0.77833 8.88334,-2.76468 12.85132,-5.21022 1.72846,-1.74943 2.34285,-2.08892 3.4364,-4.42161 2.34441,-5.00094 1.7447,-10.66834 1.144,-15.967 -0.66527,-3.98916 -1.21173,-8.01305 -2.64981,-11.81816 -0.23314,-0.61688 -0.16737,-1.86894 -0.82313,-1.79903 -5.67471,0.60496 -5.78607,0.89315 -7.78191,3.16815 -1.77316,3.3532 -3.61343,6.78275 -6.5406,9.2821 1.59862,-0.86966 3.22431,-1.69131 4.79586,-2.60897 0.49356,-0.28821 -1.01857,0.52646 -1.55712,0.71781 -1.23389,0.43839 -2.89693,0.76443 -4.17151,0.25124 -0.28286,-0.11389 -0.49781,-0.35229 -0.74672,-0.52844 -0.51771,-1.27368 -0.6163,-2.00548 0.0807,-3.31337 0.26918,-0.50511 1.54918,-1.5286 0.99095,-1.40226 -1.92233,0.43506 -7.66736,4.10574 -2.66258,0.99499 0.78788,-0.24694 1.55673,-0.56574 2.36364,-0.74081 0.86376,-0.18739 1.75005,-0.25304 2.62937,-0.34245 2.9785,-0.30285 6.01549,-0.42576 8.98382,0.0338 0,0 6.17986,-4.27945 6.17986,-4.27945 z" />
  <path
     style="fill:#000000;stroke:#000000;stroke-width:0.75"
     id="path1352"
     d="m 153.76618,332.28634 c 0.86571,0.26601 1.62407,0.53687 2.5426,0.63396 5.20794,0.55049 9.37673,-3.13914 13.59776,-5.60565 2.28753,-1.95589 4.10759,-4.5674 4.3875,-7.64381 0.041,-0.45002 -0.007,-0.90373 -0.0106,-1.35559 -0.0948,-0.40217 -0.10887,-0.83244 -0.28437,-1.2065 -0.82546,-1.75943 -2.98488,-2.79255 -4.82817,-2.972 -0.53592,-0.0522 -1.07668,0.0216 -1.61502,0.0324 -4.04289,1.80891 -4.18157,1.75132 -9.62046,6.03042 -0.66046,0.51963 -1.01852,1.34202 -1.44309,2.06726 -1.56461,2.67263 -2.21654,5.12381 -2.90867,8.09394 -0.38169,3.18089 -0.80716,6.95973 1.31338,9.68186 0.29745,0.38184 0.67959,0.6894 1.01938,1.0341 2.67974,1.96777 6.07697,2.27854 9.28659,2.61528 2.16016,0.24056 4.18081,-0.38569 6.15747,-1.17371 0,0 5.84172,-4.61233 5.84172,-4.61233 v 0 c -1.90854,0.85401 -3.85185,1.6261 -5.98922,1.50108 -3.07876,-0.22919 -6.33338,-0.4882 -8.98992,-2.20534 -0.31366,-0.29342 -0.66563,-0.55063 -0.94097,-0.88028 -2.07226,-2.4809 -1.57825,-6.13034 -1.22822,-9.06801 0.7291,-2.96028 1.37155,-5.2437 3.06536,-7.84904 0.45286,-0.69656 2.35969,-2.00983 1.52992,-1.96771 -1.68005,0.0853 -2.99838,1.54569 -4.57863,2.12247 -0.58078,0.21198 1.03394,-0.67824 1.5509,-1.01736 0.49899,-0.0587 0.99457,-0.18192 1.49697,-0.17624 1.53393,0.0173 3.63916,0.75244 4.33119,2.2658 0.14837,0.32448 0.14977,0.69769 0.22465,1.04654 -0.009,0.40585 0.0243,0.81471 -0.0259,1.21753 -0.36561,2.9343 -2.26096,5.31967 -4.54172,7.06153 1.51774,-0.83085 3.07783,-1.58861 4.5532,-2.49253 0.55781,-0.34176 -1.17048,0.59586 -1.79176,0.80067 -1.9363,0.63828 -3.94881,0.56943 -5.83938,-0.15287 0,0 -6.26241,4.17413 -6.26241,4.17413 z" />
  <path
     style="fill:#000000;stroke:#000000;stroke-width:0.75"
     id="path1354"
     d="m 178.7801,331.10873 c -1.37336,1.71082 -2.42344,3.77147 -2.69459,5.97502 -0.0583,0.47433 -0.0314,0.9553 -0.047,1.43294 0.22215,2.0615 0.83034,4.38874 2.8729,5.38735 0.45127,0.22063 0.95585,0.30922 1.43377,0.46384 6.25417,0.82792 8.78106,-1.84374 14.47909,-5.181 1.61156,-1.44495 2.98938,-3.27087 3.60133,-5.36725 -0.0465,-2.69009 -2.02147,-4.40021 -4.12335,-5.73764 -2.07806,-1.12083 -4.30233,-1.95488 -6.66421,-2.14179 -3.40097,0.3678 -8.08366,2.2687 -8.78488,5.91989 -0.15037,0.78298 -0.0999,1.38147 -0.0857,2.16771 0,0 6.6473,-3.38524 6.6473,-3.38524 v 0 c 0.0229,-0.95005 0.0214,-1.91679 0.62154,-2.72233 0.16081,-0.21587 0.83474,-0.66873 0.5954,-0.54555 -7.84256,4.03644 -7.64957,3.92256 -5.05886,2.94395 2.30469,-0.0463 4.45943,0.75058 6.49566,1.78683 1.81624,1.07782 3.84171,2.51584 3.56856,4.90155 -0.74724,1.94611 -2.0403,3.64143 -3.72275,4.87768 14.27939,-7.96011 5.28779,-2.83357 4.14665,-2.38409 -1.76844,0.69658 -3.74358,0.8402 -5.61687,0.68183 -0.42279,-0.0934 -0.86582,-0.1208 -1.26837,-0.28026 -1.89223,-0.74956 -2.3872,-2.91205 -2.52501,-4.71097 0.0323,-0.43715 0.0252,-0.87904 0.097,-1.31147 0.35394,-2.13133 1.46492,-4.11377 3.00364,-5.60596 0,0 -6.97119,2.83496 -6.97119,2.83496 z" />
  <path
     style="fill:#000000;stroke:#000000;stroke-width:0.75"
     id="path1356"
     d="m 198.23966,330.43749 c 0.63524,3.06404 0.96776,6.17665 1.21929,9.29209 0.12486,1.26704 0.18455,2.53907 0.27809,3.80827 0.41418,3.11357 6.35647,-3.38374 6.71648,-3.67048 0.26805,-0.2135 -0.0922,-0.67943 -0.12105,-1.0209 -0.14943,-1.77093 -0.0984,-1.6645 -0.0647,-3.5811 0.23429,-2.61646 0.49501,-5.28458 1.37736,-7.77851 0.35847,-1.01321 0.60457,-1.41857 1.07965,-2.3342 1.52325,-2.43983 5.0052,-4.00567 -4.85371,2.2745 -0.16789,0.10695 0.37217,-0.16732 0.57111,-0.17461 0.6369,-0.0233 0.99627,0.28239 1.53744,0.57504 1.98501,1.4335 3.02086,3.12932 3.78769,5.40798 0.0713,0.10394 0.48557,2.53294 0.73952,2.41251 6.97545,-3.3082 6.12948,-1.29343 7.16986,-4.45137 0.72062,-2.01744 1.63239,-3.95188 2.59802,-5.86104 0.84951,-1.43563 1.63043,-3.0999 2.99024,-4.13195 -2.01779,1.19978 -4.04395,2.38558 -6.05336,3.59935 -0.0399,0.0242 0.22514,-0.23042 0.73163,-0.15701 0.55697,0.0807 0.91666,0.47072 1.2973,0.84184 1.32898,1.45929 1.94792,3.28912 2.52226,5.13649 0.61219,1.93263 0.92755,3.93711 1.33976,5.91698 0.28459,1.19043 0.58856,2.37608 0.88872,3.56264 0,0 6.53562,-3.54001 6.53562,-3.54001 v 0 c -0.30646,-1.17245 -0.61783,-2.34444 -0.85608,-3.53327 -0.38073,-2.01168 -0.73737,-4.03288 -1.39333,-5.97876 -0.61683,-1.95607 -1.24921,-3.89935 -2.62527,-5.47356 -3.14739,-3.48851 -4.90906,-0.15531 -9.36118,2.48835 -1.13162,1.30278 -2.01659,2.8018 -2.79539,4.33633 -0.95564,1.93775 -1.81569,3.91392 -2.65268,5.9051 -1.68138,2.58903 -0.56938,0.66599 6.1254,-2.63894 0.025,-0.0124 -0.0627,0.0611 -0.0755,0.0363 -0.0746,-0.14476 -0.10176,-0.30956 -0.14624,-0.46626 -0.0669,-0.23572 -0.12058,-0.47508 -0.18787,-0.7107 -0.0858,-0.30057 -0.18093,-0.59841 -0.2714,-0.89761 -0.89496,-2.44916 -1.97013,-4.1978 -4.04034,-5.8479 -0.65208,-0.44717 -0.99266,-0.76684 -1.75105,-0.98276 -3.39007,-0.96513 -7.04942,2.46287 -8.54113,5.4287 -1.45303,3.29071 -1.95193,6.75815 -2.19688,10.33209 -0.0735,2.17567 -0.0941,1.72485 -0.0389,3.72102 0.0101,0.36179 -0.29966,1.19418 0.0454,1.08483 4.3302,-1.37247 6.866,-1.91872 6.68902,-3.3251 -0.12619,-1.24675 -0.28186,-2.48969 -0.43561,-3.73344 -0.34578,-3.11822 -0.73841,-6.23072 -1.09968,-9.34646 0,0 -6.67843,3.47551 -6.67843,3.47551 z" />
</svg>
