<?xml version="1.0" encoding="UTF-8" standalone="no"?>
<!DOCTYPE svg PUBLIC "-//W3C//DTD SVG 1.1//EN"
 "http://www.w3.org/Graphics/SVG/1.1/DTD/svg11.dtd">
<!-- Generated by graphviz version 5.0.1 (0)
 -->
<!-- Title: symm_tops Pages: 1 -->
<svg width="975pt" height="476pt"
 viewBox="0.00 0.00 975.19 476.00" xmlns="http://www.w3.org/2000/svg" xmlns:xlink="http://www.w3.org/1999/xlink">
<g id="graph0" class="graph" transform="scale(1 1) rotate(0) translate(4 472)">
<title>symm_tops</title>
<polygon fill="white" stroke="none" points="-4,4 -4,-472 971.19,-472 971.19,4 -4,4"/>
<!-- corrs -->
<g id="node1" class="node">
<title>corrs</title>
<ellipse fill="none" stroke="black" cx="432.6" cy="-450" rx="34.39" ry="18"/>
<text text-anchor="middle" x="432.6" y="-446.3" font-family="Times,serif" font-size="14.00">corrs</text>
</g>
<!-- enrgy -->
<g id="node2" class="node">
<title>enrgy</title>
<ellipse fill="none" stroke="black" cx="432.6" cy="-378" rx="37.89" ry="18"/>
<text text-anchor="middle" x="432.6" y="-374.3" font-family="Times,serif" font-size="14.00">enrgy</text>
</g>
<!-- corrs&#45;&gt;enrgy -->
<g id="edge1" class="edge">
<title>corrs&#45;&gt;enrgy</title>
<path fill="none" stroke="black" d="M432.6,-431.7C432.6,-423.98 432.6,-414.71 432.6,-406.11"/>
<polygon fill="black" stroke="black" points="436.1,-406.1 432.6,-396.1 429.1,-406.1 436.1,-406.1"/>
</g>
<!-- freq -->
<g id="node3" class="node">
<title>freq</title>
<ellipse fill="none" stroke="black" cx="117.6" cy="-234" rx="29.8" ry="18"/>
<text text-anchor="middle" x="117.6" y="-230.3" font-family="Times,serif" font-size="14.00">freq</text>
</g>
<!-- enrgy&#45;&gt;freq -->
<g id="edge2" class="edge">
<title>enrgy&#45;&gt;freq</title>
<path fill="none" stroke="black" d="M399.75,-369.02C365.45,-360.12 310.5,-344.29 265.6,-324 221.27,-303.97 173.7,-273.59 144.79,-254.02"/>
<polygon fill="black" stroke="black" points="146.67,-251.07 136.44,-248.31 142.72,-256.85 146.67,-251.07"/>
</g>
<!-- xcnst -->
<g id="node4" class="node">
<title>xcnst</title>
<ellipse fill="none" stroke="black" cx="310.6" cy="-306" rx="36" ry="18"/>
<text text-anchor="middle" x="310.6" y="-302.3" font-family="Times,serif" font-size="14.00">xcnst</text>
</g>
<!-- enrgy&#45;&gt;xcnst -->
<g id="edge3" class="edge">
<title>enrgy&#45;&gt;xcnst</title>
<path fill="none" stroke="black" d="M409.36,-363.67C390.33,-352.75 363.22,-337.19 342.21,-325.14"/>
<polygon fill="black" stroke="black" points="343.75,-321.99 333.33,-320.04 340.26,-328.06 343.75,-321.99"/>
</g>
<!-- gcnst -->
<g id="node5" class="node">
<title>gcnst</title>
<ellipse fill="none" stroke="black" cx="400.6" cy="-306" rx="36.29" ry="18"/>
<text text-anchor="middle" x="400.6" y="-302.3" font-family="Times,serif" font-size="14.00">gcnst</text>
</g>
<!-- enrgy&#45;&gt;gcnst -->
<g id="edge4" class="edge">
<title>enrgy&#45;&gt;gcnst</title>
<path fill="none" stroke="black" d="M424.85,-360.05C421.16,-351.97 416.65,-342.12 412.53,-333.11"/>
<polygon fill="black" stroke="black" points="415.61,-331.43 408.27,-323.79 409.25,-334.34 415.61,-331.43"/>
</g>
<!-- restst -->
<g id="node6" class="node">
<title>restst</title>
<ellipse fill="none" stroke="black" cx="464.6" cy="-234" rx="38.19" ry="18"/>
<text text-anchor="middle" x="464.6" y="-230.3" font-family="Times,serif" font-size="14.00">restst</text>
</g>
<!-- enrgy&#45;&gt;restst -->
<g id="edge5" class="edge">
<title>enrgy&#45;&gt;restst</title>
<path fill="none" stroke="black" d="M436.94,-359.85C439.54,-349.48 442.84,-336 445.6,-324 450.34,-303.34 455.33,-279.89 459,-262.25"/>
<polygon fill="black" stroke="black" points="462.5,-262.6 461.11,-252.1 455.65,-261.18 462.5,-262.6"/>
</g>
<!-- f3qcm -->
<g id="node7" class="node">
<title>f3qcm</title>
<ellipse fill="none" stroke="black" cx="560.6" cy="-234" rx="39.79" ry="18"/>
<text text-anchor="middle" x="560.6" y="-230.3" font-family="Times,serif" font-size="14.00">f3qcm</text>
</g>
<!-- enrgy&#45;&gt;f3qcm -->
<g id="edge6" class="edge">
<title>enrgy&#45;&gt;f3qcm</title>
<path fill="none" stroke="black" d="M446.78,-361.26C469.27,-336.31 513.24,-287.54 539.46,-258.45"/>
<polygon fill="black" stroke="black" points="542.25,-260.58 546.35,-250.81 537.05,-255.89 542.25,-260.58"/>
</g>
<!-- e0 -->
<g id="node8" class="node">
<title>e0</title>
<ellipse fill="none" stroke="black" cx="557.6" cy="-306" rx="27" ry="18"/>
<text text-anchor="middle" x="557.6" y="-302.3" font-family="Times,serif" font-size="14.00">e0</text>
</g>
<!-- enrgy&#45;&gt;e0 -->
<g id="edge7" class="edge">
<title>enrgy&#45;&gt;e0</title>
<path fill="none" stroke="black" d="M456.11,-363.83C476.65,-352.33 506.56,-335.58 528.58,-323.25"/>
<polygon fill="black" stroke="black" points="530.48,-326.2 537.49,-318.26 527.06,-320.09 530.48,-326.2"/>
</g>
<!-- xcnst&#45;&gt;freq -->
<g id="edge8" class="edge">
<title>xcnst&#45;&gt;freq</title>
<path fill="none" stroke="black" d="M281.11,-295.63C249.92,-285.53 199.41,-268.67 156.6,-252 154.53,-251.19 152.41,-250.34 150.28,-249.47"/>
<polygon fill="black" stroke="black" points="151.56,-246.21 140.98,-245.55 148.84,-252.66 151.56,-246.21"/>
</g>
<!-- xcnst&#45;&gt;restst -->
<g id="edge9" class="edge">
<title>xcnst&#45;&gt;restst</title>
<path fill="none" stroke="black" d="M336.37,-293.28C361.68,-281.78 400.51,-264.13 428.8,-251.27"/>
<polygon fill="black" stroke="black" points="430.31,-254.43 437.96,-247.11 427.41,-248.06 430.31,-254.43"/>
</g>
<!-- xcnst&#45;&gt;f3qcm -->
<g id="edge10" class="edge">
<title>xcnst&#45;&gt;f3qcm</title>
<path fill="none" stroke="black" d="M337.52,-294.16C343.43,-291.97 349.68,-289.79 355.6,-288 423.7,-267.38 443.22,-271.69 511.6,-252 514.71,-251.1 517.92,-250.12 521.13,-249.1"/>
<polygon fill="black" stroke="black" points="522.3,-252.4 530.7,-245.94 520.11,-245.75 522.3,-252.4"/>
</g>
<!-- f4qcm -->
<g id="node9" class="node">
<title>f4qcm</title>
<ellipse fill="none" stroke="black" cx="368.6" cy="-234" rx="39.79" ry="18"/>
<text text-anchor="middle" x="368.6" y="-230.3" font-family="Times,serif" font-size="14.00">f4qcm</text>
</g>
<!-- xcnst&#45;&gt;f4qcm -->
<g id="edge11" class="edge">
<title>xcnst&#45;&gt;f4qcm</title>
<path fill="none" stroke="black" d="M323.76,-289.12C331.07,-280.29 340.32,-269.13 348.51,-259.24"/>
<polygon fill="black" stroke="black" points="351.4,-261.24 355.09,-251.31 346.01,-256.77 351.4,-261.24"/>
</g>
<!-- zmat -->
<g id="node10" class="node">
<title>zmat</title>
<ellipse fill="none" stroke="black" cx="277.6" cy="-234" rx="33.6" ry="18"/>
<text text-anchor="middle" x="277.6" y="-230.3" font-family="Times,serif" font-size="14.00">zmat</text>
</g>
<!-- xcnst&#45;&gt;zmat -->
<g id="edge12" class="edge">
<title>xcnst&#45;&gt;zmat</title>
<path fill="none" stroke="black" d="M302.78,-288.41C298.93,-280.25 294.2,-270.22 289.89,-261.07"/>
<polygon fill="black" stroke="black" points="293.02,-259.51 285.59,-251.96 286.69,-262.49 293.02,-259.51"/>
</g>
<!-- wila -->
<g id="node11" class="node">
<title>wila</title>
<ellipse fill="none" stroke="black" cx="195.6" cy="-234" rx="29.8" ry="18"/>
<text text-anchor="middle" x="195.6" y="-230.3" font-family="Times,serif" font-size="14.00">wila</text>
</g>
<!-- xcnst&#45;&gt;wila -->
<g id="edge13" class="edge">
<title>xcnst&#45;&gt;wila</title>
<path fill="none" stroke="black" d="M288.7,-291.67C270.5,-280.59 244.46,-264.74 224.54,-252.62"/>
<polygon fill="black" stroke="black" points="226.24,-249.55 215.87,-247.34 222.6,-255.53 226.24,-249.55"/>
</g>
<!-- coriolis -->
<g id="node15" class="node">
<title>coriolis</title>
<ellipse fill="none" stroke="black" cx="720.6" cy="-162" rx="44.39" ry="18"/>
<text text-anchor="middle" x="720.6" y="-158.3" font-family="Times,serif" font-size="14.00">coriolis</text>
</g>
<!-- restst&#45;&gt;coriolis -->
<g id="edge17" class="edge">
<title>restst&#45;&gt;coriolis</title>
<path fill="none" stroke="black" d="M493.25,-222.02C499.27,-219.89 505.61,-217.77 511.6,-216 579.84,-195.86 598.99,-198.88 667.6,-180 670.96,-179.07 674.43,-178.07 677.91,-177.03"/>
<polygon fill="black" stroke="black" points="679.12,-180.32 687.65,-174.04 677.06,-173.63 679.12,-180.32"/>
</g>
<!-- fermi1 -->
<g id="node16" class="node">
<title>fermi1</title>
<ellipse fill="none" stroke="black" cx="824.6" cy="-162" rx="41.69" ry="18"/>
<text text-anchor="middle" x="824.6" y="-158.3" font-family="Times,serif" font-size="14.00">fermi1</text>
</g>
<!-- restst&#45;&gt;fermi1 -->
<g id="edge18" class="edge">
<title>restst&#45;&gt;fermi1</title>
<path fill="none" stroke="black" d="M493.13,-221.6C499.16,-219.5 505.53,-217.5 511.6,-216 625.72,-187.85 659.13,-206.7 773.6,-180 777.02,-179.2 780.54,-178.27 784.05,-177.26"/>
<polygon fill="black" stroke="black" points="785.31,-180.54 793.85,-174.27 783.26,-173.85 785.31,-180.54"/>
</g>
<!-- fermi2 -->
<g id="node17" class="node">
<title>fermi2</title>
<ellipse fill="none" stroke="black" cx="925.6" cy="-162" rx="41.69" ry="18"/>
<text text-anchor="middle" x="925.6" y="-158.3" font-family="Times,serif" font-size="14.00">fermi2</text>
</g>
<!-- restst&#45;&gt;fermi2 -->
<g id="edge19" class="edge">
<title>restst&#45;&gt;fermi2</title>
<path fill="none" stroke="black" d="M492.59,-221.59C498.77,-219.44 505.34,-217.42 511.6,-216 670.15,-180.08 716.71,-214.39 875.6,-180 878.97,-179.27 882.43,-178.39 885.88,-177.41"/>
<polygon fill="black" stroke="black" points="886.96,-180.74 895.5,-174.47 884.92,-174.05 886.96,-180.74"/>
</g>
<!-- darling -->
<g id="node18" class="node">
<title>darling</title>
<ellipse fill="none" stroke="black" cx="118.6" cy="-162" rx="44.39" ry="18"/>
<text text-anchor="middle" x="118.6" y="-158.3" font-family="Times,serif" font-size="14.00">darling</text>
</g>
<!-- restst&#45;&gt;darling -->
<g id="edge20" class="edge">
<title>restst&#45;&gt;darling</title>
<path fill="none" stroke="black" d="M436.05,-221.64C430.03,-219.53 423.66,-217.52 417.6,-216 310.43,-189.07 279.24,-204.96 171.6,-180 168.15,-179.2 164.61,-178.28 161.06,-177.3"/>
<polygon fill="black" stroke="black" points="161.74,-173.85 151.16,-174.37 159.76,-180.56 161.74,-173.85"/>
</g>
<!-- states -->
<g id="node19" class="node">
<title>states</title>
<ellipse fill="none" stroke="black" cx="219.6" cy="-162" rx="38.99" ry="18"/>
<text text-anchor="middle" x="219.6" y="-158.3" font-family="Times,serif" font-size="14.00">states</text>
</g>
<!-- restst&#45;&gt;states -->
<g id="edge21" class="edge">
<title>restst&#45;&gt;states</title>
<path fill="none" stroke="black" d="M435.68,-221.97C429.74,-219.86 423.5,-217.77 417.6,-216 351.93,-196.31 333.33,-199.47 267.6,-180 264.64,-179.12 261.6,-178.17 258.55,-177.18"/>
<polygon fill="black" stroke="black" points="259.48,-173.8 248.88,-173.92 257.24,-180.43 259.48,-173.8"/>
</g>
<!-- modes -->
<g id="node20" class="node">
<title>modes</title>
<ellipse fill="none" stroke="black" cx="317.6" cy="-162" rx="40.89" ry="18"/>
<text text-anchor="middle" x="317.6" y="-158.3" font-family="Times,serif" font-size="14.00">modes</text>
</g>
<!-- restst&#45;&gt;modes -->
<g id="edge22" class="edge">
<title>restst&#45;&gt;modes</title>
<path fill="none" stroke="black" d="M438.66,-220.65C415.02,-209.39 379.88,-192.66 353.54,-180.12"/>
<polygon fill="black" stroke="black" points="354.81,-176.84 344.27,-175.7 351.8,-183.16 354.81,-176.84"/>
</g>
<!-- ifunda -->
<g id="node21" class="node">
<title>ifunda</title>
<ellipse fill="none" stroke="black" cx="416.6" cy="-162" rx="40.09" ry="18"/>
<text text-anchor="middle" x="416.6" y="-158.3" font-family="Times,serif" font-size="14.00">ifunda</text>
</g>
<!-- restst&#45;&gt;ifunda -->
<g id="edge23" class="edge">
<title>restst&#45;&gt;ifunda</title>
<path fill="none" stroke="black" d="M453.46,-216.76C447.61,-208.23 440.31,-197.58 433.75,-188.02"/>
<polygon fill="black" stroke="black" points="436.55,-185.9 428,-179.63 430.77,-189.86 436.55,-185.9"/>
</g>
<!-- iovrtn -->
<g id="node22" class="node">
<title>iovrtn</title>
<ellipse fill="none" stroke="black" cx="513.6" cy="-162" rx="38.19" ry="18"/>
<text text-anchor="middle" x="513.6" y="-158.3" font-family="Times,serif" font-size="14.00">iovrtn</text>
</g>
<!-- restst&#45;&gt;iovrtn -->
<g id="edge24" class="edge">
<title>restst&#45;&gt;iovrtn</title>
<path fill="none" stroke="black" d="M475.96,-216.76C481.94,-208.23 489.39,-197.58 496.08,-188.02"/>
<polygon fill="black" stroke="black" points="499.09,-189.83 501.95,-179.63 493.35,-185.82 499.09,-189.83"/>
</g>
<!-- icombn -->
<g id="node23" class="node">
<title>icombn</title>
<ellipse fill="none" stroke="black" cx="614.6" cy="-162" rx="44.39" ry="18"/>
<text text-anchor="middle" x="614.6" y="-158.3" font-family="Times,serif" font-size="14.00">icombn</text>
</g>
<!-- restst&#45;&gt;icombn -->
<g id="edge25" class="edge">
<title>restst&#45;&gt;icombn</title>
<path fill="none" stroke="black" d="M490.73,-220.81C514.75,-209.59 550.63,-192.85 577.6,-180.26"/>
<polygon fill="black" stroke="black" points="579.15,-183.4 586.74,-176 576.19,-177.06 579.15,-183.4"/>
</g>
<!-- lxm -->
<g id="node12" class="node">
<title>lxm</title>
<ellipse fill="none" stroke="black" cx="28.6" cy="-162" rx="27.9" ry="18"/>
<text text-anchor="middle" x="28.6" y="-158.3" font-family="Times,serif" font-size="14.00">lxm</text>
</g>
<!-- wila&#45;&gt;lxm -->
<g id="edge14" class="edge">
<title>wila&#45;&gt;lxm</title>
<path fill="none" stroke="black" d="M172.14,-222.62C167.03,-220.4 161.64,-218.1 156.6,-216 116.43,-199.31 105.6,-197.09 65.6,-180 63.74,-179.21 61.85,-178.38 59.93,-177.54"/>
<polygon fill="black" stroke="black" points="60.98,-174.17 50.42,-173.26 58.11,-180.56 60.98,-174.17"/>
</g>
<!-- fxm -->
<g id="node13" class="node">
<title>fxm</title>
<ellipse fill="none" stroke="black" cx="28.6" cy="-90" rx="28.7" ry="18"/>
<text text-anchor="middle" x="28.6" y="-86.3" font-family="Times,serif" font-size="14.00">fxm</text>
</g>
<!-- lxm&#45;&gt;fxm -->
<g id="edge15" class="edge">
<title>lxm&#45;&gt;fxm</title>
<path fill="none" stroke="black" d="M28.6,-143.7C28.6,-135.98 28.6,-126.71 28.6,-118.11"/>
<polygon fill="black" stroke="black" points="32.1,-118.1 28.6,-108.1 25.1,-118.1 32.1,-118.1"/>
</g>
<!-- fc2 -->
<g id="node14" class="node">
<title>fc2</title>
<ellipse fill="none" stroke="black" cx="28.6" cy="-18" rx="27" ry="18"/>
<text text-anchor="middle" x="28.6" y="-14.3" font-family="Times,serif" font-size="14.00">fc2</text>
</g>
<!-- fxm&#45;&gt;fc2 -->
<g id="edge16" class="edge">
<title>fxm&#45;&gt;fc2</title>
<path fill="none" stroke="black" d="M28.6,-71.7C28.6,-63.98 28.6,-54.71 28.6,-46.11"/>
<polygon fill="black" stroke="black" points="32.1,-46.1 28.6,-36.1 25.1,-46.1 32.1,-46.1"/>
</g>
</g>
</svg>
