<?xml version="1.0" encoding="UTF-8" standalone="no"?>
<!-- Created with Inkscape (http://www.inkscape.org/) -->

<svg
   version="1.1"
   id="svg2"
   width="790.66669"
   height="442.66666"
   viewBox="0 0 790.66669 442.66666"
   sodipodi:docname="debugging.svg"
   inkscape:version="1.2.1 (9c6d41e410, 2022-07-14, custom)"
   xmlns:inkscape="http://www.inkscape.org/namespaces/inkscape"
   xmlns:sodipodi="http://sodipodi.sourceforge.net/DTD/sodipodi-0.dtd"
   xmlns="http://www.w3.org/2000/svg"
   xmlns:svg="http://www.w3.org/2000/svg">
  <defs
     id="defs6" />
  <sodipodi:namedview
     id="namedview4"
     pagecolor="#ffffff"
     bordercolor="#666666"
     borderopacity="1.0"
     inkscape:showpageshadow="2"
     inkscape:pageopacity="0.0"
     inkscape:pagecheckerboard="0"
     inkscape:deskcolor="#d1d1d1"
     showgrid="false"
     inkscape:zoom="1.0662651"
     inkscape:cx="554.7401"
     inkscape:cy="267.28813"
     inkscape:window-width="1914"
     inkscape:window-height="1053"
     inkscape:window-x="0"
     inkscape:window-y="21"
     inkscape:window-maximized="1"
     inkscape:current-layer="g10">
    <inkscape:page
       x="0"
       y="0"
       id="page8"
       width="790.66669"
       height="442.66666" />
  </sodipodi:namedview>
  <g
     id="g10"
     inkscape:groupmode="layer"
     inkscape:label="Page 1"
     transform="matrix(1.3333333,0,0,1.3333333,0,1.44e-5)">
    <g
       id="g12">
      <path
         d="m 419.293,58 c 0,9.941 -15.398,18 -34.395,18 -18.996,0 -34.394,-8.059 -34.394,-18 0,-9.941 15.398,-18 34.394,-18 18.997,0 34.395,8.059 34.395,18"
         style="fill:none;stroke:#000000;stroke-width:1;stroke-linecap:butt;stroke-linejoin:miter;stroke-miterlimit:10;stroke-dasharray:none;stroke-opacity:1"
         id="path14" />
      <text
         xml:space="preserve"
         transform="translate(366.39844,61.699219)"
         style="font-variant:normal;font-weight:normal;font-size:14.0002px;font-family:'DejaVu Serif';-inkscape-font-specification:DejaVuSerif;writing-mode:lr-tb;fill:#000000;fill-opacity:1;fill-rule:nonzero;stroke:none"
         id="text18"><tspan
           x="0 7.504951 15.751805 22.500307 29.248806"
           y="0"
           sodipodi:role="line"
           id="tspan16">corrs</tspan></text>
      <path
         d="m 422.793,130 c 0,9.941 -16.969,18 -37.895,18 -20.929,0 -37.894,-8.059 -37.894,-18 0,-9.941 16.965,-18 37.894,-18 20.926,0 37.895,8.059 37.895,18"
         style="fill:none;stroke:#000000;stroke-width:1;stroke-linecap:butt;stroke-linejoin:miter;stroke-miterlimit:10;stroke-dasharray:none;stroke-opacity:1"
         id="path20" />
      <text
         xml:space="preserve"
         transform="translate(363.89844,133.69922)"
         style="font-variant:normal;font-weight:normal;font-size:14.0002px;font-family:'DejaVu Serif';-inkscape-font-specification:DejaVuSerif;writing-mode:lr-tb;fill:#000000;fill-opacity:1;fill-rule:nonzero;stroke:none"
         id="text24"><tspan
           x="0 8.2432995 17.260059 23.994558 32.998631"
           y="0"
           sodipodi:role="line"
           id="tspan22">enrgy</tspan></text>
      <path
         d="m 384.898,76.305 c 0,7.711 0,16.984 0,25.582"
         style="fill:none;stroke:#000000;stroke-width:1;stroke-linecap:butt;stroke-linejoin:miter;stroke-miterlimit:10;stroke-dasharray:none;stroke-opacity:1"
         id="path26" />
      <path
         d="m 388.398,101.895 -3.5,10 -3.5,-10 z"
         style="fill:#000000;fill-opacity:1;fill-rule:nonzero;stroke:#000000;stroke-width:1;stroke-linecap:butt;stroke-linejoin:miter;stroke-miterlimit:10;stroke-dasharray:none;stroke-opacity:1"
         id="path28" />
      <path
         d="m 99.691,274 c 0,9.941 -13.339,18 -29.793,18 -16.457,0 -29.796,-8.059 -29.796,-18 0,-9.941 13.339,-18 29.796,-18 16.454,0 29.793,8.059 29.793,18"
         style="fill:none;stroke:#000000;stroke-width:1;stroke-linecap:butt;stroke-linejoin:miter;stroke-miterlimit:10;stroke-dasharray:none;stroke-opacity:1"
         id="path30" />
      <text
         xml:space="preserve"
         transform="translate(54.898438,277.69922)"
         style="font-variant:normal;font-weight:normal;font-size:14.0002px;font-family:'DejaVu Serif';-inkscape-font-specification:DejaVuSerif;writing-mode:lr-tb;fill:#000000;fill-opacity:1;fill-rule:nonzero;stroke:none"
         id="text34"><tspan
           x="0 5.2517323 12.000233 20.243532"
           y="0"
           sodipodi:role="line"
           id="tspan32">freq</tspan></text>
      <path
         d="M 352.047,138.984 C 317.75,147.875 262.805,163.711 217.898,184 173.574,204.027 125.996,234.41 97.086,253.98"
         style="fill:none;stroke:#000000;stroke-width:1;stroke-linecap:butt;stroke-linejoin:miter;stroke-miterlimit:10;stroke-dasharray:none;stroke-opacity:1"
         id="path36" />
      <path
         d="m 98.969,256.934 -10.231,2.754 6.282,-8.532 z"
         style="fill:#000000;fill-opacity:1;fill-rule:nonzero;stroke:#000000;stroke-width:1;stroke-linecap:butt;stroke-linejoin:miter;stroke-miterlimit:10;stroke-dasharray:none;stroke-opacity:1"
         id="path38" />
      <path
         d="m 298.895,202 c 0,9.941 -16.118,18 -35.997,18 -19.878,0 -35.996,-8.059 -35.996,-18 0,-9.941 16.118,-18 35.996,-18 19.879,0 35.997,8.059 35.997,18"
         style="fill:none;stroke:#000000;stroke-width:1;stroke-linecap:butt;stroke-linejoin:miter;stroke-miterlimit:10;stroke-dasharray:none;stroke-opacity:1"
         id="path40" />
      <text
         xml:space="preserve"
         transform="translate(243.39844,205.69922)"
         style="font-variant:normal;font-weight:normal;font-size:14.0002px;font-family:'DejaVu Serif';-inkscape-font-specification:DejaVuSerif;writing-mode:lr-tb;fill:#000000;fill-opacity:1;fill-rule:nonzero;stroke:none"
         id="text44"><tspan
           x="0 8.2456512 15.750603 24.767361 32.246063"
           y="0"
           sodipodi:role="line"
           id="tspan42">xcnst</tspan></text>
      <path
         d="m 361.664,144.332 c -19.031,10.918 -46.148,26.477 -67.152,38.527"
         style="fill:none;stroke:#000000;stroke-width:1;stroke-linecap:butt;stroke-linejoin:miter;stroke-miterlimit:10;stroke-dasharray:none;stroke-opacity:1"
         id="path46" />
      <path
         d="m 296.047,186.016 -10.414,1.941 6.929,-8.016 z"
         style="fill:#000000;fill-opacity:1;fill-rule:nonzero;stroke:#000000;stroke-width:1;stroke-linecap:butt;stroke-linejoin:miter;stroke-miterlimit:10;stroke-dasharray:none;stroke-opacity:1"
         id="path48" />
      <path
         d="m 389.191,202 c 0,9.941 -16.25,18 -36.293,18 -20.046,0 -36.296,-8.059 -36.296,-18 0,-9.941 16.25,-18 36.296,-18 20.043,0 36.293,8.059 36.293,18"
         style="fill:none;stroke:#000000;stroke-width:1;stroke-linecap:butt;stroke-linejoin:miter;stroke-miterlimit:10;stroke-dasharray:none;stroke-opacity:1"
         id="path50" />
      <text
         xml:space="preserve"
         transform="translate(332.89844,205.69922)"
         style="font-variant:normal;font-weight:normal;font-size:14.0002px;font-family:'DejaVu Serif';-inkscape-font-specification:DejaVuSerif;writing-mode:lr-tb;fill:#000000;fill-opacity:1;fill-rule:nonzero;stroke:none"
         id="text54"><tspan
           x="0 9.0040712 16.495022 25.51178 33.004482"
           y="0"
           sodipodi:role="line"
           id="tspan52">gcnst</tspan></text>
      <path
         d="m 377.152,147.945 c -3.695,8.082 -8.199,17.934 -12.316,26.942"
         style="fill:none;stroke:#000000;stroke-width:1;stroke-linecap:butt;stroke-linejoin:miter;stroke-miterlimit:10;stroke-dasharray:none;stroke-opacity:1"
         id="path56" />
      <path
         d="m 367.914,176.57 -7.34,7.641 0.973,-10.551 z"
         style="fill:#000000;fill-opacity:1;fill-rule:nonzero;stroke:#000000;stroke-width:1;stroke-linecap:butt;stroke-linejoin:miter;stroke-miterlimit:10;stroke-dasharray:none;stroke-opacity:1"
         id="path58" />
      <path
         d="m 455.09,274 c 0,9.941 -17.098,18 -38.192,18 -21.093,0 -38.195,-8.059 -38.195,-18 0,-9.941 17.102,-18 38.195,-18 21.094,0 38.192,8.059 38.192,18"
         style="fill:none;stroke:#000000;stroke-width:1;stroke-linecap:butt;stroke-linejoin:miter;stroke-miterlimit:10;stroke-dasharray:none;stroke-opacity:1"
         id="path60" />
      <text
         xml:space="preserve"
         transform="translate(395.39844,277.69922)"
         style="font-variant:normal;font-weight:normal;font-size:14.0002px;font-family:'DejaVu Serif';-inkscape-font-specification:DejaVuSerif;writing-mode:lr-tb;fill:#000000;fill-opacity:1;fill-rule:nonzero;stroke:none"
         id="text64"><tspan
           x="0 6.7485003 15.033801 22.498501 28.502583 35.995285"
           y="0"
           sodipodi:role="line"
           id="tspan62">restst</tspan></text>
      <path
         d="m 389.246,148.156 c 2.59,10.36 5.899,23.84 8.652,35.844 4.739,20.66 9.727,44.109 13.403,61.75"
         style="fill:none;stroke:#000000;stroke-width:1;stroke-linecap:butt;stroke-linejoin:miter;stroke-miterlimit:10;stroke-dasharray:none;stroke-opacity:1"
         id="path66" />
      <path
         d="m 414.805,245.402 -1.399,10.504 -5.457,-9.082 z"
         style="fill:#000000;fill-opacity:1;fill-rule:nonzero;stroke:#000000;stroke-width:1;stroke-linecap:butt;stroke-linejoin:miter;stroke-miterlimit:10;stroke-dasharray:none;stroke-opacity:1"
         id="path68" />
      <path
         d="m 552.691,274 c 0,9.941 -17.816,18 -39.793,18 -21.976,0 -39.793,-8.059 -39.793,-18 0,-9.941 17.817,-18 39.793,-18 21.977,0 39.793,8.059 39.793,18"
         style="fill:none;stroke:#000000;stroke-width:1;stroke-linecap:butt;stroke-linejoin:miter;stroke-miterlimit:10;stroke-dasharray:none;stroke-opacity:1"
         id="path70" />
      <text
         xml:space="preserve"
         transform="translate(490.39844,277.69922)"
         style="font-variant:normal;font-weight:normal;font-size:14.0002px;font-family:'DejaVu Serif';-inkscape-font-specification:DejaVuSerif;writing-mode:lr-tb;fill:#000000;fill-opacity:1;fill-rule:nonzero;stroke:none"
         id="text74"><tspan
           x="0 5.2517323 14.243115 23.247187 30.752138"
           y="0"
           sodipodi:role="line"
           id="tspan72">f3qcm</tspan></text>
      <path
         d="m 399.086,146.738 c 22.488,24.95 66.457,73.727 92.672,102.809"
         style="fill:none;stroke:#000000;stroke-width:1;stroke-linecap:butt;stroke-linejoin:miter;stroke-miterlimit:10;stroke-dasharray:none;stroke-opacity:1"
         id="path76" />
      <path
         d="m 494.551,247.418 4.097,9.773 -9.296,-5.086 z"
         style="fill:#000000;fill-opacity:1;fill-rule:nonzero;stroke:#000000;stroke-width:1;stroke-linecap:butt;stroke-linejoin:miter;stroke-miterlimit:10;stroke-dasharray:none;stroke-opacity:1"
         id="path78" />
      <path
         d="m 536.898,202 c 0,9.941 -12.089,18 -27,18 -14.914,0 -27,-8.059 -27,-18 0,-9.941 12.086,-18 27,-18 14.911,0 27,8.059 27,18"
         style="fill:none;stroke:#000000;stroke-width:1;stroke-linecap:butt;stroke-linejoin:miter;stroke-miterlimit:10;stroke-dasharray:none;stroke-opacity:1"
         id="path80" />
      <text
         xml:space="preserve"
         transform="translate(500.89844,205.69922)"
         style="font-variant:normal;font-weight:normal;font-size:14.0002px;font-family:'DejaVu Serif';-inkscape-font-specification:DejaVuSerif;writing-mode:lr-tb;fill:#000000;fill-opacity:1;fill-rule:nonzero;stroke:none"
         id="text84"><tspan
           x="0 8.2432995"
           y="0"
           sodipodi:role="line"
           id="tspan82">e0</tspan></text>
      <path
         d="m 408.41,144.168 c 20.543,11.504 50.445,28.25 72.473,40.586"
         style="fill:none;stroke:#000000;stroke-width:1;stroke-linecap:butt;stroke-linejoin:miter;stroke-miterlimit:10;stroke-dasharray:none;stroke-opacity:1"
         id="path86" />
      <path
         d="m 482.777,181.801 7.016,7.941 -10.438,-1.832 z"
         style="fill:#000000;fill-opacity:1;fill-rule:nonzero;stroke:#000000;stroke-width:1;stroke-linecap:butt;stroke-linejoin:miter;stroke-miterlimit:10;stroke-dasharray:none;stroke-opacity:1"
         id="path88" />
      <path
         d="m 233.41,212.375 c -31.187,10.094 -81.695,26.957 -124.512,43.625 -2.07,0.805 -4.191,1.656 -6.324,2.531"
         style="fill:none;stroke:#000000;stroke-width:1;stroke-linecap:butt;stroke-linejoin:miter;stroke-miterlimit:10;stroke-dasharray:none;stroke-opacity:1"
         id="path90" />
      <path
         d="m 103.855,261.789 -10.574,0.656 7.856,-7.105 z"
         style="fill:#000000;fill-opacity:1;fill-rule:nonzero;stroke:#000000;stroke-width:1;stroke-linecap:butt;stroke-linejoin:miter;stroke-miterlimit:10;stroke-dasharray:none;stroke-opacity:1"
         id="path92" />
      <path
         d="m 288.672,214.715 c 25.312,11.508 64.133,29.152 92.43,42.015"
         style="fill:none;stroke:#000000;stroke-width:1;stroke-linecap:butt;stroke-linejoin:miter;stroke-miterlimit:10;stroke-dasharray:none;stroke-opacity:1"
         id="path94" />
      <path
         d="m 382.605,253.57 7.657,7.325 -10.551,-0.954 z"
         style="fill:#000000;fill-opacity:1;fill-rule:nonzero;stroke:#000000;stroke-width:1;stroke-linecap:butt;stroke-linejoin:miter;stroke-miterlimit:10;stroke-dasharray:none;stroke-opacity:1"
         id="path96" />
      <path
         d="m 289.82,213.844 c 5.907,2.187 12.164,4.367 18.078,6.156 68.102,20.621 87.622,16.309 156,36 3.114,0.898 6.321,1.879 9.536,2.902"
         style="fill:none;stroke:#000000;stroke-width:1;stroke-linecap:butt;stroke-linejoin:miter;stroke-miterlimit:10;stroke-dasharray:none;stroke-opacity:1"
         id="path98" />
      <path
         d="m 474.602,255.602 8.398,6.457 -10.594,0.191 z"
         style="fill:#000000;fill-opacity:1;fill-rule:nonzero;stroke:#000000;stroke-width:1;stroke-linecap:butt;stroke-linejoin:miter;stroke-miterlimit:10;stroke-dasharray:none;stroke-opacity:1"
         id="path100" />
      <path
         d="m 197.691,274 c 0,9.941 -17.816,18 -39.793,18 -21.976,0 -39.793,-8.059 -39.793,-18 0,-9.941 17.817,-18 39.793,-18 21.977,0 39.793,8.059 39.793,18"
         style="fill:none;stroke:#000000;stroke-width:1;stroke-linecap:butt;stroke-linejoin:miter;stroke-miterlimit:10;stroke-dasharray:none;stroke-opacity:1"
         id="path102" />
      <text
         xml:space="preserve"
         transform="translate(135.39844,277.69922)"
         style="font-variant:normal;font-weight:normal;font-size:14.0002px;font-family:'DejaVu Serif';-inkscape-font-specification:DejaVuSerif;writing-mode:lr-tb;fill:#000000;fill-opacity:1;fill-rule:nonzero;stroke:none"
         id="text106"><tspan
           x="0 5.2517323 14.243115 23.247187 30.752138"
           y="0"
           sodipodi:role="line"
           id="tspan104">f4qcm</tspan></text>
      <path
         d="m 242.152,216.828 c -15.472,10.317 -36.836,24.559 -54.183,36.121"
         style="fill:none;stroke:#000000;stroke-width:1;stroke-linecap:butt;stroke-linejoin:miter;stroke-miterlimit:10;stroke-dasharray:none;stroke-opacity:1"
         id="path108" />
      <path
         d="m 189.582,256.082 -10.262,2.637 6.379,-8.461 z"
         style="fill:#000000;fill-opacity:1;fill-rule:nonzero;stroke:#000000;stroke-width:1;stroke-linecap:butt;stroke-linejoin:miter;stroke-miterlimit:10;stroke-dasharray:none;stroke-opacity:1"
         id="path110" />
      <path
         d="m 282.492,274 c 0,9.941 -15.039,18 -33.594,18 -18.554,0 -33.597,-8.059 -33.597,-18 0,-9.941 15.043,-18 33.597,-18 18.555,0 33.594,8.059 33.594,18"
         style="fill:none;stroke:#000000;stroke-width:1;stroke-linecap:butt;stroke-linejoin:miter;stroke-miterlimit:10;stroke-dasharray:none;stroke-opacity:1"
         id="path112" />
      <text
         xml:space="preserve"
         transform="translate(230.89844,277.69922)"
         style="font-variant:normal;font-weight:normal;font-size:14.0002px;font-family:'DejaVu Serif';-inkscape-font-specification:DejaVuSerif;writing-mode:lr-tb;fill:#000000;fill-opacity:1;fill-rule:nonzero;stroke:none"
         id="text116"><tspan
           x="0 7.5021071 21.001734 29.250557"
           y="0"
           sodipodi:role="line"
           id="tspan114">zmat</tspan></text>
      <path
         d="m 259.508,219.945 c -1.543,7.711 -3.406,17.028 -5.137,25.692"
         style="fill:none;stroke:#000000;stroke-width:1;stroke-linecap:butt;stroke-linejoin:miter;stroke-miterlimit:10;stroke-dasharray:none;stroke-opacity:1"
         id="path118" />
      <path
         d="m 257.746,246.605 -5.394,9.122 -1.469,-10.493 z"
         style="fill:#000000;fill-opacity:1;fill-rule:nonzero;stroke:#000000;stroke-width:1;stroke-linecap:butt;stroke-linejoin:miter;stroke-miterlimit:10;stroke-dasharray:none;stroke-opacity:1"
         id="path120" />
      <path
         d="m 360.691,274 c 0,9.941 -13.339,18 -29.793,18 -16.457,0 -29.796,-8.059 -29.796,-18 0,-9.941 13.339,-18 29.796,-18 16.454,0 29.793,8.059 29.793,18"
         style="fill:none;stroke:#000000;stroke-width:1;stroke-linecap:butt;stroke-linejoin:miter;stroke-miterlimit:10;stroke-dasharray:none;stroke-opacity:1"
         id="path122" />
      <text
         xml:space="preserve"
         transform="translate(315.89844,277.69922)"
         style="font-variant:normal;font-weight:normal;font-size:14.0002px;font-family:'DejaVu Serif';-inkscape-font-specification:DejaVuSerif;writing-mode:lr-tb;fill:#000000;fill-opacity:1;fill-rule:nonzero;stroke:none"
         id="text126"><tspan
           x="0 11.983607 16.503225 20.980843"
           y="0"
           sodipodi:role="line"
           id="tspan124">wila</tspan></text>
      <path
         d="m 277.988,218.535 c 9.196,9.465 21.094,21.711 31.278,32.195"
         style="fill:none;stroke:#000000;stroke-width:1;stroke-linecap:butt;stroke-linejoin:miter;stroke-miterlimit:10;stroke-dasharray:none;stroke-opacity:1"
         id="path128" />
      <path
         d="m 311.859,248.379 4.457,9.609 -9.48,-4.734 z"
         style="fill:#000000;fill-opacity:1;fill-rule:nonzero;stroke:#000000;stroke-width:1;stroke-linecap:butt;stroke-linejoin:miter;stroke-miterlimit:10;stroke-dasharray:none;stroke-opacity:1"
         id="path130" />
    </g>
    <path
       style="fill:#ff0000;stroke:#ff0000;stroke-width:0.75"
       id="path371"
       d="m 42.089048,240.31132 c 4.314895,7.00602 8.258008,14.23217 12.40277,21.33858 3.860813,6.61957 3.679925,6.2416 7.573381,12.54909 4.154897,6.83018 8.798486,13.32717 13.794138,19.56103 2.930865,3.3077 5.729363,6.72252 8.447858,10.20569 0,0 6.197617,-3.7039 6.197617,-3.7039 v 0 c -2.801145,-3.42174 -5.561625,-6.87781 -8.503897,-10.1811 -5.102633,-6.12589 -9.876847,-12.52053 -14.231762,-19.20233 -1.246317,-1.96091 -2.522676,-3.90304 -3.738951,-5.88272 -5.638677,-9.17783 -10.803538,-18.66047 -15.50967,-28.3475 0,0 -6.431484,3.66316 -6.431484,3.66316 z" />
    <path
       style="fill:#ff0000;stroke:#ff0000;stroke-width:0.75"
       id="path373"
       d="m 39.317543,308.7987 c 0.193556,-0.77477 0.341126,-1.5625 0.580669,-2.32431 0.812713,-2.58463 1.694721,-4.53982 2.884254,-7.01402 1.19841,-2.49265 2.996736,-5.9177 4.401674,-8.28693 0.835293,-1.4086 1.746882,-2.77054 2.620323,-4.1558 4.120674,-6.11325 9.163116,-11.51342 14.145173,-16.91813 5.19504,-5.63577 3.630994,-3.94332 8.888675,-9.55935 7.663489,-8.1249 15.382541,-16.19672 23.178627,-24.19447 0,0 -6.462143,2.69146 -6.462143,2.69146 v 0 c -7.614585,8.02764 -15.284695,16.00238 -22.85686,24.07025 -3.250386,3.47343 -5.717499,6.10095 -8.950134,9.59099 -5.037639,5.43877 -10.108497,10.90022 -14.229273,17.09018 -4.358679,6.97604 -8.573073,14.24001 -10.822262,22.20709 0,0 6.621277,-3.19696 6.621277,-3.19696 z" />
    <path
       style="fill:#ff0000;stroke:#ff0000;stroke-width:0.75"
       id="path391"
       d="m 508.14198,177.51303 c -3.76913,-0.0497 -7.32749,0.55672 -10.97732,1.44316 -2.14393,0.58342 -4.27057,1.25455 -6.2006,2.38124 -5.9227,3.4575 -7.07378,3.63208 -10.71415,7.46812 -2.12505,2.42718 -3.34704,4.72154 -4.03073,7.85161 -0.47002,3.02462 0.45518,5.93175 1.4206,8.76082 0.97054,2.96816 2.98602,5.29834 5.04257,7.57131 3.04622,3.08923 6.67221,5.45916 10.41318,7.60719 3.85988,2.16911 8.21995,2.86741 12.56186,3.30146 5.56112,0.38602 11.12582,-0.15712 16.61578,-1.02024 2.5566,-0.49556 5.17959,-1.08109 7.45861,-2.40456 7.75353,-4.50265 5.58118,-2.65043 8.99478,-5.82968 2.82399,-2.89406 3.70959,-6.67007 4.19798,-10.54967 0.30964,-4.58914 -1.44344,-8.58996 -3.6103,-12.51422 -2.1955,-3.59906 -5.17548,-6.62829 -8.67729,-8.96886 -0.73111,-0.48867 -1.5007,-0.91717 -2.25105,-1.37576 -4.68561,-2.62315 -9.90905,-3.93072 -15.17565,-4.74081 -2.22444,-0.32747 -4.46767,-0.25919 -6.69875,-0.0769 0,0 -5.90664,4.38578 -5.90664,4.38578 v 0 c 2.22422,-0.281 4.46917,-0.42926 6.7047,-0.14789 5.22413,0.68315 10.40206,1.90323 15.05036,4.47517 0.73809,0.44303 1.49499,0.85613 2.21425,1.32909 3.43304,2.25749 6.35331,5.19638 8.48985,8.71153 2.09425,3.82258 3.74339,7.67404 3.34355,12.13503 -0.55116,3.88486 -1.48254,7.29127 -4.42671,10.08463 -2.74485,2.31747 -1.8912,1.44252 3.43714,-1.47846 0.51023,-0.2797 -1.00662,0.58676 -1.53232,0.83618 -1.85485,0.88004 -3.84786,1.40801 -5.85498,1.80121 -5.44905,0.93564 -10.97879,1.55975 -16.5151,1.1793 -4.25021,-0.41047 -8.52579,-1.02058 -12.33237,-3.09377 -3.7069,-2.06026 -7.3162,-4.33504 -10.2757,-7.4159 -1.9769,-2.20561 -3.88507,-4.49185 -4.85419,-7.34095 -0.93874,-2.7154 -1.78484,-5.51159 -1.20679,-8.40643 0.73159,-2.86999 2.06911,-5.28867 4.1158,-7.45539 0.44556,-0.442 0.8704,-0.90593 1.33669,-1.32601 0.48582,-0.43769 2.12411,-1.48599 1.51646,-1.24445 -1.58185,0.62882 -2.98688,1.63405 -4.49284,2.4276 -0.6263,0.33003 1.21385,-0.73348 1.8535,-1.03681 1.41808,-0.67247 2.77257,-1.03729 4.26713,-1.50616 3.507,-0.89744 7.04848,-1.57843 10.68946,-1.45152 0,0 6.00923,-4.36596 6.00923,-4.36596 z" />
    <path
       style="fill:#ff0000;stroke:#ff0000;stroke-width:0.75"
       id="path393"
       d="m 499.43213,182.70863 c -1.97525,-8.60778 -4.47447,-17.07237 -7.15711,-25.48203 -2.47217,-7.5535 -5.13921,-15.0415 -7.79503,-22.53184 0,0 -5.96143,3.30467 -5.96143,3.30467 v 0 c 2.77972,7.43129 5.44724,14.90309 7.8549,22.46468 2.62268,8.4321 5.18217,16.94066 6.47386,25.69674 0,0 6.58481,-3.45222 6.58481,-3.45222 z" />
    <path
       style="fill:#ff0000;stroke:#ff0000;stroke-width:0.75"
       id="path395"
       d="m 452.49313,119.40477 c 1.57317,-0.0208 3.23316,-0.16844 4.64474,-0.94906 4.18914,-2.31663 6.87193,-3.1288 9.44296,-6.32269 0.49744,-0.61795 0.90315,-1.30443 1.35473,-1.95665 1.82098,-3.27581 2.80138,-7.30811 1.01599,-10.843963 -0.26062,-0.516135 -0.66325,-0.94731 -0.99487,-1.420965 -1.14216,-0.731475 -1.61985,-1.435688 -3.14807,-0.617738 -2.78725,1.491825 -5.52703,3.115166 -8.03085,5.045236 -0.77482,0.59726 -1.17253,1.57247 -1.65682,2.42248 -1.41353,2.48094 -1.69974,3.74449 -2.63077,6.45831 -0.83063,3.01727 -1.29709,6.11418 -1.47934,9.23483 -0.0602,1.0296 -0.1291,2.69803 0.0882,3.76865 0.0905,0.44576 0.30089,0.85849 0.45134,1.28773 1.53422,2.12287 3.14419,2.47814 5.61918,2.26159 1.90478,-0.36037 3.7521,-0.95248 5.60087,-1.52279 0,0 5.74749,-4.45017 5.74749,-4.45017 v 0 c -1.79666,0.57869 -3.59383,1.16498 -5.43953,1.57206 -2.03618,0.31157 -3.69991,0.34049 -5.096,-1.42121 -0.13494,-0.36899 -0.32274,-0.72275 -0.40481,-1.10696 -0.21521,-1.00749 -0.19148,-2.63259 -0.15068,-3.59601 0.12928,-3.05187 0.58444,-6.07624 1.44839,-9.01084 0.96434,-2.61612 1.2931,-3.95924 2.79461,-6.3056 0.52284,-0.81704 2.76602,-2.217206 1.79857,-2.287646 -1.63332,-0.118927 -2.96525,1.391016 -4.44384,2.095036 -0.79664,0.3793 3.13607,-1.914788 2.64474,-0.10951 0.30753,0.40793 0.68577,0.77114 0.9226,1.22379 1.7471,3.33922 0.52795,7.18581 -1.27216,10.18679 -0.47183,0.6195 -0.89494,1.27935 -1.41551,1.85849 -0.4923,0.54769 -2.31369,1.73539 -1.61252,1.51023 1.64589,-0.52853 3.0735,-1.58672 4.56614,-2.4587 0.50958,-0.29769 -1.05314,0.54237 -1.61175,0.73278 -0.48716,0.16605 -0.99901,0.25578 -1.50822,0.33068 -0.39919,0.0587 -0.80566,0.046 -1.20849,0.0689 0,0 -6.03635,4.32292 -6.03635,4.32292 z" />
    <path
       style="fill:#ff0000;stroke:#ff0000;stroke-width:0.75"
       id="path397"
       d="m 479.69145,91.197472 c -0.15393,7.32648 -0.98061,14.625588 -1.83626,21.897868 -0.16231,1.26521 -0.32463,2.53043 -0.48694,3.79563 0,0 6.29025,-3.11191 6.29025,-3.11191 v 0 c 0.13692,-1.25396 0.27385,-2.50791 0.41077,-3.76187 0.80962,-7.38351 1.62012,-14.768826 2.2591,-22.169323 0,0 -6.63692,3.349605 -6.63692,3.349605 z" />
    <path
       style="fill:#ff0000;stroke:#ff0000;stroke-width:0.75"
       id="path399"
       d="m 515.07927,171.09743 c 1.53562,-10.7184 3.2091,-21.41622 4.7257,-32.13776 0.24918,-1.86565 0.49836,-3.73129 0.74754,-5.59693 0,0 -6.0794,3.00522 -6.0794,3.00522 v 0 c -0.2028,1.83946 -0.4056,3.67892 -0.60839,5.51838 -1.40571,10.86884 -3.10825,21.69951 -5.48526,32.40212 0,0 6.69981,-3.19103 6.69981,-3.19103 z" />
    <path
       style="fill:#ff0000;stroke:#ff0000;stroke-width:0.75"
       id="path401"
       d="m 515.07349,101.98562 c 1.49059,-0.32754 4.0977,-1.63088 5.60904,-1.06684 1.08939,0.40656 1.24148,1.21006 1.72806,2.1578 0.0872,0.63394 0.27159,1.26199 0.26172,1.90184 -0.0491,3.18093 -1.81772,6.85531 -3.23877,9.66268 -0.44663,0.95128 -1.06469,2.56611 -0.0589,3.44001 0.14026,0.12187 0.31581,0.19585 0.47372,0.29378 1.5299,0.41732 3.14174,0.40292 4.71633,0.41249 1.85939,-0.0695 3.71436,0.0194 5.56745,0.16367 0,0 6.01004,-4.29811 6.01004,-4.29811 v 0 c -1.8663,-0.13498 -3.73326,-0.29087 -5.60628,-0.19597 -1.49546,-0.0171 -2.99801,-0.04 -4.48276,-0.23377 -1.21472,-0.0556 -0.16208,-2.12453 0.0436,-2.60678 1.38625,-2.99503 3.0363,-6.67663 2.98684,-10.02515 -0.0106,-0.71749 -0.2259,-1.41726 -0.33885,-2.125888 -0.58789,-1.172295 -0.81765,-2.136443 -2.0648,-2.786985 -1.64578,-0.858473 -4.12675,0.439245 -5.75209,0.799372 0,0 -5.85435,4.507851 -5.85435,4.507851 z" />
    <path
       style="fill:#ff0000;stroke:#ff0000;stroke-width:0.75"
       id="path405"
       d="m 513.77006,95.436329 c -3.6818,0.9483 -7.56811,2.736413 -9.87654,5.834051 -0.64195,0.86143 -0.74038,1.16089 -1.21581,2.11014 -0.8311,1.76928 -0.895,3.60318 -0.30104,5.44021 0.51137,1.19251 1.67061,1.75067 2.82401,2.17361 2.47368,1.24553 9.21907,-4.28463 6.2257,-4.34588 -0.31153,-0.006 -0.62019,0.061 -0.93029,0.0915 -3.53212,1.23435 -6.81554,3.55796 -9.91215,5.42673 -0.98413,0.59392 -1.66087,1.31282 -2.27401,2.26039 -0.0923,0.28537 -0.24463,0.55792 -0.27695,0.85609 -0.16039,1.47987 0.78368,3.06982 1.79336,4.06578 0.29821,0.29415 0.64837,0.53049 0.97256,0.79573 2.52001,1.624 5.48535,1.7157 8.3812,1.51333 1.69094,-0.17834 3.30952,-0.69497 4.91359,-1.23031 0,0 5.80962,-4.52702 5.80962,-4.52702 v 0 c -1.57422,0.57527 -3.16657,1.12107 -4.82707,1.39099 -2.74148,0.30972 -5.57564,0.34818 -8.04491,-1.0674 -0.29669,-0.22488 -0.61782,-0.42072 -0.89008,-0.67462 -0.85189,-0.79442 -1.7226,-2.14895 -1.38153,-3.37452 0.0682,-0.24504 0.22957,-0.45396 0.34435,-0.68093 0.60807,-0.71205 0.536,-0.70107 1.32986,-1.30008 0.31998,-0.24145 1.34301,-0.87253 0.98976,-0.68306 -1.72365,0.9245 -3.401,1.93285 -5.1062,2.89094 -0.40523,0.22769 0.79254,-0.48769 1.20621,-0.69966 0.34972,-0.17921 0.72018,-0.31465 1.08027,-0.47198 0.23748,-0.097 0.46434,-0.22581 0.71244,-0.29109 0.11525,-0.0304 0.2557,0.0717 0.35741,0.01 12.84904,-7.8476 8.40041,-3.82754 5.69003,-4.15623 -0.95931,-0.23714 -2.03113,-0.59331 -2.46703,-1.55377 -0.53628,-1.67898 -0.32046,-3.30811 0.49963,-4.87464 0.48333,-0.839281 0.6338,-1.199663 1.28996,-1.932031 0.26049,-0.290745 1.19977,-0.97668 0.84774,-0.807975 -1.85671,0.889785 -3.60332,1.993095 -5.40397,2.991446 -0.29222,0.16202 0.57196,-0.34981 0.87864,-0.48243 0.25461,-0.1101 0.53085,-0.161223 0.79627,-0.241833 0,0 5.96497,-4.455075 5.96497,-4.455075 z" />
    <path
       style="fill:#ff0000;stroke:#ff0000;stroke-width:0.75"
       id="path407"
       d="m 539.68702,183.34017 c 4.79235,-6.28743 9.53892,-12.60941 14.32631,-18.90065 2.36005,-3.03289 4.68804,-6.09041 7.01064,-9.15199 0,0 -6.52618,2.8135 -6.52618,2.8135 v 0 c -2.24161,3.04307 -4.50022,6.07351 -6.81475,9.06179 -4.85791,6.40457 -9.65119,12.87002 -14.80617,19.04025 0,0 6.81015,-2.8629 6.81015,-2.8629 z" />
    <path
       style="fill:#ff0000;stroke:#ff0000;stroke-width:0.75"
       id="path409"
       d="m 563.73362,117.9035 c -2.05411,0.12407 -4.17619,0.008 -6.17808,0.58102 -3.1341,0.89818 -8.07145,4.59057 -9.43396,5.4323 -0.38408,0.52379 -0.82722,1.00902 -1.15224,1.57137 -1.00788,1.74378 -1.94771,4.82121 0.26101,6.15205 0.45633,0.27496 1.02393,0.29484 1.53589,0.44225 0.56479,-0.0604 1.13767,-0.0685 1.69438,-0.18123 3.01676,-0.61093 7.77723,-3.93829 9.18741,-5.15493 0.30723,-0.26505 -0.68646,-0.77922 -1.05441,-0.60822 -2.59758,1.20717 -4.88031,3.00019 -7.32045,4.50029 -2.09223,2.45971 -3.73975,6.14858 -2.17443,9.33936 0.29772,0.60687 0.81546,1.0783 1.22319,1.61746 1.57239,1.34703 3.42891,1.77123 5.38659,2.18694 0,0 5.97306,-4.17304 5.97306,-4.17304 v 0 c -1.8267,-0.29498 -3.58788,-0.58092 -5.11273,-1.73456 -0.36194,-0.45384 -0.82946,-0.8407 -1.08584,-1.36152 -1.1835,-2.4043 -0.0544,-5.40745 1.44306,-7.37239 0.34537,-0.4532 0.77496,-0.83554 1.16245,-1.2533 -1.78092,0.9505 -3.43138,2.20206 -5.34275,2.85151 -0.33296,0.11314 -0.23154,-0.84526 0.0517,-1.05369 1.84754,-1.35959 3.98178,-2.2791 5.98815,-3.39099 0.35377,-0.19604 -0.66543,0.4658 -1.02909,0.6428 -1.14972,0.5596 -1.75072,0.64167 -2.98035,0.94875 -0.42797,-0.0307 -0.88272,0.06 -1.2839,-0.0921 -2.11612,-0.80263 -0.62163,-4.0149 0.15972,-5.1628 0.35079,-0.51535 0.81517,-0.94344 1.22276,-1.41516 -12.84157,6.63388 -3.80767,1.91127 -3.12154,1.66935 1.90441,-0.67149 3.97826,-0.54518 5.95948,-0.60703 0,0 6.02093,-4.37446 6.02093,-4.37446 z" />
    <path
       style="fill:#ff0000;stroke:#ff0000;stroke-width:0.75"
       id="path411"
       d="m 567.28814,118.87243 c 2.90435,-0.83985 5.87016,-2.22705 8.9214,-2.40672 0.58363,-0.0344 1.16872,0.0367 1.75308,0.055 1.10509,0.2505 3.14493,0.57036 3.35582,2.07273 0.18795,1.33901 -1.54321,3.46415 -2.22476,4.4545 -0.8089,1.30921 -3.02226,2.92804 -2.65601,4.68124 0.14963,0.7162 0.66317,1.19934 1.10166,1.73508 1.94432,2.147 3.92714,4.84911 3.73553,7.91862 -0.04,0.64032 -0.28019,1.25217 -0.42029,1.87827 -0.95608,2.24011 -2.63596,3.98543 -4.56703,5.42247 -0.32206,0.23968 -1.34774,0.87149 -0.99876,0.67303 1.83798,-1.04525 3.6455,-2.1432 5.46825,-3.21479 -0.21507,0.10259 -0.43014,0.20518 -0.64521,0.30777 0,0 -5.8262,4.59802 -5.8262,4.59802 v 0 c 0.23856,-0.0881 0.47713,-0.17628 0.71569,-0.26442 4.02455,-2.3307 9.11506,-4.43054 11.5476,-8.78635 0.33832,-0.60582 0.55318,-1.27277 0.82977,-1.90916 0.10615,-0.68844 0.30952,-1.3688 0.31846,-2.06532 0.0409,-3.1818 -1.85466,-6.031 -3.82092,-8.35764 -0.24331,-0.29346 -0.76121,-0.78501 -0.80593,-1.24321 -0.12525,-1.28342 2.1286,-3.21797 2.67076,-4.28576 0.93454,-1.47577 2.39823,-3.31595 1.93056,-5.22968 -0.41889,-1.71407 -2.35422,-2.26197 -3.79284,-2.63137 -0.61367,-0.0515 -1.22523,-0.16175 -1.84102,-0.15436 -2.99329,0.0359 -6.00619,1.44858 -8.87432,2.19679 0,0 -5.87529,4.55528 -5.87529,4.55528 z" />
    <path
       style="fill:#ff0000;stroke:#ff0000;stroke-width:0.75"
       id="path413"
       d="m 490.719,78.133356 c -0.30716,0.315885 -0.63047,0.616838 -0.92149,0.947655 -2.03513,2.313435 -3.86977,4.816665 -5.78763,7.224901 -3.0399,3.81717 -2.70173,3.367027 -5.91211,7.222192 -5.84376,6.682886 -11.40385,13.603606 -17.08466,20.423366 -2.55071,3.05588 -1.34347,1.61935 -3.61861,4.31222 0,0 6.62487,-2.81631 6.62487,-2.81631 v 0 c 2.16092,-2.65226 1.0084,-1.23719 3.45737,-4.24536 5.59801,-6.83155 11.15323,-13.699508 16.95207,-20.363236 3.55143,-4.24527 2.62852,-3.111547 6.02332,-7.285725 1.99086,-2.447918 3.90781,-5.019143 6.13523,-7.26483 0.32266,-0.325313 0.68689,-0.606593 1.03033,-0.909885 0,0 -6.89869,2.755012 -6.89869,2.755012 z" />
    <path
       style="fill:#ff0000;stroke:#ff0000;stroke-width:0.75"
       id="path415"
       d="m 446.8992,76.548389 c 6.90615,9.456345 14.74965,18.19428 22.34083,27.099131 3.90135,4.56677 7.76658,9.16386 11.60615,13.7826 0,0 5.91145,-3.56361 5.91145,-3.56361 v 0 c -4.0287,-4.48776 -8.05982,-8.97385 -11.99687,-13.54274 -4.64269,-5.425918 -6.05234,-7.000506 -10.56122,-12.564096 -3.46864,-4.280033 -6.90257,-8.613495 -9.88474,-13.253284 -0.3478,-0.54111 -0.65327,-1.108278 -0.97991,-1.662417 0,0 -6.43569,3.704416 -6.43569,3.704416 z" />
    <path
       style="fill:#ff0000;stroke:#ff0000;stroke-width:0.75"
       id="path417"
       d="m 534.87322,90.053789 c -4.13743,3.358725 -8.04513,7.010768 -11.63016,10.955971 -2.53396,2.78854 -3.85749,4.50836 -6.21279,7.42012 -3.76302,4.89052 -7.4765,9.81865 -11.22288,14.72191 0,0 6.58267,-2.8354 6.58267,-2.8354 v 0 c 3.6245,-4.89121 7.26257,-9.77334 10.98347,-14.59179 2.39592,-2.9498 3.61423,-4.54321 6.21212,-7.355838 3.7072,-4.01364 7.75657,-7.72782 12.1203,-11.01651 0,0 -6.83273,2.701537 -6.83273,2.701537 z" />
    <path
       style="fill:#ff0000;stroke:#ff0000;stroke-width:0.75"
       id="path419"
       d="m 501.94249,80.198901 c 2.7773,5.653838 6.65811,10.682311 10.4143,15.702413 3.66674,4.900556 7.38291,9.763926 11.06952,14.649546 5.04299,6.68171 10.06098,13.382 14.99372,20.14555 0,0 6,-3.56863 6,-3.56863 v 0 c -5.25499,-6.54785 -10.5027,-13.10285 -15.57639,-19.79314 -3.83815,-5.11067 -7.20588,-9.518636 -10.89553,-14.732396 -3.56935,-5.043742 -7.23195,-10.205295 -9.49355,-16.000883 0,0 -6.51207,3.59754 -6.51207,3.59754 z" />
    <path
       style="fill:#ff0000;stroke:#ff0000;stroke-width:0.75"
       id="path421"
       d="m 561.99392,99.989864 c -7.80188,2.747896 -15.07562,6.756536 -21.82687,11.533336 -0.9225,0.65271 -1.603,1.59328 -2.4045,2.38992 -0.62957,0.87586 -1.35844,1.68827 -1.88872,2.62758 -1.62789,2.88356 -2.41251,6.43472 -2.24021,9.73437 0.1533,2.93592 0.86656,5.1534 1.58341,7.9876 1.13016,3.62222 2.52971,7.17468 4.44932,10.45806 0.55698,0.95266 1.1244,1.90662 1.80511,2.77519 2.09255,2.67005 2.90464,3.00757 5.63576,5.10507 5.00433,3.01308 10.548,5.07636 16.36273,5.78918 3.80653,0.46664 4.78838,0.26851 8.56245,0.0998 8.39194,-1.35065 13.5867,-4.19178 20.94738,-8.8844 1.02882,-0.65589 1.95574,-1.47374 2.81318,-2.34175 0.83668,-0.847 1.49635,-1.85222 2.24452,-2.77833 2.60952,-4.57679 3.79872,-9.67262 3.25156,-14.9356 -0.36499,-3.51079 -0.88307,-4.38403 -2.03323,-7.72076 -3.34815,-6.90168 -7.78827,-11.60821 -14.31868,-15.64401 -4.13581,-2.55594 -5.99378,-3.14823 -10.38155,-4.99791 -4.36956,-1.298591 -4.62591,-1.610373 -9.00246,-2.054973 -1.18721,-0.120608 -2.38463,-0.09808 -3.57695,-0.147113 0,0 -5.71016,4.127526 -5.71016,4.127526 v 0 c 1.20313,0.009 2.40917,-0.0566 3.6094,0.0275 4.38391,0.30696 4.64228,0.62244 9.03348,1.82141 4.40043,1.77423 6.22677,2.30559 10.35409,4.83711 6.32768,3.88113 10.76736,8.66628 13.87284,15.40561 1.08077,3.231 1.59809,4.14753 1.91359,7.54086 0.47939,5.15604 -0.77252,10.12149 -3.5042,14.49819 -0.76145,0.88242 -1.44151,1.8422 -2.28434,2.64725 -0.86999,0.83098 -2.72125,1.04071 -2.83102,2.23878 -0.0956,1.04292 3.80782,-1.56686 2.76295,-1.49579 -1.28884,0.0877 -2.3449,1.08992 -3.55221,1.54948 -3.5773,1.36169 -4.23797,1.35877 -7.99335,2.18114 -3.73764,0.23646 -4.71775,0.45682 -8.49385,0.0443 -5.72127,-0.62498 -11.20143,-2.59521 -16.12573,-5.54231 -2.71801,-2.09133 -3.35691,-2.30127 -5.43888,-4.94907 -2.96799,-3.77463 -4.74222,-8.47006 -6.23588,-12.97048 -0.72963,-3.02376 -1.31492,-4.72921 -1.39858,-7.84315 -0.087,-3.23828 0.74978,-6.60207 2.43623,-9.37613 0.54697,-0.89971 1.27621,-1.67509 1.91432,-2.51263 0.80477,-0.76202 3.09336,-1.41013 2.41432,-2.28604 -0.69524,-0.89679 -3.54282,2.44164 -3.10538,1.39462 0.49265,-1.17917 2.1893,-1.32211 3.32217,-1.91351 2.96331,-1.54696 6.08307,-2.81958 9.24399,-3.8976 0,0 5.81395,-4.522338 5.81395,-4.522338 z" />
    <path
       style="fill:#000000;stroke:#000000;stroke-width:0.75"
       id="path1219"
       d="m 586.74443,103.05517 c 0.90755,-1.13702 1.79464,-2.29068 2.72266,-3.411056 3.41,-4.116817 9.04445,-10.637437 12.32992,-14.524643 6.55114,-7.75098 12.95257,-15.610065 19.28163,-23.542434 3.92389,-4.989028 7.75391,-10.049876 11.54899,-15.137053 0,0 -9.05455,3.916873 -9.05455,3.916873 v 0 c -3.55898,5.008986 -7.16519,9.984392 -10.93979,14.834618 -11.27773,14.429904 -23.04215,28.458849 -35.49228,41.897295 0,0 9.60342,-4.0336 9.60342,-4.0336 z" />
    <path
       style="fill:#000000;stroke:#000000;stroke-width:0.75"
       id="path1221"
       d="m 598.13545,8.9881574 c -1.66162,5.6429436 -4.13147,11.0051086 -6.35263,16.4414536 -0.9215,2.474356 -1.92441,4.919874 -2.8002,7.411378 -0.17495,0.497714 -0.50902,0.975972 -0.49486,1.503351 0.009,0.335541 0.25722,0.988009 0.55772,0.838437 3.91816,-1.950268 7.51678,-4.48552 11.27518,-6.728281 5.09568,-5.464406 10.77555,-10.388869 15.74087,-15.973531 0.19724,-0.323575 0.39448,-0.647151 0.59171,-0.970725 0,0 -9.58193,4.211074 -9.58193,4.211074 v 0 c -0.17693,0.258028 -0.35386,0.516055 -0.53078,0.774083 -4.86963,5.5836 -10.35519,10.620839 -15.63455,15.805512 2.3397,-0.955142 4.62806,-2.047215 7.01909,-2.865426 0.15159,-0.05187 -0.10431,0.62712 -0.0442,0.478611 0.18712,-0.462252 0.27708,-0.958289 0.43045,-1.432808 0.79275,-2.452644 1.712,-4.863347 2.61824,-7.275303 2.25454,-5.563155 4.71636,-11.045133 6.72236,-16.705932 0,0 -9.51649,4.4881064 -9.51649,4.4881064 z" />
    <path
       style="fill:#000000;stroke:#000000;stroke-width:0.75"
       id="path1223"
       d="m 595.93921,28.423737 c 3.56488,1.513499 7.10062,3.094003 10.64016,4.665621 1.56668,0.707347 0.83119,0.377402 2.2059,0.99107 0,0 8.70165,-5.809829 8.70165,-5.809829 v 0 c -1.43264,-0.560685 -0.66623,-0.255042 -2.29734,-0.921564 -3.5528,-1.453585 -7.0797,-2.984532 -10.48769,-4.755003 0,0 -8.76268,5.829705 -8.76268,5.829705 z" />
    <path
       style="fill:#000000;stroke:#000000;stroke-width:0.75"
       id="path1225"
       d="m 636.42338,16.433007 c -4.9959,1.233487 -7.73751,3.357306 -12.78831,6.760491 -0.41064,0.276682 -0.81184,1.964985 -0.92154,2.346171 -0.0294,0.439006 -0.13333,0.87934 -0.0883,1.317018 0.2809,2.728762 2.90815,4.616458 4.88408,6.181213 4.27601,3.258969 1.3481,2.391537 10.15604,-4.42937 0.24892,-0.19277 -0.61813,0.152543 -0.93294,0.147538 -0.51975,-0.0083 -1.03212,-0.124657 -1.54819,-0.186986 -2.55854,-0.414877 -5.11872,-0.810954 -7.68956,-1.141378 0,0 -8.57554,6.078688 -8.57554,6.078688 v 0 c 2.59996,0.277386 5.20537,0.514961 7.77249,1.037109 0.50601,0.09484 1.01679,0.167046 1.51802,0.284515 0.39146,0.09174 0.80796,0.542568 1.15658,0.342297 10.12731,-5.817662 11.5626,-4.440418 6.94661,-7.692712 -1.68641,-1.227783 -4.33099,-2.875453 -4.33311,-5.250474 -3.4e-4,-0.372846 0.13027,-0.734226 0.1954,-1.101338 0.15351,-0.339332 0.26233,-0.702663 0.46051,-1.017994 0.19277,-0.306731 1.02611,-0.990586 0.70116,-0.830408 -15.56605,7.673106 -8.98276,4.53505 -5.2646,3.547343 0,0 8.35117,-6.391723 8.35117,-6.391723 z" />
    <path
       style="fill:#000000;stroke:#000000;stroke-width:0.75"
       id="path1227"
       d="m 647.28249,12.382644 c -1.00439,6.60862 -1.68291,13.254362 -2.15827,19.920004 0,0 9.09954,-4.570881 9.09954,-4.570881 v 0 c 0.29074,-6.725258 0.9348,-13.439139 2.45095,-20.0119068 0,0 -9.39222,4.6627838 -9.39222,4.6627838 z" />
    <path
       style="fill:#000000;stroke:#000000;stroke-width:0.75"
       id="path1229"
       d="m 635.55986,23.496124 c 4.39615,-0.840237 8.78532,-1.716407 13.17924,-2.568247 0,0 8.05357,-6.095844 8.05357,-6.095844 v 0 c -4.26535,0.86586 -8.52805,1.78781 -12.8446,2.363645 0,0 -8.38821,6.300446 -8.38821,6.300446 z" />
    <path
       style="fill:#000000;stroke:#000000;stroke-width:0.75"
       id="path1231"
       d="m 596.58815,125.14647 c 1.61004,-0.77791 3.19155,-1.61784 4.83011,-2.33371 18.46426,-8.06683 37.73017,-14.23779 56.87892,-20.43224 11.75866,-3.698941 6.21002,-1.97098 16.64269,-5.194216 0,0 7.40929,-5.73888 7.40929,-5.73888 v 0 c -10.77704,3.502905 -5.05963,1.643295 -17.15193,5.579723 -12.0067,3.945603 -24.00997,7.891243 -35.91078,12.149373 -3.6295,1.29864 -15.93531,5.80886 -20.19527,7.53195 -1.51745,0.61378 -2.98531,1.34371 -4.47796,2.01557 0,0 -8.02507,6.42243 -8.02507,6.42243 z" />
    <path
       style="fill:#000000;stroke:#000000;stroke-width:0.75"
       id="path1233"
       d="m 715.95282,71.430405 c -2.96937,0.147592 -5.9938,-0.730698 -8.95743,-0.358323 -0.42848,0.05384 -0.8409,0.197123 -1.26135,0.295683 -3.25983,2.048921 -6.72719,3.799866 -9.77952,6.146766 -0.41346,0.317903 -0.29027,1.03011 -0.22803,1.547933 0.32718,2.72208 3.43307,5.288527 5.26369,7.101847 0.93772,1.057141 4.80577,4.338751 3.87669,6.048998 -0.20821,0.383265 -0.5936,0.639218 -0.8904,0.95883 -0.4253,0.37464 -0.83437,0.768563 -1.2759,1.123935 -0.47947,0.385913 -0.97679,0.75012 -1.48462,1.09788 -0.50044,0.342698 -2.06192,1.277993 -1.53816,0.97212 12.3798,-7.22973 8.11711,-4.445857 4.2252,-3.174082 -1.58727,0.460725 -3.21567,0.77649 -4.8712,0.767025 0,0 -8.55631,6.175673 -8.55631,6.175673 v 0 c 1.76635,0.0971 3.50054,-0.11454 5.20988,-0.590641 5.3053,-1.52199 7.80342,-3.552727 13.62179,-6.943717 0.7899,-0.460365 2.30625,-1.637213 2.95718,-2.25981 0.44072,-0.421538 0.81953,-0.903383 1.2293,-1.35507 0.2289,-0.50403 0.57972,-0.968963 0.68672,-1.512098 0.47296,-2.400705 -3.05854,-5.178225 -4.43816,-6.686055 -1.49222,-1.43868 -3.35189,-2.95569 -4.2879,-4.857803 -0.20589,-0.418395 -0.35496,-0.893212 -0.33201,-1.358959 0.0193,-0.391775 0.81402,-1.238476 0.45251,-1.086269 -2.80805,1.182263 -5.37957,2.862116 -8.06936,4.293168 0.37335,-0.177367 0.72118,-0.42366 1.12004,-0.532102 2.48425,-0.675443 6.20905,0.324457 8.80299,0.2826 0,0 8.52436,-6.097529 8.52436,-6.097529 z" />
    <path
       style="fill:#000000;stroke:#000000;stroke-width:0.75"
       id="path1235"
       d="m 727.24519,66.075558 c -5.31922,0.183063 -6.93,2.053295 -12.86059,5.841661 -0.30744,0.196391 -0.37399,0.652135 -0.40863,1.015305 -0.049,0.513328 0.11007,1.025425 0.16511,1.538137 0.32707,0.632065 0.56869,1.316283 0.98123,1.896205 1.73348,2.436803 4.21806,4.40052 6.34867,6.466493 2.1847,2.11842 1.65329,1.59465 3.50704,3.78636 0.59316,1.472123 1.12958,1.943018 0.50187,3.52824 -0.47862,1.208738 -1.68966,2.22132 -2.70394,2.925053 -0.59834,0.415147 -2.51456,1.470262 -1.89257,1.091475 2.33271,-1.420583 4.68342,-2.811413 7.02513,-4.217123 -1.80613,0.810375 -3.71348,1.373055 -5.68614,1.552598 0,0 -8.503,6.251767 -8.503,6.251767 v 0 c 2.11324,-0.0549 4.16506,-0.598695 6.12487,-1.376745 3.53952,-1.978717 7.11051,-3.90216 10.61855,-5.936145 1.85076,-1.07307 3.77374,-2.71494 4.24123,-4.927905 0.40553,-1.919685 -0.18991,-2.491358 -0.95618,-4.174913 -1.98974,-2.278732 -1.34212,-1.637857 -3.64143,-3.831667 -2.04904,-1.955033 -4.4317,-3.838166 -6.00332,-6.233515 -0.30791,-0.469301 -0.45021,-1.028359 -0.67532,-1.542539 0.0473,-0.339771 -0.003,-0.708257 0.14204,-1.019314 0.11605,-0.249515 0.84101,-0.697538 0.59716,-0.570024 -14.44143,7.551584 -9.66667,4.325948 -5.43046,4.136761 0,0 8.50868,-6.200165 8.50868,-6.200165 z" />
    <path
       style="fill:#000000;stroke:#000000;stroke-width:0.75"
       id="path1237"
       d="m 744.05751,69.144075 c -1.27305,6.062984 -2.29269,12.188046 -2.65738,18.379432 -0.0775,1.315665 -0.18337,2.635837 -0.11704,3.952117 0.057,1.130423 0.32371,2.240453 0.48557,3.360675 0.44127,0.924465 0.73022,1.938548 1.32384,2.773403 2.0109,2.828018 5.79352,4.262498 9.14867,4.438048 0.5823,0.0305 1.16468,-0.0569 1.74705,-0.0854 0.44933,-0.10119 0.89865,-0.20238 1.34798,-0.30357 0,0 8.241,-6.364471 8.241,-6.364471 v 0 c -0.42608,0.162885 -0.85215,0.325763 -1.27823,0.488648 -0.55732,0.09784 -1.10677,0.266242 -1.67197,0.293542 -3.03893,0.146813 -6.79673,-0.963352 -8.69738,-3.486015 -0.5541,-0.735465 -0.81982,-1.649145 -1.22977,-2.473717 -0.16455,-1.05489 -0.42518,-2.09922 -0.4935,-3.164663 -0.0822,-1.280468 -0.0158,-2.567325 0.0435,-3.849038 0.28897,-6.220447 1.3479,-12.390874 3.08242,-18.369203 0,0 -9.27483,4.410182 -9.27483,4.410182 z" />
    <path
       style="fill:#000000;stroke:#000000;stroke-width:0.75"
       id="path1239"
       d="m 733.00117,88.357627 c 5.72683,-1.97922 11.41819,-4.058236 17.1535,-6.013006 0,0 7.95255,-6.189547 7.95255,-6.189547 v 0 c -5.61997,1.941442 -11.19217,4.024095 -16.86149,5.82015 0,0 -8.24456,6.382403 -8.24456,6.382403 z" />
    <path
       style="fill:#000000;stroke:#000000;stroke-width:0.75"
       id="path1241"
       d="m 600.94526,137.17771 c 25.42992,-2.18463 51.01598,-1.56488 76.50364,-0.96851 0,0 6.89831,-4.99675 6.89831,-4.99675 v 0 c -24.98351,-0.14069 -49.96772,-0.43182 -74.95125,-0.31495 0,0 -8.4507,6.28021 -8.4507,6.28021 z" />
    <path
       style="fill:#000000;stroke:#000000;stroke-width:0.75"
       id="path1243"
       d="m 714.61142,117.05777 c -7.2857,-0.0411 -9.05749,-0.2107 -16.12625,6.54615 -0.57774,0.55224 0.42657,1.54047 0.63986,2.3107 3.50875,5.31608 8.5452,9.37751 13.18447,13.66212 1.02952,0.95081 2.10243,1.85814 3.07413,2.86796 0.70646,0.73418 1.3002,1.56904 1.9503,2.35356 0.15619,0.6134 0.60091,1.22121 0.46857,1.84019 -0.11469,0.53647 -1.59777,1.47543 -1.11985,1.20607 2.18371,-1.23075 4.56874,-2.29876 6.29067,-4.12038 0.77083,-0.81546 -2.14768,0.66057 -3.24443,0.8978 -2.41977,0.52341 -4.12128,0.59862 -6.56346,0.81311 -2.58049,0.15309 -5.16762,0.12154 -7.74254,-0.10149 -1.72538,-0.14944 -1.18374,0.012 -2.24986,-0.44421 0,0 -8.76109,5.77826 -8.76109,5.77826 v 0 c 0.31069,0.16311 0.59132,0.40554 0.93208,0.48934 0.56051,0.13784 1.14835,0.1196 1.72387,0.16379 2.65022,0.20346 5.31035,0.26064 7.96611,0.1243 2.83641,-0.21593 3.82892,-0.23008 6.67148,-0.70206 1.10407,-0.18331 2.28825,-0.16471 3.29219,-0.65937 3.8457,-1.89486 7.63491,-3.96274 11.12935,-6.44644 0.56571,-0.40209 0.72013,-1.26735 0.69957,-1.9611 -0.0223,-0.75466 -0.54687,-1.40748 -0.82031,-2.11123 -0.7206,-0.7871 -1.39507,-1.61905 -2.16178,-2.3613 -1.01517,-0.98279 -2.1204,-1.86808 -3.17652,-2.80673 -4.53741,-4.03271 -9.3983,-8.01041 -12.45276,-13.34882 -0.47969,-4.61926 0.28614,-2.11046 -8.36342,2.59989 -0.40867,0.22256 0.85809,-0.38634 1.31711,-0.46279 1.60695,-0.26762 3.31401,0.11641 4.92989,0.006 0,0 8.51262,-6.13309 8.51262,-6.13309 z" />
    <path
       style="fill:#000000;stroke:#000000;stroke-width:0.75"
       id="path1245"
       d="m 739.4599,120.05699 c -2.59216,8.42049 -4.87505,16.94637 -6.35007,25.63677 -0.22574,2.9266 -0.31639,4.93593 2.35662,6.67752 0.56806,0.37012 1.24292,0.5421 1.86437,0.81315 0,0 8.56815,-5.76396 8.56815,-5.76396 v 0 c -1.00536,-0.31582 -2.42109,-0.57421 -3.11919,-1.52316 -1.01681,-1.38218 -0.66792,-3.07362 -0.64743,-4.62373 1.2867,-8.78172 3.45178,-17.4636 6.8407,-25.68244 0,0 -9.51315,4.46585 -9.51315,4.46585 z" />
    <path
       style="fill:#000000;stroke:#000000;stroke-width:0.75"
       id="path1247"
       d="m 727.57609,135.10112 c 6.94,-0.23004 13.88259,-0.37071 20.82543,-0.47949 0,0 8.28378,-6.05608 8.28378,-6.05608 v 0 c -6.8768,0.29608 -13.76423,0.59743 -20.64789,0.42515 0,0 -8.46132,6.11042 -8.46132,6.11042 z" />
    <path
       style="fill:#000000;stroke:#000000;stroke-width:0.75"
       id="path1249"
       d="m 759.6082,133.14877 c 1.27342,4.00042 2.44282,8.21249 4.62907,11.8425 0.33098,0.54949 0.74648,1.04338 1.11975,1.56507 0.96458,0.93199 2.60963,2.1669 4.08225,1.36418 7.49618,-4.08604 9.36008,-3.36028 11.29185,-8.93511 0.4803,-1.94947 0.5931,-3.96055 0.64463,-5.95979 0.0292,-1.12154 -0.18345,-0.71972 0.20325,-1.25858 -3.00983,1.80567 -6.31763,3.18867 -9.02948,5.417 -0.40275,0.33095 0.53415,0.89538 0.80655,1.33984 1.0377,1.6933 2.12955,3.82965 3.7476,5.06154 0.61245,0.46628 1.35383,0.73295 2.0307,1.09942 0.76448,0.18593 1.51283,0.45917 2.29335,0.55778 6.2454,0.78898 12.48795,-4.65146 17.06798,-7.34466 0,0 -9.61643,3.75789 -9.61643,3.75789 v 0 c 2.41238,-1.34134 4.82475,-2.68268 7.23713,-4.02402 -0.627,0.3269 -1.2231,0.72146 -1.88093,0.98067 -0.6927,0.27292 -1.41585,0.47958 -2.14927,0.60735 -2.03565,0.3546 -2.3751,0.13181 -4.3599,-0.19254 -0.60585,-0.26926 -1.27193,-0.43119 -1.81755,-0.80779 -0.91665,-0.63264 -1.97145,-2.19196 -2.538,-3.08649 -0.363,-0.5732 -0.69518,-1.16618 -1.01085,-1.76674 -0.25305,-0.48135 -0.17153,-1.62687 -0.69413,-1.47643 -3.3957,0.97749 -6.4155,2.96427 -9.62325,4.44641 0.0607,2.35475 0,4.74304 -0.7356,7.00435 -0.2112,0.45101 -0.3711,0.92979 -0.6336,1.35303 -0.24952,0.40239 -1.3233,1.29994 -0.8913,1.10601 2.7303,-1.22588 5.27108,-2.83646 7.9062,-4.25556 0.36135,-0.1946 -0.68617,0.48533 -1.08502,0.58205 -0.38483,0.0933 -0.81458,0.10213 -1.18748,-0.031 -0.44632,-0.15932 -0.77895,-0.53999 -1.1685,-0.80998 -0.36255,-0.46752 -0.76672,-0.90554 -1.08765,-1.40256 -2.24955,-3.48371 -3.46515,-7.64046 -4.35472,-11.64252 0,0 -9.19665,4.90866 -9.19665,4.90866 z" />
    <path
       style="fill:#000000;stroke:#000000;stroke-width:0.75"
       id="path1251"
       d="m 681.96146,95.702017 c 19.37758,-8.624813 38.79379,-17.162123 58.14166,-25.854825 0,0 6.48507,-5.145792 6.48507,-5.145792 v 0 c -18.68265,8.488078 -37.42825,16.836874 -56.45427,24.533322 0,0 -8.17246,6.467295 -8.17246,6.467295 z" />
    <path
       style="fill:#000000;stroke:#000000;stroke-width:0.75"
       id="path1253"
       d="m 689.4585,56.730135 c 11.81508,8.827318 23.7045,17.550253 35.76452,26.040126 5.5076,3.822781 11.06201,7.577116 16.62154,11.323681 0,0 8.21876,-5.279693 8.21876,-5.279693 v 0 C 744.3048,85.256046 738.56423,81.666486 732.98841,77.824439 721.03088,69.45477 709.2386,60.808874 698.16765,51.282777 c 0,0 -8.70915,5.447358 -8.70915,5.447358 z" />
    <path
       style="fill:#000000;stroke:#000000;stroke-width:0.75"
       id="path1255"
       d="m 818.86712,102.1513 c -9.68355,4.0858 -18.22147,10.40803 -27.06855,15.9841 -2.52975,1.5944 -5.09235,3.13592 -7.63852,4.70389 -9.29588,5.46492 -18.80528,10.6144 -28.55685,15.23306 -7.25899,3.43808 -10.31086,4.58739 -17.61912,7.59411 -6.50618,2.59991 -13.11965,4.91402 -19.72141,7.25514 0,0 -7.6353,5.96157 -7.6353,5.96157 v 0 c 6.74511,-2.47 13.50897,-4.89261 20.1794,-7.561 6.84958,-2.82279 10.99059,-4.43477 17.75885,-7.62268 15.1876,-7.15348 29.6065,-15.80548 44.14188,-24.16757 11.5845,-7.08417 4.01017,-2.38605 14.29417,-8.90495 1.63283,-1.03504 6.57615,-2.11408 4.90763,-3.09067 -1.71338,-1.00292 -3.49493,1.88889 -5.18723,2.92704 -1.21365,0.74448 4.00418,-2.1735 3.85823,-1.83246 0,0 8.28682,-6.47958 8.28682,-6.47958 z" />
    <path
       style="fill:#000000;stroke:#000000;stroke-width:0.75"
       id="path1257"
       d="m 701.44891,111.90763 c 18.62946,11.35293 36.41763,23.99964 54.24616,36.55141 7.58025,5.341 4.04715,2.85513 10.59803,7.45945 0,0 8.19555,-5.24865 8.19555,-5.24865 v 0 c -6.9114,-4.3515 -3.19823,-1.9885 -11.1279,-7.10719 -18.0613,-11.95446 -36.00167,-24.1348 -53.35573,-37.0987 0,0 -8.55611,5.44368 -8.55611,5.44368 z" />
    <path
       style="fill:#000000;stroke:#000000;stroke-width:0.75"
       id="path1259"
       d="m 649.88975,-19.045869 c -7.6179,-0.243251 -15.25255,-0.153322 -22.84939,0.471454 -8.76086,0.987956 -16.57549,4.242161 -24.24809,8.401432 -8.58177,4.7384396 -15.80477,8.7504703 -21.7932,16.3282686 -2.67745,3.6604849 -3.4718,8.1117234 -4.22279,12.4786234 -0.94222,5.592554 -0.13867,11.151851 1.09886,16.620726 1.15833,4.562819 3.3697,8.741983 7.03697,11.776736 0.68253,0.564809 1.43612,1.037774 2.15418,1.556661 0.85444,0.45143 1.67869,0.965353 2.56333,1.35429 2.62599,1.154533 4.79707,1.688325 7.64975,2.282822 5.11929,1.066859 10.27819,1.559285 15.47996,1.986836 6.05994,0.283803 12.16451,0.282282 18.18461,-0.561587 3.0107,-0.422024 3.77401,-0.668964 6.67935,-1.351429 8.26749,-2.146638 15.22098,-6.917199 22.50909,-11.223202 3.03433,-2.035358 5.82925,-4.411119 7.98733,-7.371202 1.67397,-2.53059 1.60124,-5.368658 1.29478,-8.26553 -0.93361,-4.901573 -2.81966,-9.639075 -5.27209,-13.980309 -0.67659,-1.197699 -1.44741,-2.3396691 -2.17112,-3.5095033 -4.16362,-6.2377259 -9.27008,-11.7312924 -14.85722,-16.703135 -3.87354,-3.4741377 -8.87726,-4.9846087 -13.75636,-6.4461137 0,0 -8.39425,5.7503717 -8.39425,5.7503717 v 0 c 4.81487,1.2967995 9.67526,2.7321916 13.52764,6.0626851 5.63284,4.7881642 10.7861,10.1357588 14.85298,16.3429012 0.69024,1.157241 1.42539,2.288845 2.07069,3.471723 2.33634,4.282583 4.11545,8.943151 4.8317,13.778855 0.16312,2.745315 0.0459,5.356754 -1.71256,7.61795 -2.22762,2.768725 -4.94824,5.046688 -7.94043,6.96171 2.22348,-1.24783 4.44111,-2.506131 6.67044,-3.74349 0.70085,-0.389 -1.37891,0.818664 -2.08487,1.198323 -3.03054,1.629813 -6.23276,2.941248 -9.52882,3.924557 -2.89343,0.745639 -3.6745,1.014669 -6.67987,1.503022 -6.03039,0.979901 -12.16305,1.110978 -18.25635,0.859766 -8.49111,-0.650646 -17.39252,-1.321184 -25.02892,-5.423663 -0.6926,-0.481794 -1.41822,-0.919269 -2.07778,-1.445382 -3.56962,-2.84742 -5.69941,-6.827531 -6.80158,-11.204249 -1.17707,-5.377869 -1.81773,-10.839347 -0.81765,-16.311568 0.78882,-4.258718 1.71471,-8.5343176 4.45977,-12.0189398 2.2206,-2.67938017 4.63794,-5.0286863 7.42304,-7.1296042 0.87417,-0.6594214 3.69535,-2.3035145 2.67456,-1.9073027 -1.95947,0.7605516 -3.69099,2.0120892 -5.53649,3.0181338 7.57668,-4.2676189 15.31452,-7.6538471 24.03082,-8.7603391 7.39779,-0.682921 14.87415,-0.929324 22.28527,-0.292072 0,0 8.56471,-6.099226 8.56471,-6.099226 z" />
    <path
       style="fill:#000000;stroke:#000000;stroke-width:0.75"
       id="path1261"
       d="m 594.2255,-7.0430772 c -7.17441,-11.5959968 -16.45913,-21.7144358 -25.65392,-31.7102748 -3.92737,-4.269526 -18.90378,-20.115585 -23.07887,-24.540306 -12.35551,-13.01863 -6.47949,-6.854476 -17.62014,-18.49999 0,0 -7.49367,4.588815 -7.49367,4.588815 v 0 c 11.65599,11.298298 5.54739,5.286765 18.29337,18.067486 9.23893,9.628734 14.07718,14.464517 22.95543,24.574236 8.85317,10.081156 17.64013,20.537623 23.6305,32.6372898 0,0 8.9673,-5.117256 8.9673,-5.117256 z" />
    <path
       style="fill:#000000;stroke:#000000;stroke-width:0.75"
       id="path1263"
       d="m 452.39333,-113.09297 c 0.0387,5.94358 0.38756,11.8784 0.66934,17.813819 0,0 8.89755,-4.59576 8.89755,-4.59576 v 0 c -0.37878,-5.968819 -0.70983,-11.959679 -0.23713,-17.934829 0,0 -9.32976,4.71677 -9.32976,4.71677 z" />
    <path
       style="fill:#000000;stroke:#000000;stroke-width:0.75"
       id="path1265"
       d="m 452.71439,-126.6887 c 7.06606,-3.9263 10.45473,-4.54564 13.94334,-10.48055 -3.1955,1.80758 -6.56383,3.339 -9.58652,5.42274 -0.0353,0.0244 -0.055,2.45758 -0.055,2.46111 0.0225,1.08228 0.12121,1.73076 0.26406,1.66537 3.30042,-1.51096 6.42107,-3.38716 9.6316,-5.08075 0.17237,-1.52382 0.65482,-3.13729 -0.58071,-4.30675 0,0 -8.81958,5.86982 -8.81958,5.86982 v 0 c 0.35163,-0.73771 0.27462,2.68201 -0.24981,2.74797 3.08006,-1.46089 6.19851,-2.84347 9.24018,-4.38268 0.0779,-0.0394 -0.11237,-0.14369 -0.12489,-0.23004 -0.048,-0.33101 -0.0509,-0.66751 -0.0538,-1.00197 -0.0465,-5.25734 2.52636,-3.93157 -9.30077,1.13116 -2.40854,4.37884 -10.72162,7.96862 3.99206,-0.26861 0,0 -8.3002,6.45318 -8.3002,6.45318 z" />
    <path
       style="fill:#000000;stroke:#000000;stroke-width:0.75"
       id="path1267"
       d="m 626.79783,-19.570344 c -2.39296,-14.416616 -5.4408,-28.712716 -8.46784,-43.006245 -3.0639,-14.671624 -6.75749,-29.199762 -10.07608,-43.812771 -0.77944,-3.66304 -1.65514,-7.30367 -2.59504,-10.92844 0,0 -9.02892,4.91191 -9.02892,4.91191 v 0 c 1.05117,3.56699 1.93107,7.1744 2.79331,10.79138 1.27222,4.673914 2.70724,9.296479 4.01952,13.959207 2.71467,9.64572 5.1508,19.368966 7.25134,29.167696 0.80718,3.995484 1.67918,7.978421 2.42156,11.986453 1.95119,10.534363 3.43476,21.174088 4.3814,31.845554 0,0 9.30075,-4.914744 9.30075,-4.914744 z" />
    <path
       style="fill:#000000;stroke:#000000;stroke-width:0.75"
       id="path1269"
       d="m 569.75217,-145.6925 c 1.28726,4.64878 2.51571,9.31412 3.71277,13.98691 0,0 8.96425,-4.86753 8.96425,-4.86753 v 0 c -1.30542,-4.65383 -2.57738,-9.32223 -3.54787,-14.05951 0,0 -9.12915,4.94013 -9.12915,4.94013 z" />
    <path
       style="fill:#000000;stroke:#000000;stroke-width:0.75"
       id="path1271"
       d="m 584.16638,-151.73018 c 1.98429,2.97635 3.53997,6.20548 5.14592,9.39248 0,0 8.68159,-4.94498 8.68159,-4.94498 v 0 c -1.61668,-3.23302 -3.19452,-6.48501 -4.83782,-9.70459 0,0 -8.98969,5.25709 -8.98969,5.25709 z" />
    <path
       style="fill:#000000;stroke:#000000;stroke-width:0.75"
       id="path1273"
       d="m 659.94312,-24.564858 c 0.52404,-0.876539 1.07007,-1.740302 1.57213,-2.629617 2.76631,-4.900048 2.68014,-5.292043 6.06399,-10.700143 6.02941,-9.636229 12.77723,-18.825808 19.31222,-28.11894 5.99883,-8.53473 11.65693,-17.296095 17.05219,-26.221823 0,0 -8.96607,3.985163 -8.96607,3.985163 v 0 c -4.99127,8.80905 -10.3337,17.410442 -16.11517,25.727052 -6.6269,9.473423 -13.52149,18.797331 -19.89517,28.444378 -4.67472,7.075543 -2.92827,4.961514 -6.71893,10.95961 -0.58142,0.919984 -1.2251,1.799101 -1.83765,2.698652 0,0 9.53246,-4.144332 9.53246,-4.144332 z" />
    <path
       style="fill:#000000;stroke:#000000;stroke-width:0.75"
       id="path1275"
       d="m 685.49964,-139.5556 c 0.62954,5.52907 1.12943,11.07207 1.68811,16.60872 0,0 8.82928,-4.61865 8.82928,-4.61865 v 0 c -0.63776,-5.57253 -1.22501,-11.15614 -1.35428,-16.76857 0,0 -9.16311,4.7785 -9.16311,4.7785 z" />
    <path
       style="fill:#000000;stroke:#000000;stroke-width:0.75"
       id="path1277"
       d="m 699.92565,-134.56721 c 1.34951,3.672 2.4524,7.42817 3.57223,11.17459 0,0 8.86764,-4.85244 8.86764,-4.85244 v 0 c -1.1625,-3.77502 -2.2938,-7.55866 -3.26371,-11.38875 0,0 -9.17616,5.0666 -9.17616,5.0666 z" />
    <path
       style="fill:#000000;stroke:#000000;stroke-width:0.75"
       id="path1279"
       d="m 719.94759,-137.61415 c 1.4042,4.59486 2.37673,9.30617 3.35483,14.00562 0,0 8.94331,-4.80263 8.94331,-4.80263 v 0 c -1.08331,-4.70413 -2.14034,-9.41548 -3.0222,-14.16235 0,0 -9.27594,4.95936 -9.27594,4.95936 z" />
    <path
       style="fill:#000000;stroke:#000000;stroke-width:0.75"
       id="path1281"
       d="m 575.63645,-163.86638 c 1.05199,-1.12201 4.73865,-4.13294 4.59645,-5.71974 -0.0352,-0.39234 -0.34523,-0.70817 -0.51784,-1.06225 -0.40318,-0.1791 -0.77267,-0.47587 -1.20954,-0.5373 -0.69584,-0.0979 -1.85193,0.3563 -2.4314,0.68589 -3.31902,1.88775 -6.59191,3.85549 -9.88786,5.78323 0,0 9.73616,-3.79833 9.73616,-3.79833 v 0 c -14.83158,8.4366 -8.72034,4.85139 -5.34157,3.07285 0.0512,0.0885 0.17655,0.16596 0.15363,0.26566 -0.33699,1.46578 -3.66339,4.19551 -4.88365,5.09674 0,0 9.78562,-3.78675 9.78562,-3.78675 z" />
    <path
       style="fill:#000000;stroke:#000000;stroke-width:0.75"
       id="path1283"
       d="m 586.39119,-164.96035 c 3.30915,-1.97937 6.64254,-3.91876 9.92745,-5.93809 0.37108,-0.22812 0.69074,-0.53091 1.03339,-0.79983 0.31449,-0.24683 1.28658,-0.94319 0.93801,-0.7474 -2.7314,1.60769 -5.46281,3.21538 -8.19421,4.82308 0.46729,-0.2552 0.24974,-0.18362 0.63199,-0.26958 0,0 8.7622,-5.907 8.7622,-5.907 v 0 c -0.2661,-0.16638 -0.84758,-0.6341 -1.23342,-0.42648 -3.28685,1.76859 -6.46412,3.73458 -9.66051,5.66185 -0.33534,0.20219 -0.61493,0.48502 -0.92681,0.72179 -0.34889,0.26487 -1.44076,0.99127 -1.05538,0.78303 2.679,-1.4476 5.29755,-3.00438 7.94631,-4.50656 0,0 -8.16902,6.60519 -8.16902,6.60519 z" />
    <path
       style="fill:#000000;stroke:#000000;stroke-width:0.75"
       id="path1285"
       d="m 679.18902,-157.45758 c 3.38919,0.14317 6.78429,0.22451 10.15834,0.59377 0.32093,0.0603 1.00565,0.12014 1.34243,0.35863 0.20401,0.14448 -0.19308,-0.17646 -0.7416,0.10874 -0.54275,0.28219 -0.97025,0.74528 -1.45382,1.11994 -0.95094,0.68256 -0.49273,0.35361 -1.37463,0.98683 0,0 9.76867,-3.87467 9.76867,-3.87467 v 0 c 0.85235,-0.64332 0.41076,-0.30198 1.32253,-1.02691 0.30041,-0.26177 1.20687,-1.0009 1.40614,-1.37413 0.76618,-1.43501 -0.54539,-2.18833 -1.7618,-2.34219 -3.37436,-0.35378 -6.76834,-0.36349 -10.14837,-0.64645 0,0 -8.51789,6.09644 -8.51789,6.09644 z" />
    <path
       style="fill:#000000;stroke:#000000;stroke-width:0.75"
       id="path1287"
       d="m 702.22644,-156.71331 c 1.66564,0.335 4.73252,-0.34876 6.1509,0.48559 -1.07402,0.90921 -2.10884,1.87333 -3.1922,2.7787 0,0 9.61429,-3.90801 9.61429,-3.90801 v 0 c 0.96027,-0.87981 2.53337,-1.9781 2.70974,-3.41078 0.0441,-0.35814 -0.14174,-0.70763 -0.21262,-1.06145 -0.21457,-0.19592 -0.38657,-0.45246 -0.64371,-0.58773 -1.4934,-0.78564 -4.22034,-2.7e-4 -5.8818,-0.40196 0,0 -8.5446,6.10564 -8.5446,6.10564 z" />
    <path
       style="fill:#000000;stroke:#000000;stroke-width:0.75"
       id="path1289"
       d="m 724.85197,-154.82233 c 3.25329,-0.52461 6.52235,-0.9569 9.80401,-1.25848 0.22207,0.004 0.44413,0.009 0.66622,0.011 0.0473,4.9e-4 -0.10462,-0.0348 -0.14189,-0.005 -0.20394,0.15973 -0.39389,0.3421 -0.55087,0.54817 -0.29496,0.38723 -0.52783,0.81809 -0.7982,1.22287 -0.70852,1.06079 -1.055,1.541 -1.77949,2.57142 -0.96088,1.29995 -0.50379,0.68591 -1.37004,1.8431 0,0 9.61101,-4.15806 9.61101,-4.15806 v 0 c 0.81094,-1.14718 0.38178,-0.53611 1.28598,-1.83426 0.80985,-1.19167 4.00405,-4.91035 2.3086,-6.28177 -0.22022,-0.17814 -0.55889,-0.0925 -0.83834,-0.13867 -3.28515,0.33005 -6.55219,0.81406 -9.83038,1.20379 0,0 -8.36661,6.2765 -8.36661,6.2765 z" />
    <path
       style="fill:#000000;stroke:#000000;stroke-width:0.75"
       id="path1291"
       d="m 662.48341,15.283698 c 14.8071,-7.7916565 27.94639,-18.2059325 41.69093,-27.646433 11.30256,-7.763213 16.89697,-11.337998 28.41696,-18.88664 17.53742,-11.370226 9.06507,-5.879675 25.41655,-16.472322 0,0 -7.81635,3.048768 -7.81635,3.048768 v 0 c -15.95199,10.451464 -7.65171,5.025252 -24.90361,16.274439 -11.65616,7.635795 -17.22177,11.208642 -28.71668,19.0283067 -4.26509,2.9014295 -8.48408,5.8700731 -12.72911,8.80078915 -3.52283,2.43211575 -7.01413,4.91080195 -10.57445,7.28770155 -2.60622,1.7399405 -5.41494,3.1815051 -7.92241,5.0609766 -1.61273,1.208821 3.48433,-2.026827 5.22649,-3.0402406 0,0 -8.08832,6.5446546 -8.08832,6.5446546 z" />
    <path
       style="fill:#000000;stroke:#000000;stroke-width:0.75"
       id="path1293"
       d="m 768.88375,-86.994943 c 0.76935,4.891058 1.16557,9.83058 1.59127,14.760441 0,0 9.0264,-4.711806 9.0264,-4.711806 v 0 c -0.5535,-4.961272 -1.00567,-9.932333 -1.3821,-14.91024 0,0 -9.23557,4.861605 -9.23557,4.861605 z" />
    <path
       style="fill:#000000;stroke:#000000;stroke-width:0.75"
       id="path1295"
       d="m 766.67342,-109.17957 c 1.39493,0.56471 2.83275,0.99753 4.29795,1.33357 0,0 8.63205,-6.01784 8.63205,-6.01784 v 0 c -1.4256,-0.23622 -2.82937,-0.56734 -4.16137,-1.14363 0,0 -8.76863,5.8279 -8.76863,5.8279 z" />
    <path
       style="fill:#000000;stroke:#000000;stroke-width:0.75"
       id="path1297"
       d="m 789.02747,-94.839193 c 1.9545,5.46921 4.38293,10.721677 7.05623,15.871515 0.4263,0.54723 0.70125,1.257675 1.27897,1.64169 0.4965,0.330053 1.22003,0.645428 1.7496,0.371498 3.85575,-1.994513 7.56375,-4.31814 11.00228,-6.967883 0.525,-0.404595 4.89877,-7.053675 5.08867,-7.337813 0,0 -9.04507,3.946148 -9.04507,3.946148 v 0 c -0.9066,1.302825 -1.76633,2.639535 -2.7198,3.908467 -0.86453,1.150606 -4.16475,3.229186 -2.73023,3.344836 2.4702,0.199132 4.55205,-1.963178 6.79493,-3.017168 0.4143,-0.1947 -0.87263,0.593993 -1.3023,0.436057 -0.59175,-0.217522 -0.85718,-0.924885 -1.2858,-1.387335 -2.76938,-5.006835 -5.21828,-10.201717 -6.62348,-15.774832 0,0 -9.264,4.96482 -9.264,4.96482 z" />
    <path
       style="fill:#000000;stroke:#000000;stroke-width:0.75"
       id="path1299"
       d="m 446.19213,-104.21004 c 5.77077,-7.65258 12.18944,-14.77171 18.81106,-21.68871 1.02632,-1.04908 2.05264,-2.09815 3.07896,-3.14722 0,0 -9.17036,3.81793 -9.17036,3.81793 v 0 c -0.98263,1.03388 -1.96526,2.06777 -2.94789,3.10166 -6.69941,7.13366 -13.19124,14.45379 -19.35982,22.05408 0,0 9.58805,-4.13774 9.58805,-4.13774 z" />
    <path
       style="fill:#000000;stroke:#000000;stroke-width:0.75"
       id="path1301"
       d="m 550.2052,-125.05995 c 8.66273,-7.56736 16.69658,-15.79711 24.81142,-23.93681 6.09405,-6.18281 13.00176,-11.42682 19.90421,-16.64865 0,0 -8.66607,3.45513 -8.66607,3.45513 v 0 c -6.84718,5.27962 -13.69778,10.58092 -19.79891,16.7384 -8.43656,8.37419 -16.83749,16.79234 -25.97156,24.41847 0,0 9.72091,-4.02654 9.72091,-4.02654 z" />
    <path
       style="fill:#000000;stroke:#000000;stroke-width:0.75"
       id="path1303"
       d="m 670.13419,-122.40087 c 15.67443,-8.42544 31.23195,-17.07163 46.83051,-25.63786 0,0 6.5194,-5.25672 6.5194,-5.25672 v 0 c -14.97038,8.23824 -29.94598,16.47057 -45.09435,24.37863 0,0 -8.25556,6.51595 -8.25556,6.51595 z" />
    <path
       style="fill:#000000;stroke:#000000;stroke-width:0.75"
       id="path1305"
       d="m 783.62072,-134.1299 c -10.839,4.90298 -21.01755,11.16739 -31.26195,17.17556 -0.8382,0.8007 -1.77435,1.51004 -2.51462,2.4021 -3.09414,3.7287 -4.17407,9.03235 -3.88443,13.76466 0.0869,1.419077 0.40501,2.814474 0.60753,4.221714 2.13669,9.164963 7.30262,17.000371 12.8875,24.405938 3.76717,4.799256 8.4414,8.894385 14.33362,10.815821 1.21845,0.397341 2.4879,0.616727 3.73185,0.925091 1.4091,0.146079 2.81085,0.416383 4.2273,0.438236 3.21225,0.04955 7.7439,-0.532158 10.88393,-1.005005 5.00782,-0.754123 9.83887,-1.912821 14.70862,-3.273293 4.18778,-1.324043 8.2566,-3.039029 12.04268,-5.276602 4.431,-2.618707 10.5708,-5.453273 14.4687,-9.601348 0.78045,-0.83055 1.40887,-1.791862 2.11327,-2.68779 0.46613,-1.024755 1.07445,-1.996088 1.3983,-3.074273 1.5657,-5.212627 -0.21307,-11.108932 -2.26912,-15.914749 -0.61065,-1.42746 -1.37333,-2.78499 -2.06003,-4.17748 -0.89392,-1.33679 -1.6653,-2.76426 -2.68185,-4.01036 -5.4876,-6.72681 -13.58415,-10.80721 -21.18015,-14.63663 -6.09397,-3.00759 -12.6981,-4.47444 -19.36485,-5.49877 0,0 -8.27055,5.83908 -8.27055,5.83908 v 0 c 6.6795,0.80013 13.26945,2.14903 19.37678,5.09874 7.545,3.65955 15.53782,7.50969 20.92635,14.18528 0.98235,1.21699 1.72972,2.60617 2.59462,3.90926 0.6618,1.364154 1.40115,2.693319 1.98533,4.092452 1.9404,4.64736 3.52102,10.33068 1.74435,15.287648 -0.3618,1.009537 -0.98873,1.90332 -1.48313,2.85498 -0.71362,0.83967 -1.3602,1.741245 -2.14072,2.519017 -0.84158,0.838514 -3.88208,2.509395 -2.7102,2.314424 1.96312,-0.32661 3.46642,-1.975484 5.30145,-2.745546 1.30102,-0.54597 -2.43443,1.430443 -3.69203,2.070162 -3.55057,1.806159 -4.52535,2.040601 -8.27257,3.424609 -4.87523,1.438858 -9.70545,2.678896 -14.73495,3.476854 -3.01448,0.478266 -7.46985,1.068791 -10.57118,1.053076 -1.3704,-0.007 -2.73015,-0.242267 -4.09522,-0.363401 -1.2057,-0.273663 -2.43465,-0.459948 -3.61718,-0.820989 -5.77545,-1.763348 -10.38997,-5.706708 -14.16007,-10.294734 -5.6019,-7.189958 -10.61835,-14.93523 -12.60878,-23.966292 -0.16305,-1.36323 -0.44137,-2.71758 -0.48915,-4.0897 -0.16042,-4.6112 1.09695,-9.61229 4.28708,-13.07612 0.7566,-0.82158 1.68517,-1.46634 2.5278,-2.19951 -1.75905,0.98115 -3.47318,2.0475 -5.277,2.94345 -1.36058,0.67575 2.62425,-1.53115 3.94492,-2.28186 4.9095,-2.79069 9.8796,-5.49336 15.01905,-7.8401 0,0 8.2287,-6.3836 8.2287,-6.3836 z" />
    <path
       style="fill:#000000;stroke:#000000;stroke-width:0.75"
       id="path1307"
       d="m 791.2303,-136.43344 c 0.18307,-0.94164 0.41887,-1.87455 0.54937,-2.82492 0.2397,-1.74601 1.43738,-13.44585 1.51118,-14.17494 0.85987,-8.50305 1.6287,-17.00611 2.286,-25.52697 0.42037,-5.96685 0.74542,-11.94017 0.9276,-17.91898 0,0 -9.09593,4.63071 -9.09593,4.63071 v 0 c 0.14393,5.83089 0.0585,11.66466 -0.2217,17.49114 -0.50947,8.51202 -1.17412,16.98156 -2.23492,25.4464 -0.61793,4.93073 -1.26015,9.61399 -2.33153,14.44848 -0.21682,0.97854 -0.55672,1.92571 -0.83505,2.88856 0,0 9.44498,-4.45948 9.44498,-4.45948 z" />
    <path
       style="fill:#000000;stroke:#000000;stroke-width:0.75"
       id="path1309"
       d="m 764.34445,-243.23658 c 3.5364,-0.59279 7.0872,-1.09731 10.64062,-1.57628 1.2762,-0.17202 4.16768,-0.60793 5.58585,-0.55986 0.60518,0.0205 1.19438,0.20045 1.79153,0.30068 0.1665,0.35645 0.5049,0.67598 0.49942,1.06936 -0.0172,1.23036 -1.36732,3.57978 -1.8651,4.40386 -1.66125,2.7499 -3.7389,5.2529 -5.70195,7.78668 -1.90042,2.44178 -3.97635,4.77189 -5.54647,7.45035 -1.16205,2.52129 2.02792,2.54073 3.6903,2.76159 6.72802,0.44417 13.48275,0.28632 20.21955,0.14017 0,0 8.26372,-6.04891 8.26372,-6.04891 v 0 c -6.68137,0.32678 -13.39747,0.5629 -20.07045,-0.031 -0.65227,-0.0915 -1.3038,-0.18857 -1.9569,-0.2744 -1.1397,-0.14981 -1.10587,0.27444 -0.52965,-0.81096 1.55258,-2.53729 3.4755,-4.81829 5.25458,-7.19515 1.94377,-2.57879 4.05247,-5.13685 5.62717,-7.96804 0.79718,-1.43327 1.91295,-3.5739 1.61453,-5.36713 -0.1143,-0.68715 -0.68813,-1.21139 -1.03223,-1.81709 -0.67485,-0.15297 -1.3341,-0.41353 -2.02462,-0.45891 -1.4586,-0.0959 -4.4601,0.41718 -5.77778,0.60356 -3.4467,0.48755 -6.8919,0.99847 -10.356,1.35016 0,0 -8.32612,6.24135 -8.32612,6.24135 z" />
    <path
       style="fill:#000000;stroke:#000000;stroke-width:0.75"
       id="path1311"
       d="m 768.74755,-233.90225 c 5.66542,-1.21053 11.34615,-2.25808 17.09842,-2.95299 4.24763,-0.4533 8.5158,-0.63906 12.78315,-0.77586 0,0 8.25075,-6.04655 8.25075,-6.04655 v 0 c -4.3272,0.21626 -8.65552,0.43862 -12.9717,0.8242 -5.62957,0.6004 -11.18737,1.57044 -16.7433,2.65056 0,0 -8.41732,6.30064 -8.41732,6.30064 z" />
    <path
       style="fill:#000000;stroke:#000000;stroke-width:0.75"
       id="path1313"
       d="m 814.72465,-125.00158 c 3.17287,-3.4576 6.42772,-6.83738 9.47745,-10.4076 2.37757,-2.78335 4.6701,-5.63822 7.00357,-8.45863 11.83538,-14.30511 4.79333,-5.84393 16.91993,-20.34861 6.9936,-8.27232 13.85835,-16.65147 20.69407,-25.05417 0,0 -8.48625,3.62622 -8.48625,3.62622 v 0 c -6.5427,8.34226 -13.14127,16.64094 -19.9932,24.73345 -11.43675,13.62882 -22.64767,27.50098 -35.2944,40.04451 0,0 9.67883,-4.13517 9.67883,-4.13517 z" />
    <path
       style="fill:#000000;stroke:#000000;stroke-width:0.75"
       id="path1315"
       d="m 911.93942,-232.17833 c -9.80512,4.55065 -19.21867,9.90888 -28.275,15.8064 -3.84255,2.58662 -7.50232,5.42934 -11.15977,8.26758 0,0 9.48277,-3.79302 9.48277,-3.79302 v 0 c 3.56888,-2.81004 7.16018,-5.60005 10.9623,-8.09233 4.8444,-3.10617 5.04225,-3.13266 -1.52145,0.55856 -1.17082,0.65841 2.33813,-1.32338 3.52178,-1.95834 2.74942,-1.4749 3.75015,-1.9331 6.50887,-3.2302 0.78008,-0.3668 1.56368,-0.72613 2.34555,-1.0892 0,0 8.13495,-6.46945 8.13495,-6.46945 z" />
    <path
       style="fill:#000000;stroke:#000000;stroke-width:0.75"
       id="path1317"
       d="m 869.02742,-231.47849 c 0.51645,0.56283 1.00013,1.15754 1.54928,1.68846 1.75035,1.69222 5.05762,4.49328 6.82342,5.98102 3.6249,3.05411 7.3188,6.02111 11.01968,8.98202 3.64125,2.92092 1.91767,1.53026 5.17312,4.16916 0,0 8.5908,-5.41031 8.5908,-5.41031 v 0 c -3.38842,-2.54867 -1.60305,-1.19899 -5.3538,-4.05208 -5.9772,-4.60726 -12.38917,-9.34227 -17.44837,-14.96539 -0.48263,-0.53636 -0.88478,-1.13992 -1.3272,-1.70987 0,0 -9.02693,5.31699 -9.02693,5.31699 z" />
    <path
       style="fill:#000000;stroke:#000000;stroke-width:0.75"
       id="path1319"
       d="m 843.63055,-111.88873 c 2.19105,-1.13526 4.35217,-2.3304 6.57322,-3.40577 10.30838,-4.99092 22.90238,-10.63487 33.19193,-15.26044 16.1361,-7.25389 32.3124,-14.41926 48.48,-21.60257 3.49987,-1.55735 6.99983,-3.1147 10.49978,-4.67206 0,0 6.84427,-5.43092 6.84427,-5.43092 v 0 c -3.64042,1.66961 -7.28092,3.33923 -10.92135,5.00885 -16.33455,7.41794 -32.6838,14.80047 -49.08053,22.08054 -10.5186,4.67025 -21.10245,9.19415 -31.58865,13.93683 -1.9869,0.89864 -3.9318,1.88755 -5.89762,2.83133 0,0 -8.10105,6.51421 -8.10105,6.51421 z" />
    <path
       style="fill:#000000;stroke:#000000;stroke-width:0.75"
       id="path1321"
       d="m 1011.0323,-197.72772 c -1.9684,-3.27316 -4.2695,-5.30433 -7.6359,-7.05452 -3.1202,-1.35621 -6.42332,-1.66419 -9.68282,-0.59149 -0.70043,0.2305 -1.36388,0.56088 -2.04585,0.84132 -5.20275,2.99437 -12.63653,5.63326 -15.4491,11.72394 -0.91515,1.9817 -1.04918,3.36302 -1.45433,5.47316 -0.24525,3.49078 -0.30727,7.68583 2.13383,10.53525 0.40507,0.47283 0.92812,0.8302 1.39222,1.2453 0.67545,0.27904 1.31903,0.65333 2.02643,0.83712 7.62795,1.98205 14.70525,-4.32393 20.44842,-7.83991 3.3234,-3.23921 6.1953,-7.09975 7.5036,-11.61689 0.2292,-0.7914 0.3437,-1.6116 0.5156,-2.41739 0.5164,-4.2634 0.075,-8.58728 -1.2521,-12.67269 -0.3112,-0.95817 -0.7038,-1.88795 -1.0557,-2.83193 -1.5605,-4.05999 -3.7428,-7.79229 -6.62727,-11.05366 -1.85843,-2.10124 -2.8587,-2.90894 -4.9044,-4.76235 -3.32115,-3.01378 -6.95055,-4.92137 -11.25233,-6.04325 -1.59547,-0.45086 -3.21427,-0.49323 -4.85542,-0.46835 -1.00943,0.005 -2.01788,0.0289 -3.0261,0.0753 0,0 -8.47823,6.22613 -8.47823,6.22613 v 0 c 1.008,-0.0566 2.0154,-0.11999 3.02558,-0.12266 1.59742,-0.0216 3.20122,-0.0977 4.7802,0.2136 4.28835,0.8549 7.87252,2.57325 11.21895,5.4505 2.04472,1.78676 3.0243,2.53066 4.85032,4.59803 2.8044,3.17499 4.85978,6.87122 6.38805,10.80743 1.73115,4.92803 2.84225,9.78136 1.95758,15.02668 -0.18968,0.76223 -0.32865,1.53888 -0.56903,2.28668 -1.40512,4.3718 -4.27687,8.08025 -7.69395,11.07286 2.19765,-1.14593 4.41465,-2.25559 6.59303,-3.43779 0.67762,-0.36777 -1.36425,0.7299 -2.0889,0.99341 -2.79563,1.01669 -5.9163,1.24937 -8.7186,0.19887 -0.41295,-0.33279 -0.8793,-0.60845 -1.23885,-0.99836 -2.35523,-2.55439 -2.16533,-6.56578 -1.89863,-9.74191 0.88643,-3.94133 1.63568,-6.1916 4.77548,-8.93864 0.56632,-0.49546 2.48265,-1.68654 1.81065,-1.34801 -2.3652,1.19154 -4.608,2.61197 -6.912,3.91796 4.07257,-1.99031 6.79522,-2.56709 11.15145,-0.95406 3.2058,1.50617 5.49802,3.37632 7.12622,6.58613 0,0 9.1419,-5.21583 9.1419,-5.21583 z" />
    <path
       style="fill:#000000;stroke:#000000;stroke-width:0.75"
       id="path1323"
       d="m 756.69722,-81.90845 c 10.32885,-12.871426 23.42603,-23.20432 36.13965,-33.58239 5.55503,-4.53454 11.14163,-9.0303 16.7124,-13.54545 32.24805,-26.18037 64.78118,-52.04803 98.3037,-76.58808 4.3476,-3.18258 8.75003,-6.28945 13.12508,-9.43419 10.99335,-7.8665 22.54538,-14.88741 34.20953,-21.69849 0,0 -8.89403,3.42416 -8.89403,3.42416 v 0 c -11.18903,6.6862 -22.28258,13.55089 -32.81798,21.24436 -37.60387,27.57031 -74.02207,56.69538 -110.52172,85.70034 -5.79105,4.60572 -11.59733,9.19246 -17.37323,13.81717 -13.45965,10.77701 -27.19642,21.534987 -38.40735,34.73867 0,0 9.52395,-4.0761 9.52395,-4.0761 z" />
    <path
       style="fill:#000000;stroke:#000000;stroke-width:0.75"
       id="path1325"
       d="m 736.5641,-283.75668 c 2.80903,2.56465 5.57014,5.18279 8.42708,7.69395 6.05922,5.32589 12.23892,10.51338 18.31924,15.81521 17.77328,15.49769 45.54728,40.0161 62.0097,54.90186 30.09705,27.21465 45.4863,41.81959 74.97135,69.37546 41.11171,39.158927 21.6327,20.40467 58.49161,56.205842 0,0 4.01235,-2.476282 4.01235,-2.476282 v 0 c -38.36873,-34.80299 -18.24135,-16.460641 -60.35461,-55.05746 -30.58357,-28.30058 -44.23425,-40.72508 -74.55757,-69.63157 -11.33393,-10.80427 -22.54005,-21.74174 -33.79523,-32.62797 -15.63382,-15.12139 -27.0717,-25.87909 -41.57137,-41.11099 -2.54236,-2.67072 -4.90329,-5.50842 -7.35493,-8.26263 0,0 -8.59762,5.17458 -8.59762,5.17458 z" />
    <path
       style="fill:#000000;stroke:#000000;stroke-width:0.75"
       id="path1327"
       d="m 558.51299,46.718963 c 30.78316,-12.710586 61.7382,-24.994064 92.74032,-37.1585803 0,0 5.72407,-4.4979488 5.72407,-4.4979488 v 0 C 626.95102,17.057076 596.97462,29.214073 566.61955,40.357085 c 0,0 -8.10656,6.361878 -8.10656,6.361878 z" />
    <path
       style="fill:#ff0000;stroke:#000000;stroke-width:0.75"
       id="path1329"
       d="m 529.07416,-45.38158 c 1.09597,1.042348 2.15877,2.120727 3.28791,3.127043 10.90473,9.718545 22.67235,18.40749 34.6047,26.810845 15.59504,10.9828094 23.51118,15.98113718 39.56995,26.514844 16.90237,10.957578 34.01641,21.581968 51.1015,32.250476 0,0 6.63823,-4.293338 6.63823,-4.293338 v 0 C 646.72181,28.823806 629.19836,18.555162 612.19269,7.4461951 595.93299,-3.3626051 588.74252,-7.8024935 573.25017,-19.413645 c -11.42255,-8.560922 -22.57575,-17.633724 -32.42393,-28.001163 -1.01138,-1.064704 -1.92147,-2.221235 -2.88219,-3.331852 0,0 -8.86989,5.36508 -8.86989,5.36508 z" />
    <path
       style="fill:#ff0000;stroke:#000000;stroke-width:0.75"
       id="path1331"
       d="m 570.19794,49.060065 c -0.31394,0.203991 -1.27147,0.789459 -0.94182,0.611973 3.60498,-1.940933 7.15625,-3.981003 10.77085,-5.903955 8.97584,-4.775106 17.00778,-8.877016 26.3222,-13.021724 12.40409,-5.519542 15.42919,-6.370944 28.12166,-10.987121 15.84741,-5.198157 8.29057,-2.815527 22.65484,-7.197435 0,0 7.02851,-5.4380634 7.02851,-5.4380634 v 0 c -14.75589,4.6856694 -7.01565,2.1706143 -23.20972,7.5788524 -12.76706,4.619732 -15.70029,5.437966 -28.17679,10.934817 -17.91477,7.892821 -35.07208,17.395426 -52.04819,27.10414 0,0 9.47846,-3.681484 9.47846,-3.681484 z" />
    <path
       style="fill:#ff0000;stroke:#000000;stroke-width:0.75"
       id="path1333"
       d="m 535.06757,146.01761 c 13.87984,-5.25467 27.61212,-10.87662 41.204,-16.83357 11.79786,-5.41697 6.10301,-2.76375 17.09005,-7.94784 0,0 7.19514,-5.73219 7.19514,-5.73219 v 0 c -11.12581,5.33191 -5.38092,2.62574 -17.24125,8.10455 -13.13867,5.73602 -26.3799,11.26391 -39.93894,15.94153 0,0 -8.309,6.46752 -8.309,6.46752 z" />
    <path
       style="fill:#ff0000;stroke:#000000;stroke-width:0.75"
       id="path1335"
       d="m 536.96146,93.681952 c 11.73279,14.754468 24.63406,28.495598 37.70396,42.058228 2.67341,2.72068 5.34683,5.44137 8.02025,8.16206 0,0 7.4887,-4.59102 7.4887,-4.59102 v 0 c -2.74082,-2.67324 -5.48164,-5.34648 -8.22247,-8.01973 -3.01662,-3.10495 -6.09125,-6.15459 -9.04989,-9.31485 -9.81905,-10.48822 -19.16123,-21.52856 -26.9174,-33.649471 0,0 -9.02315,5.354783 -9.02315,5.354783 z" />
    <path
       style="fill:#ff0000;stroke:#000000;stroke-width:0.75"
       id="path1337"
       d="m 486.89857,209.06545 c 1.0301,-0.91338 2.01798,-1.87673 3.0903,-2.74015 4.3097,-3.4701 9.11815,-6.84778 13.64524,-9.97717 7.29497,-5.04269 14.74286,-9.85191 22.19472,-14.65722 1.75929,-1.11321 3.51859,-2.22642 5.27788,-3.33963 0,0 -8.98958,3.49736 -8.98958,3.49736 v 0 c -1.67979,1.08472 -3.35958,2.16944 -5.03937,3.25417 -7.3416,4.80207 -14.68392,9.60192 -21.90732,14.58141 -4.73845,3.26648 -9.82572,6.8132 -14.3826,10.37475 -1.20746,0.94372 -2.33957,1.98007 -3.50936,2.9701 0,0 9.62009,-3.96362 9.62009,-3.96362 z" />
    <path
       style="fill:#ff0000;stroke:#000000;stroke-width:0.75"
       id="path1339"
       d="m 467.99,167.17661 c 12.16877,13.95722 25.76366,26.52791 39.77936,38.58921 5.091,4.33245 10.32314,8.49267 15.57094,12.63185 0,0 8.27603,-5.23224 8.27603,-5.23224 v 0 c -5.47618,-3.93774 -10.91459,-7.93001 -16.12237,-12.22216 -2.42896,-2.02004 -4.89595,-3.9952 -7.28687,-6.06012 -11.50611,-9.93724 -22.38429,-20.71353 -31.50219,-32.91375 0,0 -8.7149,5.20721 -8.7149,5.20721 z" />
    <path
       style="fill:#ff0000;stroke:#000000;stroke-width:0.75"
       id="path1341"
       d="m 258.75319,180.76616 c -3.24279,0.35361 -6.50276,0.50479 -9.75156,0.79291 -2.63347,0.29003 -5.30694,0.59087 -7.74018,1.6877 -5.90752,2.85078 -9.96601,4.88135 -13.52478,9.67145 -1.32993,1.77328 -2.4705,3.68233 -3.46939,5.65902 -0.6649,1.45768 -0.93558,2.9297 -0.74108,4.51327 0.31714,1.95726 1.00599,3.8331 1.82163,5.63259 0.74385,1.61856 1.7839,3.05124 2.90751,4.42147 1.7052,1.98428 3.79717,3.53408 6.05998,4.81654 3.71858,1.88387 7.85084,2.62389 11.90073,3.43366 5.11675,0.94279 10.26077,1.65612 15.46161,1.82937 4.145,0.20078 8.2443,-0.11454 12.27467,-1.08053 3.44355,-0.77167 6.64118,-2.26626 9.79791,-3.79787 5.65654,-3.00448 11.62666,-5.66318 16.59568,-9.74784 1.87232,-1.55046 2.42365,-3.20882 2.68382,-5.54389 0.19773,-3.57097 -1.38027,-6.75712 -3.04735,-9.80638 -1.69439,-3.14053 -4.14119,-5.61909 -6.98011,-7.72242 -2.83313,-1.97322 -5.96473,-3.42584 -9.14108,-4.74492 -3.76514,-1.69129 -7.85223,-2.06228 -11.91552,-2.36802 -5.1541,-0.15855 -10.31389,-0.0335 -15.4611,0.25404 -2.60575,0.10237 -5.16651,0.52211 -7.68466,1.17795 -0.2152,0.0584 -0.43039,0.11683 -0.64559,0.17524 0,0 -8.33854,6.42059 -8.33854,6.42059 v 0 c 0.221,-0.0663 0.44201,-0.13265 0.66302,-0.19898 2.52017,-0.74208 5.07109,-1.34258 7.70935,-1.46638 5.14257,-0.36525 10.30074,-0.57301 15.45665,-0.42334 3.94674,0.2783 7.91118,0.63325 11.59585,2.19666 3.12668,1.24669 6.2212,2.60167 8.98733,4.55089 2.78284,1.94355 5.16846,4.26988 6.81742,7.27926 1.56858,2.88657 2.99697,5.90968 2.59998,9.28599 -0.39884,2.13955 -1.2334,3.49174 -2.99298,4.81219 -2.89884,2.15792 -8.30906,5.0686 5.53455,-2.92361 0.45548,-0.26296 -0.91681,0.51572 -1.3792,0.76633 -0.16921,0.0917 -2.83465,1.49802 -2.97215,1.57059 -3.12057,1.53917 -6.24825,3.13917 -9.65426,3.95499 -4.09157,1.10927 -7.97032,1.58176 -12.2298,1.40352 -5.15709,-0.11721 -10.26917,-0.76464 -15.34183,-1.70202 -3.93191,-0.78776 -7.93373,-1.5086 -11.57335,-3.26947 -2.17051,-1.17864 -4.19587,-2.59913 -5.7865,-4.51651 -1.05206,-1.31067 -2.05952,-2.65564 -2.77083,-4.18939 -0.76601,-1.69708 -1.44514,-3.45987 -1.62417,-5.32856 -0.0438,-1.41087 0.32443,-2.72552 0.9815,-3.97759 1.01672,-1.91115 2.13344,-3.77109 3.49682,-5.45929 0.70218,-0.85396 1.40175,-1.69174 2.23494,-2.42405 2.67813,-2.35386 8.54825,-4.75389 -6.45861,3.4181 2.28175,-1.4085 4.94728,-1.74632 7.57404,-2.07616 3.20626,-0.32284 6.42688,-0.4831 9.64169,-0.70211 0,0 8.42794,-6.25499 8.42794,-6.25499 z" />
    <path
       style="fill:#ff0000;stroke:#000000;stroke-width:0.75"
       id="path1361"
       d="m 131.99393,255.46451 c 7.92164,11.15495 15.8529,22.30261 23.81269,33.43039 4.08352,5.73485 8.07142,11.54648 11.4401,17.73431 0,0 8.8536,-5.11117 8.8536,-5.11117 v 0 c -3.69202,-6.05511 -7.87638,-11.77897 -12.11608,-17.45994 -8.10283,-10.9574 -16.28689,-21.93043 -23.00964,-33.80952 0,0 -8.98067,5.21593 -8.98067,5.21593 z" />
    <path
       style="fill:#ff0000;stroke:#000000;stroke-width:0.75"
       id="path1363"
       d="m 139.30593,295.70422 c 7.55538,-7.08291 15.09152,-14.18529 22.72896,-21.18009 6.82493,-6.02253 13.69666,-11.98852 20.45858,-18.08205 0,0 -9.19879,3.75898 -9.19879,3.75898 v 0 c -6.63721,6.08592 -13.44286,11.97834 -20.16684,17.96747 -7.82362,7.18469 -15.52831,14.50124 -23.50374,21.51853 0,0 9.68183,-3.98284 9.68183,-3.98284 z" />
    <path
       style="fill:#ff0000;stroke:#000000;stroke-width:0.75"
       id="path1532"
       d="m 477.43244,261.35708 c 12.29297,5.20381 24.31202,11.03829 36.23558,17.03262 10.24929,5.20589 20.15838,11.0332 30.0033,16.95604 1.76063,1.06928 3.57866,2.03622 5.40729,2.982 0,0 8.66713,-5.71998 8.66713,-5.71998 v 0 c -1.90055,-0.85437 -3.78167,-1.75026 -5.6042,-2.76372 -10.20058,-5.62747 -20.39621,-11.26795 -30.81431,-16.48888 -11.72108,-5.96101 -23.56401,-11.67903 -35.20635,-17.79533 0,0 -8.68844,5.79725 -8.68844,5.79725 z" />
    <path
       style="fill:#ff0000;stroke:#000000;stroke-width:0.75"
       id="path1534"
       d="m 501.47196,295.38737 c 7.40086,-7.31029 14.68331,-14.74015 22.03774,-22.09848 8.66205,-8.96858 17.30626,-17.95052 26.16122,-26.72936 0,0 -9.22094,3.82421 -9.22094,3.82421 v 0 c -8.5863,8.82151 -17.07897,17.73291 -25.69257,26.52766 -7.5923,7.50632 -15.05907,15.15255 -22.89574,22.40314 0,0 9.61029,-3.92717 9.61029,-3.92717 z" />
    <path
       style="fill:#ff0000;stroke:#000000;stroke-width:0.75"
       id="path1560"
       d="m 326.03723,296.05092 c 2.56233,7.71564 3.35868,15.97273 3.31582,24.07363 -0.009,1.77463 -0.12457,3.54713 -0.18685,5.32069 -0.42746,5.28417 -0.91594,10.61933 -2.28088,15.75989 0,0 9.42885,-4.54715 9.42885,-4.54715 v 0 c 0.92479,-5.15811 1.3156,-10.39784 1.57249,-15.62626 0.0342,-1.77862 0.11352,-3.55695 0.10254,-5.33586 -0.0513,-8.29924 -0.95352,-16.62515 -2.80212,-24.7166 0,0 -9.14985,5.07166 -9.14985,5.07166 z" />
    <path
       style="fill:#ff0000;stroke:#000000;stroke-width:0.75"
       id="path1562"
       d="m 293.88339,352.87677 c -0.81637,6.10237 -1.36537,12.23467 -2.15337,18.34141 -0.18541,1.94347 -0.63278,3.84747 -0.89477,5.77911 -0.0669,0.49296 -0.42196,1.08484 -0.1289,1.48683 0.32928,0.45168 1.08889,0.76261 1.59349,0.52218 7.37328,-3.51311 8.4374,-4.53336 12.91607,-8.13624 0.6997,-0.56771 2.90121,-2.11365 2.09912,-1.70313 -2.31376,1.18425 -4.62524,2.43508 -6.66837,4.04178 -0.50387,0.39624 1.26463,-0.37236 1.90062,-0.29245 0.70267,0.0883 1.3916,0.38012 1.97638,0.77957 1.84275,1.25873 2.5147,2.77233 3.68609,4.61331 1.08055,2.48773 2.51202,5.62201 0.96577,8.30414 -0.39057,0.67749 -2.37292,2.00794 -1.6897,1.62749 8.72972,-4.86114 8.19413,-4.33133 3.33215,-3.98645 -1.11358,-0.24795 -2.25168,-0.40404 -3.34075,-0.74385 -3.94244,-1.23013 -7.84686,-3.53043 -10.84812,-6.36552 3.24231,-2.42109 -4.52871,2.65104 -6.62549,4.2191 -0.59233,0.44297 1.36318,-0.57758 2.06264,-0.81803 0.68545,-0.23563 1.3917,-0.40576 2.08754,-0.60864 0,0 8.15157,-6.26434 8.15157,-6.26434 v 0 c -6.23252,1.62229 -7.68041,2.35384 -14.5844,7.56263 -0.36909,0.27846 0.0479,0.92344 0.0719,1.38515 4.22097,3.67021 9.45228,6.17382 14.82923,7.60554 6.93306,0.27854 4.0027,0.70028 14.29341,-5.98296 0.7084,-0.46007 1.14306,-1.29129 1.44997,-2.07825 1.18322,-3.03391 -0.21625,-6.20481 -1.42484,-8.93483 -1.48799,-2.44665 -3.05862,-5.56584 -6.09937,-6.42616 -0.70334,-0.199 -1.53247,-0.32855 -2.19281,-0.0151 -8.14682,3.86717 -8.30663,4.17652 -12.88987,7.86595 -0.74152,0.56774 -3.0841,2.06842 -2.22455,1.70323 2.44469,-1.03866 4.56276,-2.77003 7.03307,-3.7462 0.40851,-0.16143 -0.13553,1.28151 -0.56522,1.19036 -0.42712,-0.0906 -0.0354,-0.87483 0.002,-1.30985 0.16439,-1.91593 0.59641,-3.80307 0.73281,-5.72217 0.75666,-6.15397 1.27413,-12.36867 2.60963,-18.42993 0,0 -9.46286,4.53631 -9.46286,4.53631 z" />
    <path
       style="fill:#ff0000;stroke:#000000;stroke-width:0.75"
       id="path1564"
       d="m 324.25259,377.86123 c 0.69894,3.39889 1.11976,6.84537 1.74699,10.25702 0.0924,0.64981 0.28774,1.25943 0.56072,1.85116 0,0 9.18879,-5.23545 9.18879,-5.23545 v 0 c -0.27414,-0.48075 -0.41971,-1.00524 -0.53841,-1.54585 -0.76434,-3.37249 -1.28216,-6.79634 -1.6896,-10.22903 0,0 -9.26849,4.90215 -9.26849,4.90215 z" />
    <path
       style="fill:#ff0000;stroke:#000000;stroke-width:0.75"
       id="path1566"
       d="m 325.8773,367.81975 c 0.34094,0.50876 0.63722,1.10193 1.23308,1.38363 0.29105,0.13758 0.66899,0.33531 0.94941,0.17718 3.30245,-1.86237 6.55804,-3.84 9.58772,-6.1194 0.32996,-0.24825 0.50531,-2.64393 0.53211,-2.89522 -0.0758,-2.40287 -0.4795,-4.42376 -2.74716,-5.5828 0,0 -8.73271,5.88785 -8.73271,5.88785 v 0 c 2.00343,0.3672 2.18692,2.55954 2.14363,4.27674 -0.0904,0.44793 -0.12812,0.90982 -0.27127,1.34379 -0.12873,0.39019 -0.91533,1.27145 -0.53789,1.10909 2.89656,-1.24595 5.50283,-3.08796 8.33945,-4.46494 0.21934,-0.10648 -0.17538,0.51989 -0.40132,0.61155 -0.45383,0.18412 -0.93815,-0.9262 -0.98096,-0.99634 0,0 -9.11409,5.26887 -9.11409,5.26887 z" />
    <path
       style="fill:#ff0000;stroke:#000000;stroke-width:0.75"
       id="path1568"
       d="m 346.90875,375.71379 c 0.54888,5.06431 0.8087,10.15508 1.10123,15.2391 0,0 8.92539,-4.62399 8.92539,-4.62399 v 0 c -0.39897,-5.11478 -0.77011,-10.23434 -0.8358,-15.36667 0,0 -9.19082,4.75156 -9.19082,4.75156 z" />
    <path
       style="fill:#ff0000;stroke:#000000;stroke-width:0.75"
       id="path1570"
       d="m 347.12401,368.78188 c 2.84869,-0.92962 5.75055,-1.70297 8.67692,-2.3469 1.08401,-0.23852 4.01653,-0.86058 5.26212,-0.84606 0.58151,0.007 1.14305,0.21502 1.71458,0.32253 0.31942,0.26331 0.75582,0.42884 0.95829,0.78991 0.76121,1.35755 -1.46568,2.69527 -2.22979,3.20885 -0.56375,0.3789 -2.33372,1.39123 -1.74681,1.04931 2.39073,-1.3928 4.77225,-2.80134 7.15837,-4.202 -1.73061,0.87422 -0.91116,0.48056 -2.45283,1.19242 0,0 -8.17575,6.48874 -8.17575,6.48874 v 0 c 1.62848,-0.7246 0.76436,-0.32805 2.58839,-1.19825 3.4925,-2.00881 7.01374,-3.96848 10.47751,-6.02646 1.89193,-1.12408 4.77094,-3.46316 3.20562,-6.00247 -0.30511,-0.49494 -0.85992,-0.78282 -1.28988,-1.17423 -0.66366,-0.18464 -1.30365,-0.50782 -1.99097,-0.55392 -0.8374,-0.0562 -1.67533,0.12666 -2.50515,0.25233 -3.85889,0.58437 -7.62691,1.71188 -11.40478,2.65787 0,0 -8.24584,6.38833 -8.24584,6.38833 z" />
    <path
       style="fill:#ff0000;stroke:#000000;stroke-width:0.75"
       id="path1572"
       d="m 372.24461,364.01582 c 5.32438,4.70072 10.58404,9.4733 15.88999,14.19474 0,0 8.55632,-5.32821 8.55632,-5.32821 v 0 c -5.38769,-4.53869 -10.65141,-9.2387 -15.52238,-14.33452 0,0 -8.92393,5.46799 -8.92393,5.46799 z" />
    <path
       style="fill:#ff0000;stroke:#000000;stroke-width:0.75"
       id="path1574"
       d="m 396.61291,366.09211 c -0.77862,5.24301 -3.45061,10.21218 -5.85092,14.88363 -1.65945,3.05476 -0.85406,1.59652 -2.41132,4.37742 0,0 9.37154,-4.20006 9.37154,-4.20006 v 0 c 1.46419,-2.76242 0.70256,-1.31161 2.2814,-4.35427 2.44657,-4.93386 5.11199,-9.99057 5.98694,-15.47932 0,0 -9.37764,4.7726 -9.37764,4.7726 z" />
  </g>
</svg>
