<?xml version="1.0" encoding="UTF-8" standalone="no"?>
<!-- Generated by graphviz version 5.0.1 (0)
 -->

<!-- Title: symm_tops Pages: 1 -->

<svg
   width="423pt"
   height="332pt"
   viewBox="0.00 0.00 423.14 332.00"
   version="1.1"
   id="svg1861"
   sodipodi:docname="rots.svg"
   inkscape:version="1.2.1 (9c6d41e410, 2022-07-14, custom)"
   xmlns:inkscape="http://www.inkscape.org/namespaces/inkscape"
   xmlns:sodipodi="http://sodipodi.sourceforge.net/DTD/sodipodi-0.dtd"
   xmlns="http://www.w3.org/2000/svg"
   xmlns:svg="http://www.w3.org/2000/svg">
  <defs
     id="defs1865" />
  <sodipodi:namedview
     id="namedview1863"
     pagecolor="#ffffff"
     bordercolor="#666666"
     borderopacity="1.0"
     inkscape:showpageshadow="2"
     inkscape:pageopacity="0.0"
     inkscape:pagecheckerboard="0"
     inkscape:deskcolor="#d1d1d1"
     inkscape:document-units="pt"
     showgrid="false"
     inkscape:zoom="1.5079265"
     inkscape:cx="244.3753"
     inkscape:cy="218.18039"
     inkscape:window-width="1914"
     inkscape:window-height="1053"
     inkscape:window-x="0"
     inkscape:window-y="21"
     inkscape:window-maximized="1"
     inkscape:current-layer="svg1861" />
  <g
     id="graph0"
     class="graph"
     transform="scale(1 1) rotate(0) translate(4 328)">
    <title
       id="title1688">symm_tops</title>
    <polygon
       fill="white"
       stroke="none"
       points="-4,4 -4,-328 419.14,-328 419.14,4 -4,4"
       id="polygon1690" />
    <!-- rots -->
    <g
       id="node1"
       class="node">
      <title
         id="title1692">rots</title>
      <ellipse
         fill="none"
         stroke="black"
         cx="120.35"
         cy="-306"
         rx="29.5"
         ry="18"
         id="ellipse1694" />
      <text
         text-anchor="middle"
         x="120.35"
         y="-302.3"
         font-family="Times,serif"
         font-size="14.00"
         id="text1696">rots</text>
    </g>
    <!-- rota -->
    <g
       id="node2"
       class="node">
      <title
         id="title1699">rota</title>
      <ellipse
         fill="none"
         stroke="black"
         cx="120.35"
         cy="-234"
         rx="29.8"
         ry="18"
         id="ellipse1701" />
      <text
         text-anchor="middle"
         x="120.35"
         y="-230.3"
         font-family="Times,serif"
         font-size="14.00"
         id="text1703">rota</text>
    </g>
    <!-- rots&#45;&gt;rota -->
    <g
       id="edge1"
       class="edge">
      <title
         id="title1706">rots-&gt;rota</title>
      <path
         fill="none"
         stroke="black"
         d="M120.35,-287.7C120.35,-279.98 120.35,-270.71 120.35,-262.11"
         id="path1708" />
      <polygon
         fill="black"
         stroke="black"
         points="123.85,-262.1 120.35,-252.1 116.85,-262.1 123.85,-262.1"
         id="polygon1710" />
    </g>
    <!-- rotnst -->
    <g
       id="node3"
       class="node">
      <title
         id="title1713">rotnst</title>
      <ellipse
         fill="none"
         stroke="black"
         cx="205.35"
         cy="-162"
         rx="38.99"
         ry="18"
         id="ellipse1715" />
      <text
         text-anchor="middle"
         x="205.35"
         y="-158.3"
         font-family="Times,serif"
         font-size="14.00"
         id="text1717">rotnst</text>
    </g>
    <!-- rota&#45;&gt;rotnst -->
    <g
       id="edge2"
       class="edge">
      <title
         id="title1720">rota-&gt;rotnst</title>
      <path
         fill="none"
         stroke="black"
         d="M137.55,-218.83C149.44,-209.04 165.48,-195.83 178.98,-184.71"
         id="path1722" />
      <polygon
         fill="black"
         stroke="black"
         points="181.5,-187.17 186.99,-178.11 177.05,-181.77 181.5,-187.17"
         id="polygon1724" />
    </g>
    <!-- states -->
    <g
       id="node4"
       class="node">
      <title
         id="title1727">states</title>
      <ellipse
         fill="none"
         stroke="black"
         cx="51.35"
         cy="-162"
         rx="38.99"
         ry="18"
         id="ellipse1729" />
      <text
         text-anchor="middle"
         x="51.35"
         y="-158.3"
         font-family="Times,serif"
         font-size="14.00"
         id="text1731">states</text>
    </g>
    <!-- rota&#45;&gt;states -->
    <g
       id="edge3"
       class="edge">
      <title
         id="title1734">rota-&gt;states</title>
      <path
         fill="none"
         stroke="black"
         d="M105.71,-218.15C96.55,-208.85 84.54,-196.67 74.14,-186.12"
         id="path1736" />
      <polygon
         fill="black"
         stroke="black"
         points="76.43,-183.46 66.92,-178.8 71.44,-188.38 76.43,-183.46"
         id="polygon1738" />
    </g>
    <!-- quartic -->
    <g
       id="node5"
       class="node">
      <title
         id="title1741">quartic</title>
      <ellipse
         fill="none"
         stroke="black"
         cx="120.35"
         cy="-90"
         rx="44.39"
         ry="18"
         id="ellipse1743" />
      <text
         text-anchor="middle"
         x="120.35"
         y="-86.3"
         font-family="Times,serif"
         font-size="14.00"
         id="text1745">quartic</text>
    </g>
    <!-- rota&#45;&gt;quartic -->
    <g
       id="edge4"
       class="edge">
      <title
         id="title1748">rota-&gt;quartic</title>
      <path
         fill="none"
         stroke="black"
         d="M120.35,-215.87C120.35,-191.67 120.35,-147.21 120.35,-118.39"
         id="path1750" />
      <polygon
         fill="black"
         stroke="black"
         points="123.85,-118.19 120.35,-108.19 116.85,-118.19 123.85,-118.19"
         id="polygon1752" />
    </g>
    <!-- alphaa -->
    <g
       id="node9"
       class="node">
      <title
         id="title1755">alphaa</title>
      <ellipse
         fill="none"
         stroke="black"
         cx="224.35"
         cy="-90"
         rx="41.69"
         ry="18"
         id="ellipse1757" />
      <text
         text-anchor="middle"
         x="224.35"
         y="-86.3"
         font-family="Times,serif"
         font-size="14.00"
         id="text1759">alphaa</text>
    </g>
    <!-- rotnst&#45;&gt;alphaa -->
    <g
       id="edge8"
       class="edge">
      <title
         id="title1762">rotnst-&gt;alphaa</title>
      <path
         fill="none"
         stroke="black"
         d="M209.95,-144.05C212.06,-136.26 214.62,-126.82 217,-118.08"
         id="path1764" />
      <polygon
         fill="black"
         stroke="black"
         points="220.42,-118.84 219.66,-108.28 213.66,-117.01 220.42,-118.84"
         id="polygon1766" />
    </g>
    <!-- restst -->
    <g
       id="node6"
       class="node">
      <title
         id="title1769">restst</title>
      <ellipse
         fill="none"
         stroke="black"
         cx="38.35"
         cy="-18"
         rx="38.19"
         ry="18"
         id="ellipse1771" />
      <text
         text-anchor="middle"
         x="38.35"
         y="-14.3"
         font-family="Times,serif"
         font-size="14.00"
         id="text1773">restst</text>
    </g>
    <!-- states&#45;&gt;restst -->
    <g
       id="edge5"
       class="edge">
      <title
         id="title1776">states-&gt;restst</title>
      <path
         fill="none"
         stroke="black"
         d="M49.78,-143.87C47.56,-119.67 43.49,-75.21 40.85,-46.39"
         id="path1778" />
      <polygon
         fill="black"
         stroke="black"
         points="44.32,-45.83 39.92,-36.19 37.35,-46.47 44.32,-45.83"
         id="polygon1780" />
    </g>
    <!-- freq -->
    <g
       id="node7"
       class="node">
      <title
         id="title1783">freq</title>
      <ellipse
         fill="none"
         stroke="black"
         cx="202.35"
         cy="-18"
         rx="29.8"
         ry="18"
         id="ellipse1785" />
      <text
         text-anchor="middle"
         x="202.35"
         y="-14.3"
         font-family="Times,serif"
         font-size="14.00"
         id="text1787">freq</text>
    </g>
    <!-- quartic&#45;&gt;freq -->
    <g
       id="edge6"
       class="edge">
      <title
         id="title1790">quartic-&gt;freq</title>
      <path
         fill="none"
         stroke="black"
         d="M138.55,-73.46C150.16,-63.55 165.35,-50.59 177.99,-39.79"
         id="path1792" />
      <polygon
         fill="black"
         stroke="black"
         points="180.54,-42.22 185.87,-33.07 175.99,-36.9 180.54,-42.22"
         id="polygon1794" />
    </g>
    <!-- wila -->
    <g
       id="node8"
       class="node">
      <title
         id="title1797">wila</title>
      <ellipse
         fill="none"
         stroke="black"
         cx="124.35"
         cy="-18"
         rx="29.8"
         ry="18"
         id="ellipse1799" />
      <text
         text-anchor="middle"
         x="124.35"
         y="-14.3"
         font-family="Times,serif"
         font-size="14.00"
         id="text1801">wila</text>
    </g>
    <!-- quartic&#45;&gt;wila -->
    <g
       id="edge7"
       class="edge">
      <title
         id="title1804">quartic-&gt;wila</title>
      <path
         fill="none"
         stroke="black"
         d="M121.34,-71.7C121.78,-63.98 122.31,-54.71 122.8,-46.11"
         id="path1806" />
      <polygon
         fill="black"
         stroke="black"
         points="126.29,-46.29 123.37,-36.1 119.3,-45.89 126.29,-46.29"
         id="polygon1808" />
    </g>
    <!-- alphaa&#45;&gt;restst -->
    <g
       id="edge9"
       class="edge">
      <title
         id="title1811">alphaa-&gt;restst</title>
      <path
         fill="none"
         stroke="black"
         d="M194.05,-77.6C162.06,-65.56 111.54,-46.54 76.77,-33.46"
         id="path1813" />
      <polygon
         fill="black"
         stroke="black"
         points="78,-30.18 67.41,-29.94 75.53,-36.73 78,-30.18"
         id="polygon1815" />
    </g>
    <!-- alphaa&#45;&gt;freq -->
    <g
       id="edge10"
       class="edge">
      <title
         id="title1818">alphaa-&gt;freq</title>
      <path
         fill="none"
         stroke="black"
         d="M219.02,-72.05C216.51,-64.06 213.45,-54.33 210.64,-45.4"
         id="path1820" />
      <polygon
         fill="black"
         stroke="black"
         points="213.96,-44.28 207.62,-35.79 207.28,-46.38 213.96,-44.28"
         id="polygon1822" />
    </g>
    <!-- alphaa&#45;&gt;wila -->
    <g
       id="edge11"
       class="edge">
      <title
         id="title1825">alphaa-&gt;wila</title>
      <path
         fill="none"
         stroke="black"
         d="M203.14,-74.15C188.14,-63.66 167.91,-49.49 151.7,-38.14"
         id="path1827" />
      <polygon
         fill="black"
         stroke="black"
         points="153.36,-35.04 143.16,-32.17 149.35,-40.77 153.36,-35.04"
         id="polygon1829" />
    </g>
    <!-- zmat -->
    <g
       id="node10"
       class="node">
      <title
         id="title1832">zmat</title>
      <ellipse
         fill="none"
         stroke="black"
         cx="381.35"
         cy="-18"
         rx="33.6"
         ry="18"
         id="ellipse1834" />
      <text
         text-anchor="middle"
         x="381.35"
         y="-14.3"
         font-family="Times,serif"
         font-size="14.00"
         id="text1836">zmat</text>
    </g>
    <!-- alphaa&#45;&gt;zmat -->
    <g
       id="edge12"
       class="edge">
      <title
         id="title1839">alphaa-&gt;zmat</title>
      <path
         fill="none"
         stroke="black"
         d="M252.42,-76.49C278.96,-64.65 318.85,-46.86 347.22,-34.21"
         id="path1841" />
      <polygon
         fill="black"
         stroke="black"
         points="348.66,-37.41 356.37,-30.14 345.81,-31.01 348.66,-37.41"
         id="polygon1843" />
    </g>
    <!-- f3qcm -->
    <g
       id="node11"
       class="node">
      <title
         id="title1846">f3qcm</title>
      <ellipse
         fill="none"
         stroke="black"
         cx="290.35"
         cy="-18"
         rx="39.79"
         ry="18"
         id="ellipse1848" />
      <text
         text-anchor="middle"
         x="290.35"
         y="-14.3"
         font-family="Times,serif"
         font-size="14.00"
         id="text1850">f3qcm</text>
    </g>
    <!-- alphaa&#45;&gt;f3qcm -->
    <g
       id="edge13"
       class="edge">
      <title
         id="title1853">alphaa-&gt;f3qcm</title>
      <path
         fill="none"
         stroke="black"
         d="M239.32,-73.12C247.93,-63.99 258.9,-52.36 268.46,-42.22"
         id="path1855" />
      <polygon
         fill="black"
         stroke="black"
         points="271.12,-44.5 275.43,-34.82 266.02,-39.7 271.12,-44.5"
         id="polygon1857" />
    </g>
  </g>
  <path
     style="fill:#ff0000;stroke:#000000;stroke-width:0.750248"
     id="path2396"
     d="m 400.97579,290.95978 c -5.92279,8.62527 -11.91529,17.19983 -17.74178,25.89117 -3.6816,5.5961 -1.93063,2.92337 -5.25564,8.01643 0,0 6.2552,-2.75092 6.2552,-2.75092 v 0 c 3.14341,-5.01782 1.47296,-2.3826 5.02095,-7.89959 5.91287,-8.91396 11.99622,-17.71568 18.4836,-26.22432 0,0 -6.76233,2.96723 -6.76233,2.96723 z" />
  <path
     style="fill:#ff0000;stroke:#000000;stroke-width:0.750248"
     id="path2402"
     d="m 364.37742,280.85497 c 8.3139,9.24076 15.34542,19.5342 22.46916,29.6934 5.12483,7.17933 9.84985,14.6374 14.98838,21.80645 0.80142,1.20053 1.77398,2.26153 2.74938,3.31864 0,0 6.33237,-3.8547 6.33237,-3.8547 v 0 c -0.98763,-1.02596 -1.94567,-2.07889 -2.86869,-3.16367 -5.66358,-6.79235 -10.64672,-14.12171 -15.86612,-21.25105 -7.13835,-10.11415 -14.20514,-20.27855 -21.4225,-30.33683 0,0 -6.38198,3.78776 -6.38198,3.78776 z" />
  <path
     style="fill:#ff0000;stroke:#000000;stroke-width:0.750248"
     id="path2404"
     d="m 272.0371,335.38869 c 2.39758,-5.18287 5.86355,-9.72103 9.2723,-14.261 3.28679,-4.37753 6.04101,-7.98854 9.35938,-12.35535 6.15334,-8.39097 13.2436,-15.99513 20.75837,-23.16509 0,0 -6.31459,2.60535 -6.31459,2.60535 v 0 c -7.25511,7.19924 -14.13671,14.76907 -20.18333,23.02812 -10.48075,13.73219 0.84977,-1.09128 -9.54157,12.43647 -3.63311,4.72968 -7.26794,9.47193 -10.09773,14.74428 0,0 6.74717,-3.03278 6.74717,-3.03278 z" />
  <path
     style="fill:#ff0000;stroke:#000000;stroke-width:0.750248"
     id="path2406"
     d="m 275.96294,293.43547 c 6.62831,8.43099 13.18009,16.9218 19.76602,25.38617 3.07463,4.00682 6.18897,7.98771 8.94141,12.22587 0,0 6.22331,-3.65365 6.22331,-3.65365 v 0 c -2.94618,-4.158 -6.21439,-8.05694 -9.47691,-11.96912 -6.72583,-8.29215 -13.44882,-16.6457 -19.08489,-25.73334 0,0 -6.36894,3.74407 -6.36894,3.74407 z" />
  <path
     style="fill:#ff0000;stroke:#000000;stroke-width:0.750248"
     id="path2408"
     d="m 196.33482,321.31702 c 2.36015,-3.83022 5.54321,-6.99601 8.71542,-10.14194 3.71119,-3.68045 5.43873,-5.35509 9.22066,-9.05167 5.84547,-5.63315 3.01595,-2.93009 8.48366,-8.1143 0,0 -6.1549,2.53403 -6.1549,2.53403 v 0 c -5.30006,5.13278 -2.53881,2.4541 -8.28252,8.03732 -3.13921,3.04884 -6.29022,6.08553 -9.42291,9.14107 -1.30079,1.26876 -2.63413,2.50584 -3.8875,3.82147 -2.00514,2.10473 -3.77702,4.42632 -5.47165,6.78252 0,0 6.79974,-3.0085 6.79974,-3.0085 z" />
  <path
     style="fill:#ff0000;stroke:#000000;stroke-width:0.750248"
     id="path2410"
     d="m 189.94041,289.06549 c 1.4042,2.7001 2.18307,4.31293 3.94632,7.04469 1.33129,2.06254 2.76759,4.05545 4.16984,6.07041 4.29788,6.17588 8.7116,12.26843 13.11975,18.3656 3.95864,5.48323 2.10883,2.91232 5.55237,7.71059 0,0 5.89566,-3.50202 5.89566,-3.50202 v 0 c -3.69643,-4.6414 -1.72422,-2.14619 -5.90808,-7.49241 -4.55375,-5.98063 -9.09566,-11.96599 -13.1863,-18.27996 -2.58647,-3.99223 -4.09798,-6.49027 -6.03412,-10.58889 -0.44368,-0.93923 -0.79754,-1.91829 -1.1963,-2.87744 0,0 -6.35914,3.54943 -6.35914,3.54943 z" />
  <path
     style="fill:#ff0000;stroke:#000000;stroke-width:0.750248"
     id="path2412"
     d="m 106.43352,330.99753 c 0.26791,-0.31743 0.50606,-0.66257 0.80373,-0.95227 4.19414,-4.08189 9.10316,-7.43135 13.8034,-10.8812 8.82349,-6.44323 4.4728,-3.25639 13.05278,-9.55953 7.09409,-5.21091 3.7131,-2.73277 10.14158,-7.43632 0,0 -6.15729,2.44355 -6.15729,2.44355 v 0 c -6.1821,4.61395 -2.91592,2.18015 -9.79986,7.29959 -8.97619,6.62452 -3.68736,2.74312 -13.03889,9.5527 -5.01666,3.65302 -10.18725,7.17939 -14.73827,11.42172 -0.33345,0.31083 -0.615569,0.67254 -0.923358,1.00881 0,0 6.856178,-2.89705 6.856178,-2.89705 z" />
  <path
     style="fill:#ff0000;stroke:#000000;stroke-width:0.750248"
     id="path2414"
     d="m 104.72062,294.19679 c 7.49105,7.14738 15.12314,14.15116 22.69893,21.21028 5.5765,5.29659 11.30448,10.47189 16.39209,16.25284 0.26415,0.31573 0.52829,0.63145 0.79243,0.94717 0,0 6.26216,-3.79071 6.26216,-3.79071 v 0 c -0.29199,-0.30452 -0.58397,-0.60905 -0.87596,-0.91357 -5.47011,-5.53287 -11.41023,-10.57366 -17.0971,-15.87781 -4.90587,-4.54198 -9.80189,-9.09078 -14.53656,-13.81273 -2.37112,-2.36475 -4.05674,-4.08069 -6.1846,-6.51803 -0.36521,-0.41832 -0.69689,-0.86475 -1.04534,-1.29714 0,0 -6.40605,3.7997 -6.40605,3.7997 z" />
  <path
     style="fill:#ff0000;stroke:#000000;stroke-width:0.750248"
     id="path2416"
     d="m 23.304216,326.42091 c 4.750303,-6.43022 11.417379,-11.05498 17.819231,-15.68881 6.62955,-4.60161 13.28244,-9.16913 19.815011,-13.9081 0,0 -6.493314,2.57314 -6.493314,2.57314 v 0 c -6.372231,4.69691 -12.884097,9.19731 -19.373288,13.7303 -6.656053,4.83488 -13.469517,9.69256 -18.601452,16.21646 0,0 6.833812,-2.92299 6.833812,-2.92299 z" />
  <path
     style="fill:#ff0000;stroke:#000000;stroke-width:0.750248"
     id="path2418"
     d="m 20.452675,284.75523 c 8.391233,9.70506 15.866471,20.16558 23.468532,30.48944 5.035566,6.87833 2.654701,3.60597 7.148168,9.81303 0,0 5.713646,-3.39244 5.713646,-3.39244 v 0 c -4.743363,-6.05304 -2.249922,-2.8497 -7.472928,-9.61576 -7.68929,-10.23322 -15.061507,-20.69354 -22.613729,-31.02737 0,0 -6.243689,3.7331 -6.243689,3.7331 z" />
  <path
     style="fill:#ff0000;stroke:#000000;stroke-width:0.750248"
     id="path2420"
     d="m 34.948179,144.82427 c 0.385398,0.49074 0.757185,0.99249 1.156197,1.47224 1.902492,2.2874 3.876251,4.51484 5.782057,6.79949 4.330728,5.19158 8.524175,10.48502 12.688575,15.81011 5.686574,7.55673 11.74918,14.81786 17.65657,22.2004 0,0 6.093587,-3.6665 6.093587,-3.6665 v 0 c -6.348866,-7.04562 -12.477848,-14.28326 -18.24458,-21.81669 -4.163637,-5.31087 -8.349749,-10.60531 -12.468854,-15.95092 -1.208717,-1.56862 -3.973578,-5.16582 -5.281687,-7.04628 -0.339818,-0.48851 -0.633333,-1.00765 -0.949999,-1.51147 0,0 -6.431866,3.70962 -6.431866,3.70962 z" />
  <path
     style="fill:#ff0000;stroke:#000000;stroke-width:0.750248"
     id="path2422"
     d="m 38.531888,181.48722 c 7.759028,-5.54743 15.197568,-11.51023 22.478891,-17.66546 4.116296,-3.5712 8.091377,-7.29933 12.086423,-11.00409 0,0 -6.283973,2.57916 -6.283973,2.57916 v 0 c -3.872312,3.67046 -7.735157,7.35382 -11.776414,10.84027 -7.539932,6.34255 -15.266681,12.46237 -23.428056,17.99473 0,0 6.923129,-2.74461 6.923129,-2.74461 z" />
  <path
     style="fill:#ff0000;stroke:#000000;stroke-width:0.750248"
     id="path2538"
     d="m 97.28468,214.70866 c 6.85536,8.41773 14.94241,15.70003 22.9761,22.95978 5.79678,5.06797 11.72343,9.98359 17.65966,14.88633 0,0 5.79577,-3.64509 5.79577,-3.64509 v 0 c -6.17526,-4.67496 -12.27589,-9.45277 -18.10423,-14.55875 -7.95371,-7.15012 -15.96947,-14.44215 -21.93107,-23.4102 0,0 -6.39623,3.76793 -6.39623,3.76793 z" />
  <path
     style="fill:#ff0000;stroke:#000000;stroke-width:0.750248"
     id="path2540"
     d="m 110.98305,258.93276 c 0.42399,-0.56371 0.85802,-1.12 1.27196,-1.69112 1.38114,-1.90557 2.96888,-4.28481 4.38628,-6.10372 1.14824,-1.4735 2.33368,-2.91881 3.55562,-4.33179 3.13742,-3.62794 6.08261,-6.64392 9.39467,-10.13233 6.6497,-6.79087 13.5008,-13.37753 20.14047,-20.17806 0,0 -6.33764,2.63846 -6.33764,2.63846 v 0 c -6.44859,6.7673 -13.14231,13.29165 -19.66675,19.98532 -3.36173,3.51979 -6.39719,6.62215 -9.6052,10.26856 -1.2804,1.45538 -2.5278,2.9404 -3.74184,4.45158 -1.62969,2.02856 -3.10095,4.18057 -4.71768,6.21945 -0.46775,0.58988 -0.96999,1.15154 -1.45499,1.72731 0,0 6.7751,-2.85366 6.7751,-2.85366 z" />
  <path
     style="fill:#ff0000;stroke:#000000;stroke-width:0.750248"
     id="path2658"
     d="m 229.70391,217.92329 c -3.29962,0.0938 -6.60065,0.0673 -9.90051,0.15007 -3.7978,0.10572 -7.58388,0.40603 -11.36277,0.78603 -1.74545,0.16412 -3.47729,0.41657 -5.14347,0.97034 -3.32199,1.42504 -6.56998,3.17435 -9.4852,5.30137 -0.9367,0.73987 -1.76153,1.59483 -2.4958,2.53275 -0.89966,1.17209 -1.47052,2.56522 -2.02119,3.92676 -0.79309,1.91245 -1.42995,3.88063 -2.02438,5.8619 -0.71511,2.19682 -0.51667,4.43293 -0.0883,6.65918 0.71396,3.43286 2.51957,5.82212 4.86108,8.33201 3.18705,3.07411 6.80445,5.82644 10.93215,7.51747 1.16163,0.4759 2.37205,0.82272 3.55808,1.23408 7.84552,2.30739 16.05687,2.50118 24.17077,2.47565 4.44384,-0.0763 8.89532,-0.34054 13.27148,-1.15312 2.17028,-0.40299 2.75689,-0.59709 4.85238,-1.14849 5.03294,-1.49536 9.38336,-4.25202 13.87007,-6.96815 0.56579,-0.34251 1.09241,-0.7507 1.59268,-1.18331 0.52753,-0.4562 0.98849,-0.98415 1.48273,-1.47622 1.61945,-1.9562 3.38464,-4.11352 4.05845,-6.62966 0.40867,-1.52606 0.27517,-2.31172 0.23735,-3.8754 -0.43295,-3.08792 -1.7304,-5.9957 -3.89897,-8.2735 -1.8147,-1.9061 -3.10623,-2.61239 -5.29528,-4.11479 -8.32433,-4.66754 -17.75345,-6.61686 -27.06609,-8.19682 -3.59873,-0.54339 -7.22336,-0.85399 -10.85034,-1.12297 0,0 -5.73079,4.11391 -5.73079,4.11391 v 0 c 3.70027,0.15026 7.39879,0.35907 11.07024,0.87703 1.60973,0.25749 3.22642,0.47472 4.82918,0.77248 7.57456,1.40719 15.13818,3.49378 21.88277,7.29757 0.94264,0.65717 1.92783,1.25717 2.82793,1.97151 3.17804,2.52216 5.37216,5.88033 5.80874,9.95351 -0.007,0.62361 0.0444,1.25073 -0.022,1.87084 -0.33853,3.16266 -2.44597,5.81678 -4.49708,8.08924 -0.51178,0.46383 -0.9955,0.96067 -1.53536,1.3915 -1.05384,0.84105 -7.31036,4.72638 2.84653,-1.40801 0.59001,-0.35634 -1.21487,0.65284 -1.83843,0.94652 -1.69718,0.79932 -2.33375,0.97926 -4.11537,1.62006 -2.07856,0.58635 -2.71789,0.80525 -4.87338,1.2497 -4.38861,0.9049 -8.86343,1.2436 -13.33722,1.34387 -8.05065,0.082 -16.21254,-0.0349 -24.00565,-2.30169 -1.14554,-0.40517 -2.31469,-0.74893 -3.43661,-1.21553 -4.02308,-1.67318 -7.55622,-4.35235 -10.63496,-7.39502 -2.2188,-2.42654 -3.92584,-4.7295 -4.5599,-8.02933 -0.35848,-2.15107 -0.43323,-4.27607 0.28386,-6.37191 0.5916,-1.96706 1.25879,-3.90984 2.07623,-5.79605 0.59124,-1.32021 1.18513,-2.66041 2.15728,-3.75268 0.76666,-0.87337 1.60347,-1.68872 2.57572,-2.33388 2.4054,-1.47568 0.82558,-0.50029 -5.42492,3.1047 -0.16518,0.0953 0.33275,-0.18636 0.49829,-0.28101 0.69445,-0.39703 0.37862,-0.24139 1.10363,-0.58697 0.18054,-0.0861 0.36257,-0.16897 0.54384,-0.25344 1.64111,-0.68521 3.37888,-1.01267 5.14406,-1.20138 3.78933,-0.44582 7.59009,-0.79226 11.40621,-0.89319 3.2299,-0.0811 6.46179,-0.0519 9.69234,-0.0128 0,0 6.00987,-4.37475 6.00987,-4.37475 z" />
  <path
     style="fill:#ff0000;stroke:#000000;stroke-width:0.750248"
     id="path2660"
     d="m 186.30099,207.41498 c 8.5934,8.29114 17.96186,15.70471 27.28055,23.14928 8.59114,6.76239 16.95076,13.80738 25.34652,20.80796 3.33174,2.78248 6.75703,5.46018 9.9572,8.39622 1.11831,1.08046 2.16279,2.23348 3.26504,3.32978 0,0 6.30255,-3.87899 6.30255,-3.87899 v 0 c -1.15064,-1.06972 -2.19627,-2.24521 -3.35263,-3.30944 -3.32517,-2.86968 -6.8837,-5.45823 -10.29422,-8.22362 -8.62907,-6.82683 -17.27373,-13.63389 -25.89741,-20.46756 -9.19947,-7.38647 -18.5026,-14.78548 -26.41373,-23.58452 0,0 -6.19387,3.78089 -6.19387,3.78089 z" />
  <path
     style="fill:#ff0000;stroke:#000000;stroke-width:0.750248"
     id="path2662"
     d="m 198.21717,259.40576 c 2.9061,-3.56677 5.79739,-7.13425 9.17396,-10.27987 4.04904,-3.77207 6.35242,-5.40261 10.8369,-8.91241 10.44404,-7.73265 20.8396,-15.54865 31.61662,-22.81552 2.30056,-1.54603 4.66025,-2.99965 7.02734,-4.44032 0,0 -6.7278,2.60643 -6.7278,2.60643 v 0 c -2.22917,1.40603 -4.45092,2.8243 -6.62428,4.31601 -10.56641,7.28005 -20.80433,15.02578 -31.11389,22.66156 -4.69364,3.65028 -6.94996,5.23038 -11.19334,9.14526 -3.54107,3.26694 -6.55112,6.9998 -9.79369,10.54348 0,0 6.79818,-2.82462 6.79818,-2.82462 z" />
  <path
     style="fill:#ff0000;stroke:#000000;stroke-width:0.750248"
     id="path2664"
     d="m 173.96336,137.55584 c 2.30415,1.85869 2.96679,2.4293 5.72296,4.42184 1.247,0.90151 11.80166,8.27664 12.62405,8.85524 6.77834,4.76902 6.42297,4.53841 12.98789,9.25906 7.52736,5.38099 14.80666,11.09083 21.57482,17.40222 1.93548,1.83775 3.8132,3.7343 5.75776,5.56248 0,0 6.30501,-3.91181 6.30501,-3.91181 v 0 c -2.05486,-1.75158 -4.05344,-3.56701 -6.06674,-5.36587 -7.03115,-6.18896 -14.55174,-11.75792 -22.27414,-17.05594 -2.93655,-2.06552 -10.23375,-7.18782 -13.05386,-9.21538 -5.98926,-4.30609 -12.04781,-8.62823 -17.31779,-13.8179 0,0 -6.25996,3.86606 -6.25996,3.86606 z" />
  <path
     style="fill:#ff0000;stroke:#000000;stroke-width:0.750248"
     id="path2666"
     d="m 178.20289,186.29482 c 7.32092,-6.76991 14.9978,-13.13563 22.62047,-19.55882 9.29487,-7.87502 18.60422,-15.73163 28.01868,-23.46347 2.5547,-2.09185 5.12144,-4.1706 7.76143,-6.1544 0,0 -6.85639,2.7387 -6.85639,2.7387 v 0 c -2.44403,1.95176 -4.85158,3.94811 -7.23731,5.97072 -9.21477,7.75711 -18.4195,15.52595 -27.61588,23.30485 -7.87066,6.60516 -15.75011,13.19942 -23.52952,19.91155 0,0 6.83852,-2.74913 6.83852,-2.74913 z" />
</svg>
