<?xml version="1.0" encoding="UTF-8" standalone="no"?>
<!-- Generated by graphviz version 5.0.1 (0)
 -->

<!-- Title: symm_tops Pages: 1 -->

<svg
   width="423pt"
   height="332pt"
   viewBox="0.00 0.00 423.14 332.00"
   version="1.1"
   id="svg1861"
   sodipodi:docname="rots.svg"
   inkscape:version="1.2.1 (9c6d41e410, 2022-07-14, custom)"
   xmlns:inkscape="http://www.inkscape.org/namespaces/inkscape"
   xmlns:sodipodi="http://sodipodi.sourceforge.net/DTD/sodipodi-0.dtd"
   xmlns="http://www.w3.org/2000/svg"
   xmlns:svg="http://www.w3.org/2000/svg">
  <defs
     id="defs1865" />
  <sodipodi:namedview
     id="namedview1863"
     pagecolor="#ffffff"
     bordercolor="#666666"
     borderopacity="1.0"
     inkscape:showpageshadow="2"
     inkscape:pageopacity="0.0"
     inkscape:pagecheckerboard="0"
     inkscape:deskcolor="#d1d1d1"
     inkscape:document-units="pt"
     showgrid="false"
     inkscape:zoom="1.5079265"
     inkscape:cx="244.3753"
     inkscape:cy="218.18039"
     inkscape:window-width="1914"
     inkscape:window-height="1053"
     inkscape:window-x="0"
     inkscape:window-y="21"
     inkscape:window-maximized="1"
     inkscape:current-layer="svg1861" />
  <g
     id="graph0"
     class="graph"
     transform="scale(1 1) rotate(0) translate(4 328)">
    <title
       id="title1688">symm_tops</title>
    <polygon
       fill="white"
       stroke="none"
       points="-4,4 -4,-328 419.14,-328 419.14,4 -4,4"
       id="polygon1690" />
    <!-- rots -->
    <g
       id="node1"
       class="node">
      <title
         id="title1692">rots</title>
      <ellipse
         fill="none"
         stroke="black"
         cx="120.35"
         cy="-306"
         rx="29.5"
         ry="18"
         id="ellipse1694" />
      <text
         text-anchor="middle"
         x="120.35"
         y="-302.3"
         font-family="Times,serif"
         font-size="14.00"
         id="text1696">rots</text>
    </g>
    <!-- rota -->
    <g
       id="node2"
       class="node">
      <title
         id="title1699">rota</title>
      <ellipse
         fill="none"
         stroke="black"
         cx="120.35"
         cy="-234"
         rx="29.8"
         ry="18"
         id="ellipse1701" />
      <text
         text-anchor="middle"
         x="120.35"
         y="-230.3"
         font-family="Times,serif"
         font-size="14.00"
         id="text1703">rota</text>
    </g>
    <!-- rots&#45;&gt;rota -->
    <g
       id="edge1"
       class="edge">
      <title
         id="title1706">rots-&gt;rota</title>
      <path
         fill="none"
         stroke="black"
         d="M120.35,-287.7C120.35,-279.98 120.35,-270.71 120.35,-262.11"
         id="path1708" />
      <polygon
         fill="black"
         stroke="black"
         points="123.85,-262.1 120.35,-252.1 116.85,-262.1 123.85,-262.1"
         id="polygon1710" />
    </g>
    <!-- rotnst -->
    <g
       id="node3"
       class="node">
      <title
         id="title1713">rotnst</title>
      <ellipse
         fill="none"
         stroke="black"
         cx="205.35"
         cy="-162"
         rx="38.99"
         ry="18"
         id="ellipse1715" />
      <text
         text-anchor="middle"
         x="205.35"
         y="-158.3"
         font-family="Times,serif"
         font-size="14.00"
         id="text1717">rotnst</text>
    </g>
    <!-- rota&#45;&gt;rotnst -->
    <g
       id="edge2"
       class="edge">
      <title
         id="title1720">rota-&gt;rotnst</title>
      <path
         fill="none"
         stroke="black"
         d="M137.55,-218.83C149.44,-209.04 165.48,-195.83 178.98,-184.71"
         id="path1722" />
      <polygon
         fill="black"
         stroke="black"
         points="181.5,-187.17 186.99,-178.11 177.05,-181.77 181.5,-187.17"
         id="polygon1724" />
    </g>
    <!-- states -->
    <g
       id="node4"
       class="node">
      <title
         id="title1727">states</title>
      <ellipse
         fill="none"
         stroke="black"
         cx="51.35"
         cy="-162"
         rx="38.99"
         ry="18"
         id="ellipse1729" />
      <text
         text-anchor="middle"
         x="51.35"
         y="-158.3"
         font-family="Times,serif"
         font-size="14.00"
         id="text1731">states</text>
    </g>
    <!-- rota&#45;&gt;states -->
    <g
       id="edge3"
       class="edge">
      <title
         id="title1734">rota-&gt;states</title>
      <path
         fill="none"
         stroke="black"
         d="M105.71,-218.15C96.55,-208.85 84.54,-196.67 74.14,-186.12"
         id="path1736" />
      <polygon
         fill="black"
         stroke="black"
         points="76.43,-183.46 66.92,-178.8 71.44,-188.38 76.43,-183.46"
         id="polygon1738" />
    </g>
    <!-- quartic -->
    <g
       id="node5"
       class="node">
      <title
         id="title1741">quartic</title>
      <ellipse
         fill="none"
         stroke="black"
         cx="120.35"
         cy="-90"
         rx="44.39"
         ry="18"
         id="ellipse1743" />
      <text
         text-anchor="middle"
         x="120.35"
         y="-86.3"
         font-family="Times,serif"
         font-size="14.00"
         id="text1745">quartic</text>
    </g>
    <!-- rota&#45;&gt;quartic -->
    <g
       id="edge4"
       class="edge">
      <title
         id="title1748">rota-&gt;quartic</title>
      <path
         fill="none"
         stroke="black"
         d="M120.35,-215.87C120.35,-191.67 120.35,-147.21 120.35,-118.39"
         id="path1750" />
      <polygon
         fill="black"
         stroke="black"
         points="123.85,-118.19 120.35,-108.19 116.85,-118.19 123.85,-118.19"
         id="polygon1752" />
    </g>
    <!-- alphaa -->
    <g
       id="node9"
       class="node">
      <title
         id="title1755">alphaa</title>
      <ellipse
         fill="none"
         stroke="black"
         cx="224.35"
         cy="-90"
         rx="41.69"
         ry="18"
         id="ellipse1757" />
      <text
         text-anchor="middle"
         x="224.35"
         y="-86.3"
         font-family="Times,serif"
         font-size="14.00"
         id="text1759">alphaa</text>
    </g>
    <!-- rotnst&#45;&gt;alphaa -->
    <g
       id="edge8"
       class="edge">
      <title
         id="title1762">rotnst-&gt;alphaa</title>
      <path
         fill="none"
         stroke="black"
         d="M209.95,-144.05C212.06,-136.26 214.62,-126.82 217,-118.08"
         id="path1764" />
      <polygon
         fill="black"
         stroke="black"
         points="220.42,-118.84 219.66,-108.28 213.66,-117.01 220.42,-118.84"
         id="polygon1766" />
    </g>
    <!-- restst -->
    <g
       id="node6"
       class="node">
      <title
         id="title1769">restst</title>
      <ellipse
         fill="none"
         stroke="black"
         cx="38.35"
         cy="-18"
         rx="38.19"
         ry="18"
         id="ellipse1771" />
      <text
         text-anchor="middle"
         x="38.35"
         y="-14.3"
         font-family="Times,serif"
         font-size="14.00"
         id="text1773">restst</text>
    </g>
    <!-- states&#45;&gt;restst -->
    <g
       id="edge5"
       class="edge">
      <title
         id="title1776">states-&gt;restst</title>
      <path
         fill="none"
         stroke="black"
         d="M49.78,-143.87C47.56,-119.67 43.49,-75.21 40.85,-46.39"
         id="path1778" />
      <polygon
         fill="black"
         stroke="black"
         points="44.32,-45.83 39.92,-36.19 37.35,-46.47 44.32,-45.83"
         id="polygon1780" />
    </g>
    <!-- freq -->
    <g
       id="node7"
       class="node">
      <title
         id="title1783">freq</title>
      <ellipse
         fill="none"
         stroke="black"
         cx="202.35"
         cy="-18"
         rx="29.8"
         ry="18"
         id="ellipse1785" />
      <text
         text-anchor="middle"
         x="202.35"
         y="-14.3"
         font-family="Times,serif"
         font-size="14.00"
         id="text1787">freq</text>
    </g>
    <!-- quartic&#45;&gt;freq -->
    <g
       id="edge6"
       class="edge">
      <title
         id="title1790">quartic-&gt;freq</title>
      <path
         fill="none"
         stroke="black"
         d="M138.55,-73.46C150.16,-63.55 165.35,-50.59 177.99,-39.79"
         id="path1792" />
      <polygon
         fill="black"
         stroke="black"
         points="180.54,-42.22 185.87,-33.07 175.99,-36.9 180.54,-42.22"
         id="polygon1794" />
    </g>
    <!-- wila -->
    <g
       id="node8"
       class="node">
      <title
         id="title1797">wila</title>
      <ellipse
         fill="none"
         stroke="black"
         cx="124.35"
         cy="-18"
         rx="29.8"
         ry="18"
         id="ellipse1799" />
      <text
         text-anchor="middle"
         x="124.35"
         y="-14.3"
         font-family="Times,serif"
         font-size="14.00"
         id="text1801">wila</text>
    </g>
    <!-- quartic&#45;&gt;wila -->
    <g
       id="edge7"
       class="edge">
      <title
         id="title1804">quartic-&gt;wila</title>
      <path
         fill="none"
         stroke="black"
         d="M121.34,-71.7C121.78,-63.98 122.31,-54.71 122.8,-46.11"
         id="path1806" />
      <polygon
         fill="black"
         stroke="black"
         points="126.29,-46.29 123.37,-36.1 119.3,-45.89 126.29,-46.29"
         id="polygon1808" />
    </g>
    <!-- alphaa&#45;&gt;restst -->
    <g
       id="edge9"
       class="edge">
      <title
         id="title1811">alphaa-&gt;restst</title>
      <path
         fill="none"
         stroke="black"
         d="M194.05,-77.6C162.06,-65.56 111.54,-46.54 76.77,-33.46"
         id="path1813" />
      <polygon
         fill="black"
         stroke="black"
         points="78,-30.18 67.41,-29.94 75.53,-36.73 78,-30.18"
         id="polygon1815" />
    </g>
    <!-- alphaa&#45;&gt;freq -->
    <g
       id="edge10"
       class="edge">
      <title
         id="title1818">alphaa-&gt;freq</title>
      <path
         fill="none"
         stroke="black"
         d="M219.02,-72.05C216.51,-64.06 213.45,-54.33 210.64,-45.4"
         id="path1820" />
      <polygon
         fill="black"
         stroke="black"
         points="213.96,-44.28 207.62,-35.79 207.28,-46.38 213.96,-44.28"
         id="polygon1822" />
    </g>
    <!-- alphaa&#45;&gt;wila -->
    <g
       id="edge11"
       class="edge">
      <title
         id="title1825">alphaa-&gt;wila</title>
      <path
         fill="none"
         stroke="black"
         d="M203.14,-74.15C188.14,-63.66 167.91,-49.49 151.7,-38.14"
         id="path1827" />
      <polygon
         fill="black"
         stroke="black"
         points="153.36,-35.04 143.16,-32.17 149.35,-40.77 153.36,-35.04"
         id="polygon1829" />
    </g>
    <!-- zmat -->
    <g
       id="node10"
       class="node">
      <title
         id="title1832">zmat</title>
      <ellipse
         fill="none"
         stroke="black"
         cx="381.35"
         cy="-18"
         rx="33.6"
         ry="18"
         id="ellipse1834" />
      <text
         text-anchor="middle"
         x="381.35"
         y="-14.3"
         font-family="Times,serif"
         font-size="14.00"
         id="text1836">zmat</text>
    </g>
    <!-- alphaa&#45;&gt;zmat -->
    <g
       id="edge12"
       class="edge">
      <title
         id="title1839">alphaa-&gt;zmat</title>
      <path
         fill="none"
         stroke="black"
         d="M252.42,-76.49C278.96,-64.65 318.85,-46.86 347.22,-34.21"
         id="path1841" />
      <polygon
         fill="black"
         stroke="black"
         points="348.66,-37.41 356.37,-30.14 345.81,-31.01 348.66,-37.41"
         id="polygon1843" />
    </g>
    <!-- f3qcm -->
    <g
       id="node11"
       class="node">
      <title
         id="title1846">f3qcm</title>
      <ellipse
         fill="none"
         stroke="black"
         cx="290.35"
         cy="-18"
         rx="39.79"
         ry="18"
         id="ellipse1848" />
      <text
         text-anchor="middle"
         x="290.35"
         y="-14.3"
         font-family="Times,serif"
         font-size="14.00"
         id="text1850">f3qcm</text>
    </g>
    <!-- alphaa&#45;&gt;f3qcm -->
    <g
       id="edge13"
       class="edge">
      <title
         id="title1853">alphaa-&gt;f3qcm</title>
      <path
         fill="none"
         stroke="black"
         d="M239.32,-73.12C247.93,-63.99 258.9,-52.36 268.46,-42.22"
         id="path1855" />
      <polygon
         fill="black"
         stroke="black"
         points="271.12,-44.5 275.43,-34.82 266.02,-39.7 271.12,-44.5"
         id="polygon1857" />
    </g>
  </g>
  <path
     style="fill:#ff0000;stroke:#000000;stroke-width:0.750248"
     id="path2396"
     d="m 400.97579,290.95978 c -5.92279,8.62527 -11.91529,17.19983 -17.74178,25.89117 -3.6816,5.5961 -1.93063,2.92337 -5.25564,8.01643 0,0 6.2552,-2.75092 6.2552,-2.75092 v 0 c 3.14341,-5.01782 1.47296,-2.3826 5.02095,-7.89959 5.91287,-8.91396 11.99622,-17.71568 18.4836,-26.22432 0,0 -6.76233,2.96723 -6.76233,2.96723 z" />
  <path
     style="fill:#ff0000;stroke:#000000;stroke-width:0.750248"
     id="path2402"
     d="m 364.37742,280.85497 c 8.3139,9.24076 15.34542,19.5342 22.46916,29.6934 5.12483,7.17933 9.84985,14.6374 14.98838,21.80645 0.80142,1.20053 1.77398,2.26153 2.74938,3.31864 0,0 6.33237,-3.8547 6.33237,-3.8547 v 0 c -0.98763,-1.02596 -1.94567,-2.07889 -2.86869,-3.16367 -5.66358,-6.79235 -10.64672,-14.12171 -15.86612,-21.25105 -7.13835,-10.11415 -14.20514,-20.27855 -21.4225,-30.33683 0,0 -6.38198,3.78776 -6.38198,3.78776 z" />
  <path
     style="fill:#ff0000;stroke:#000000;stroke-width:0.750248"
     id="path2404"
     d="m 272.0371,335.38869 c 2.39758,-5.18287 5.86355,-9.72103 9.2723,-14.261 3.28679,-4.37753 6.04101,-7.98854 9.35938,-12.35535 6.15334,-8.39097 13.2436,-15.99513 20.75837,-23.16509 0,0 -6.31459,2.60535 -6.31459,2.60535 v 0 c -7.25511,7.19924 -14.13671,14.76907 -20.18333,23.02812 -10.48075,13.73219 0.84977,-1.09128 -9.54157,12.43647 -3.63311,4.72968 -7.26794,9.47193 -10.09773,14.74428 0,0 6.74717,-3.03278 6.74717,-3.03278 z" />
  <path
     style="fill:#ff0000;stroke:#000000;stroke-width:0.750248"
     id="path2406"
     d="m 275.96294,293.43547 c 6.62831,8.43099 13.18009,16.9218 19.76602,25.38617 3.07463,4.00682 6.18897,7.98771 8.94141,12.22587 0,0 6.22331,-3.65365 6.22331,-3.65365 v 0 c -2.94618,-4.158 -6.21439,-8.05694 -9.47691,-11.96912 -6.72583,-8.29215 -13.44882,-16.6457 -19.08489,-25.73334 0,0 -6.36894,3.74407 -6.36894,3.74407 z" />
  <path
     style="fill:#ff0000;stroke:#000000;stroke-width:0.750248"
     id="path2408"
     d="m 196.33482,321.31702 c 2.36015,-3.83022 5.54321,-6.99601 8.71542,-10.14194 3.71119,-3.68045 5.43873,-5.35509 9.22066,-9.05167 5.84547,-5.63315 3.01595,-2.93009 8.48366,-8.1143 0,0 -6.1549,2.53403 -6.1549,2.53403 v 0 c -5.30006,5.13278 -2.53881,2.4541 -8.28252,8.03732 -3.13921,3.04884 -6.29022,6.08553 -9.42291,9.14107 -1.30079,1.26876 -2.63413,2.50584 -3.8875,3.82147 -2.00514,2.10473 -3.77702,4.42632 -5.47165,6.78252 0,0 6.79974,-3.0085 6.79974,-3.0085 z" />
  <path
     style="fill:#ff0000;stroke:#000000;stroke-width:0.750248"
     id="path2410"
     d="m 189.94041,289.06549 c 1.4042,2.7001 2.18307,4.31293 3.94632,7.04469 1.33129,2.06254 2.76759,4.05545 4.16984,6.07041 4.29788,6.17588 8.7116,12.26843 13.11975,18.3656 3.95864,5.48323 2.10883,2.91232 5.55237,7.71059 0,0 5.89566,-3.50202 5.89566,-3.50202 v 0 c -3.69643,-4.6414 -1.72422,-2.14619 -5.90808,-7.49241 -4.55375,-5.98063 -9.09566,-11.96599 -13.1863,-18.27996 -2.58647,-3.99223 -4.09798,-6.49027 -6.03412,-10.58889 -0.44368,-0.93923 -0.79754,-1.91829 -1.1963,-2.87744 0,0 -6.35914,3.54943 -6.35914,3.54943 z" />
  <path
     style="fill:#ff0000;stroke:#000000;stroke-width:0.750248"
     id="path2412"
     d="m 106.43352,330.99753 c 0.26791,-0.31743 0.50606,-0.66257 0.80373,-0.95227 4.19414,-4.08189 9.10316,-7.43135 13.8034,-10.8812 8.82349,-6.44323 4.4728,-3.25639 13.05278,-9.55953 7.09409,-5.21091 3.7131,-2.73277 10.14158,-7.43632 0,0 -6.15729,2.44355 -6.15729,2.44355 v 0 c -6.1821,4.61395 -2.91592,2.18015 -9.79986,7.29959 -8.97619,6.62452 -3.68736,2.74312 -13.03889,9.5527 -5.01666,3.65302 -10.18725,7.17939 -14.73827,11.42172 -0.33345,0.31083 -0.615569,0.67254 -0.923358,1.00881 0,0 6.856178,-2.89705 6.856178,-2.89705 z" />
  <path
     style="fill:#ff0000;stroke:#000000;stroke-width:0.750248"
     id="path2414"
     d="m 104.72062,294.19679 c 7.49105,7.14738 15.12314,14.15116 22.69893,21.21028 5.5765,5.29659 11.30448,10.47189 16.39209,16.25284 0.26415,0.31573 0.52829,0.63145 0.79243,0.94717 0,0 6.26216,-3.79071 6.26216,-3.79071 v 0 c -0.29199,-0.30452 -0.58397,-0.60905 -0.87596,-0.91357 -5.47011,-5.53287 -11.41023,-10.57366 -17.0971,-15.87781 -4.90587,-4.54198 -9.80189,-9.09078 -14.53656,-13.81273 -2.37112,-2.36475 -4.05674,-4.08069 -6.1846,-6.51803 -0.36521,-0.41832 -0.69689,-0.86475 -1.04534,-1.29714 0,0 -6.40605,3.7997 -6.40605,3.7997 z" />
  <path
     style="fill:#ff0000;stroke:#000000;stroke-width:0.750248"
     id="path2416"
     d="m 23.304216,326.42091 c 4.750303,-6.43022 11.417379,-11.05498 17.819231,-15.68881 6.62955,-4.60161 13.28244,-9.16913 19.815011,-13.9081 0,0 -6.493314,2.57314 -6.493314,2.57314 v 0 c -6.372231,4.69691 -12.884097,9.19731 -19.373288,13.7303 -6.656053,4.83488 -13.469517,9.69256 -18.601452,16.21646 0,0 6.833812,-2.92299 6.833812,-2.92299 z" />
  <path
     style="fill:#ff0000;stroke:#000000;stroke-width:0.750248"
     id="path2418"
     d="m 20.452675,284.75523 c 8.391233,9.70506 15.866471,20.16558 23.468532,30.48944 5.035566,6.87833 2.654701,3.60597 7.148168,9.81303 0,0 5.713646,-3.39244 5.713646,-3.39244 v 0 c -4.743363,-6.05304 -2.249922,-2.8497 -7.472928,-9.61576 -7.68929,-10.23322 -15.061507,-20.69354 -22.613729,-31.02737 0,0 -6.243689,3.7331 -6.243689,3.7331 z" />
  <path
     style="fill:#ff0000;stroke:#000000;stroke-width:0.750248"
     id="path2420"
     d="m 34.948179,144.82427 c 0.385398,0.49074 0.757185,0.99249 1.156197,1.47224 1.902492,2.2874 3.876251,4.51484 5.782057,6.79949 4.330728,5.19158 8.524175,10.48502 12.688575,15.81011 5.686574,7.55673 11.74918,14.81786 17.65657,22.2004 0,0 6.093587,-3.6665 6.093587,-3.6665 v 0 c -6.348866,-7.04562 -12.477848,-14.28326 -18.24458,-21.81669 -4.163637,-5.31087 -8.349749,-10.60531 -12.468854,-15.95092 -1.208717,-1.56862 -3.973578,-5.16582 -5.281687,-7.04628 -0.339818,-0.48851 -0.633333,-1.00765 -0.949999,-1.51147 0,0 -6.431866,3.70962 -6.431866,3.70962 z" />
  <path
     style="fill:#ff0000;stroke:#000000;stroke-width:0.750248"
     id="path2422"
     d="m 38.531888,181.48722 c 7.759028,-5.54743 15.197568,-11.51023 22.478891,-17.66546 4.116296,-3.5712 8.091377,-7.29933 12.086423,-11.00409 0,0 -6.283973,2.57916 -6.283973,2.57916 v 0 c -3.872312,3.67046 -7.735157,7.35382 -11.776414,10.84027 -7.539932,6.34255 -15.266681,12.46237 -23.428056,17.99473 0,0 6.923129,-2.74461 6.923129,-2.74461 z" />
</svg>
